{"glyphs":{"0":{"ha":1386,"x_min":0,"x_max":0,"o":"m 664 1050 b 86 540 181 1050 86 728 l 86 499 b 664 -17 86 318 181 -17 l 722 -17 b 1300 499 1204 -17 1300 318 l 1300 540 b 722 1050 1300 724 1207 1050 z m 1003 511 b 694 221 1003 417 961 221 b 383 511 428 221 383 417 l 383 531 b 693 814 383 624 419 814 b 1003 531 964 814 1003 624 z "},"1":{"ha":729,"x_min":0,"x_max":0,"o":"m 313 668 l 313 0 l 597 0 l 597 1033 l 383 1033 b 67 878 339 908 275 878 l 67 668 z "},"2":{"ha":1236,"x_min":0,"x_max":0,"o":"m 1160 0 l 1160 247 l 343 247 b 583 356 343 269 379 304 b 749 394 632 368 693 382 b 1136 715 1036 461 1136 536 l 1136 726 b 653 1046 1136 903 1022 1046 l 590 1046 b 104 671 174 1046 104 811 l 104 661 l 403 661 b 626 825 407 711 424 825 b 833 725 797 825 833 781 b 660 606 833 674 797 646 l 494 556 b 86 150 106 433 86 297 l 86 0 z "},"3":{"ha":1247,"x_min":0,"x_max":0,"o":"m 638 -15 b 1168 333 1075 -15 1168 178 l 1168 343 b 982 579 1168 483 1071 557 b 1136 771 1060 606 1136 660 l 1136 781 b 638 1046 1136 897 1057 1046 l 560 1046 b 86 732 136 1046 86 817 l 86 717 l 383 717 b 613 824 388 742 397 824 b 851 722 828 824 851 771 b 725 639 851 679 826 639 l 396 639 l 396 429 l 726 429 b 865 339 832 429 865 393 b 615 215 865 286 836 215 b 378 351 396 215 382 324 l 72 351 l 72 339 b 579 -15 72 232 142 -15 z "},"4":{"ha":1294,"x_min":0,"x_max":0,"o":"m 75 225 l 735 225 l 735 0 l 1018 0 l 1018 225 l 1238 225 l 1238 447 l 1018 447 l 1018 1040 l 640 1040 l 75 407 z m 735 447 l 381 447 l 735 846 z "},"5":{"ha":1228,"x_min":0,"x_max":0,"o":"m 653 -15 b 1149 350 1050 -15 1149 193 l 1149 367 b 704 688 1149 519 1064 688 l 690 688 b 400 607 504 688 411 618 l 400 799 l 1076 799 l 1076 1033 l 117 1033 l 117 394 l 400 394 b 628 475 404 421 443 475 b 864 351 811 475 864 425 l 864 343 b 628 215 864 274 807 215 b 403 308 438 215 407 285 l 101 308 l 101 289 b 597 -15 101 203 165 -15 z "},"6":{"ha":1304,"x_min":0,"x_max":0,"o":"m 701 -15 b 1221 335 1144 -15 1221 199 l 1221 358 b 764 653 1221 515 1103 653 l 733 653 b 378 553 493 653 404 575 l 378 563 b 660 825 378 647 406 825 b 890 732 854 825 879 758 l 1190 732 l 1190 733 b 675 1046 1190 863 1104 1046 l 633 1046 b 86 522 161 1046 86 689 l 86 490 b 633 -15 86 304 156 -15 z m 417 335 b 669 451 417 385 456 451 b 926 335 892 451 926 385 l 926 326 b 669 204 926 281 899 204 b 417 328 458 204 417 278 z "},"7":{"ha":1208,"x_min":0,"x_max":0,"o":"m 88 1033 l 88 629 l 369 629 l 369 808 l 886 808 b 651 543 886 790 774 681 b 458 90 463 335 458 244 l 458 0 l 771 0 l 771 33 b 914 488 771 158 778 278 b 1139 817 1007 632 1090 749 l 1139 1033 z "},"8":{"ha":1282,"x_min":0,"x_max":0,"o":"m 669 -17 b 1203 293 1143 -17 1203 181 l 1203 311 b 969 542 1203 438 1096 519 b 1178 749 1074 560 1178 635 l 1178 765 b 669 1043 1178 871 1132 1043 l 611 1043 b 104 765 151 1043 104 871 l 104 749 b 311 542 104 626 211 560 b 79 311 189 519 79 438 l 79 293 b 611 -17 79 181 135 -17 z m 875 735 b 640 642 875 693 846 642 b 406 735 438 642 406 693 l 406 740 b 640 833 406 779 435 833 b 875 740 846 833 875 779 z m 901 315 b 640 203 901 265 868 203 b 381 315 414 203 381 265 l 381 319 b 640 431 381 369 413 431 b 901 319 868 431 901 369 z "},"9":{"ha":1304,"x_min":0,"x_max":0,"o":"m 888 696 b 635 579 888 646 849 579 b 378 696 413 579 378 646 l 378 704 b 635 826 378 747 406 826 b 888 703 846 826 888 751 z m 676 -15 b 1218 508 1150 -15 1218 331 l 1218 540 b 682 1046 1218 721 1147 1046 l 597 1046 b 83 696 164 1046 83 833 l 83 674 b 540 378 83 514 201 378 l 571 378 b 926 478 811 378 900 456 l 926 468 b 644 206 926 383 897 206 b 414 297 440 206 418 279 l 115 297 l 115 296 b 625 -15 115 179 196 -15 z "},"\u0000":{"ha":0,"x_min":0,"x_max":0,"o":""},"\r":{"ha":401,"x_min":0,"x_max":0,"o":""}," ":{"ha":401,"x_min":0,"x_max":0,"o":""},"!":{"ha":525,"x_min":0,"x_max":0,"o":"m 107 1033 l 197 336 l 329 336 l 418 1033 z m 413 246 l 114 246 l 114 0 l 413 0 z "},"\"":{"ha":846,"x_min":0,"x_max":0,"o":"m 731 1033 l 496 1033 l 496 622 l 731 622 z m 350 1033 l 115 1033 l 115 622 l 350 622 z "},"#":{"ha":1108,"x_min":0,"x_max":0,"o":"m 629 438 l 428 438 l 478 642 l 676 642 z m 525 0 l 725 0 l 792 278 l 949 278 l 988 438 l 829 438 l 879 642 l 1036 642 l 1076 801 l 917 801 l 972 1033 l 769 1033 l 714 801 l 515 801 l 571 1033 l 369 1033 l 315 801 l 157 801 l 118 642 l 278 642 l 231 438 l 71 438 l 32 278 l 193 278 l 128 0 l 324 0 l 390 278 l 590 278 z "},"$":{"ha":1308,"x_min":0,"x_max":0,"o":"m 392 753 b 585 849 392 810 424 842 l 585 649 b 392 753 421 656 392 700 z m 922 317 b 719 188 922 257 899 199 l 719 425 b 922 317 885 418 922 382 z m 719 -124 l 719 -18 b 1222 308 1151 -7 1222 161 l 1222 325 b 760 643 1222 501 1133 632 l 719 644 l 719 846 b 901 729 872 835 894 776 l 1200 729 l 1200 744 b 719 1046 1200 878 1143 1035 l 719 1154 l 585 1154 l 585 1046 b 94 756 179 1039 94 896 l 94 743 b 550 429 94 576 192 440 l 585 428 l 585 189 b 390 340 411 204 394 299 l 86 340 l 86 325 b 585 -17 86 206 139 -6 l 585 -124 z "},"%":{"ha":1871,"x_min":0,"x_max":0,"o":"m 432 439 b 778 732 717 439 778 628 l 778 757 b 432 1046 778 863 717 1046 l 401 1046 b 57 757 117 1046 57 863 l 57 732 b 401 439 57 628 117 439 z m 1296 1033 l 338 0 l 574 0 l 1531 1033 z m 579 739 b 415 604 579 678 538 604 b 254 742 294 604 254 676 l 254 750 b 415 882 254 818 292 882 b 579 750 538 882 579 818 z m 1468 -11 b 1814 283 1753 -11 1814 179 l 1814 307 b 1468 596 1814 413 1753 596 l 1439 596 b 1093 307 1154 596 1093 413 l 1093 283 b 1439 -11 1093 179 1154 -11 z m 1451 432 b 1615 301 1574 432 1615 368 l 1615 289 b 1451 154 1615 228 1574 154 b 1290 292 1331 154 1290 226 l 1290 301 b 1451 432 1290 368 1328 432 z "},"&":{"ha":1410,"x_min":0,"x_max":0,"o":"m 492 794 b 632 886 492 846 521 886 b 793 782 758 886 793 843 b 624 636 793 711 729 668 b 492 794 540 701 492 743 z m 614 172 b 344 333 429 172 344 249 l 344 338 b 444 469 344 406 399 447 l 814 197 b 614 172 763 182 693 172 z m 1382 215 b 1183 239 1294 217 1238 222 b 1329 607 1285 363 1325 497 l 1063 607 b 993 347 1063 544 1044 442 l 738 546 b 1042 797 974 590 1042 690 l 1042 804 b 657 1050 1042 915 982 1050 l 607 1050 b 215 803 306 1050 215 925 l 215 792 b 344 554 215 688 268 621 b 60 297 194 525 60 449 l 60 283 b 603 -17 60 122 203 -17 b 996 69 774 -17 907 19 b 1307 -15 1089 14 1175 -15 z "},"'":{"ha":469,"x_min":0,"x_max":0,"o":"m 354 1033 l 115 1033 l 115 621 l 354 621 z "},"(":{"ha":513,"x_min":0,"x_max":0,"o":"m 296 471 b 481 1122 296 736 388 974 l 328 1122 b 76 471 228 1000 76 788 b 328 -182 76 153 226 -58 l 481 -182 b 296 471 388 -33 296 206 z "},")":{"ha":514,"x_min":0,"x_max":0,"o":"m 217 471 b 32 -182 217 206 125 -33 l 186 -182 b 438 471 288 -58 438 153 b 186 1122 438 788 286 1000 l 32 1122 b 217 471 125 974 217 736 z "},"*":{"ha":731,"x_min":0,"x_max":0,"o":"m 424 661 l 586 546 l 656 688 l 456 751 l 656 815 l 586 957 l 424 843 l 457 1033 l 276 1033 l 311 843 l 147 957 l 75 815 l 275 751 l 75 688 l 147 546 l 311 661 l 276 471 l 457 471 z "},"+":{"ha":935,"x_min":0,"x_max":0,"o":"m 832 353 l 832 536 l 572 536 l 572 800 l 364 800 l 364 536 l 103 536 l 103 353 l 364 353 l 364 88 l 572 88 l 572 353 z "},",":{"ha":507,"x_min":0,"x_max":0,"o":"m 340 -200 b 415 69 374 -143 415 -42 l 415 269 l 92 269 l 92 0 l 236 0 b 160 -200 226 -60 194 -137 z "},"-":{"ha":663,"x_min":0,"x_max":0,"o":"m 103 529 l 103 303 l 560 303 l 560 529 z "},".":{"ha":507,"x_min":0,"x_max":0,"o":"m 415 269 l 92 269 l 92 0 l 415 0 z "},"/":{"ha":654,"x_min":0,"x_max":0,"o":"m 638 1122 l 426 1122 l -21 -182 l 189 -182 z "},":":{"ha":521,"x_min":0,"x_max":0,"o":"m 422 269 l 99 269 l 99 0 l 422 0 z m 422 738 l 99 738 l 99 468 l 422 468 z "},";":{"ha":521,"x_min":0,"x_max":0,"o":"m 347 -200 b 422 69 381 -143 422 -42 l 422 269 l 99 269 l 99 0 l 243 0 b 167 -200 233 -60 201 -137 z m 422 738 l 99 738 l 99 468 l 422 468 z "},"<":{"ha":840,"x_min":0,"x_max":0,"o":"m 731 104 l 731 310 l 335 443 l 731 578 l 731 786 l 110 543 l 110 344 z "},"=":{"ha":925,"x_min":0,"x_max":0,"o":"m 110 681 l 110 506 l 815 506 l 815 681 z m 110 386 l 110 211 l 815 211 l 815 386 z "},">":{"ha":840,"x_min":0,"x_max":0,"o":"m 110 104 l 731 344 l 731 543 l 110 786 l 110 578 l 506 443 l 110 310 z "},"?":{"ha":1119,"x_min":0,"x_max":0,"o":"m 651 336 l 651 354 b 746 460 651 417 675 433 l 814 483 b 1056 751 994 546 1056 626 l 1056 761 b 594 1046 1056 906 954 1046 l 517 1046 b 56 717 99 1046 56 839 l 56 700 l 349 700 b 556 836 353 740 350 836 b 765 753 740 836 765 796 b 654 658 765 715 744 693 l 588 633 b 382 406 418 571 382 519 l 382 336 z m 667 246 l 368 246 l 368 0 l 667 0 z "},"@":{"ha":1708,"x_min":0,"x_max":0,"o":"m 868 -224 b 1492 -112 1261 -224 1436 -146 l 1447 28 b 868 -85 1393 -4 1239 -85 b 261 401 372 -85 261 161 l 261 418 b 846 893 261 682 374 893 l 861 893 b 1458 489 1443 893 1458 669 l 1458 485 b 1283 188 1458 299 1383 188 b 1243 242 1251 188 1239 213 l 1297 736 l 1033 736 l 1024 646 b 756 753 994 679 922 753 l 738 753 b 435 478 533 753 450 615 l 428 408 b 722 53 410 243 488 53 l 740 53 b 996 160 894 53 974 133 b 1200 53 1011 121 1057 53 l 1219 53 b 1626 478 1536 53 1626 288 l 1626 493 b 861 1032 1626 688 1593 1032 l 846 1032 b 82 421 263 1032 82 749 l 82 404 b 868 -224 82 93 229 -224 z m 825 233 b 689 404 713 233 682 322 l 692 435 b 851 574 699 511 740 574 b 1001 418 958 574 1007 513 l 1000 394 b 825 233 993 307 947 233 z "},"A":{"ha":1351,"x_min":0,"x_max":0,"o":"m 849 404 l 479 404 l 661 825 z m 1029 0 l 1336 0 l 857 1033 l 474 1033 l 15 0 l 303 0 l 386 192 l 944 192 z "},"B":{"ha":1375,"x_min":0,"x_max":0,"o":"m 128 0 l 886 0 b 1303 299 1218 0 1303 158 l 1303 314 b 1061 569 1303 481 1178 550 b 1251 774 1139 581 1251 643 l 1251 789 b 882 1033 1251 904 1178 1033 l 128 1033 z m 840 818 b 953 726 925 818 953 776 l 953 724 b 840 633 953 675 928 633 l 414 633 l 414 818 z m 863 431 b 992 336 963 431 992 388 l 992 331 b 863 226 992 279 963 226 l 414 226 l 414 431 z "},"C":{"ha":1399,"x_min":0,"x_max":0,"o":"m 743 -15 b 1321 400 1182 -15 1321 211 l 1321 404 l 1026 404 b 713 222 1022 371 988 222 b 379 513 461 222 379 385 l 379 532 b 711 813 379 671 458 813 b 1026 638 983 813 1022 667 l 1321 638 l 1321 640 b 743 1049 1321 836 1176 1049 l 679 1049 b 82 540 207 1049 82 756 l 82 499 b 679 -15 82 288 207 -15 z "},"D":{"ha":1399,"x_min":0,"x_max":0,"o":"m 128 0 l 658 0 b 1319 511 1225 0 1319 294 l 1319 553 b 657 1033 1319 763 1196 1033 l 128 1033 z m 414 804 l 644 804 b 1022 525 989 804 1022 642 l 1022 517 b 644 231 1022 400 992 231 l 414 231 z "},"E":{"ha":1183,"x_min":0,"x_max":0,"o":"m 128 1033 l 128 0 l 1082 0 l 1082 228 l 410 228 l 410 407 l 1053 407 l 1053 640 l 410 640 l 410 808 l 1074 808 l 1074 1033 z "},"F":{"ha":1164,"x_min":0,"x_max":0,"o":"m 128 1033 l 128 0 l 413 0 l 413 383 l 1050 383 l 1050 619 l 413 619 l 413 804 l 1069 804 l 1069 1033 z "},"G":{"ha":1450,"x_min":0,"x_max":0,"o":"m 703 -15 b 1076 143 946 -15 1054 114 b 1111 0 1092 110 1107 38 l 1339 0 l 1339 564 l 743 564 l 743 379 l 1024 379 b 721 218 1019 349 965 218 b 379 514 465 218 379 379 l 379 532 b 711 814 379 671 457 814 b 1031 678 979 814 1019 704 l 1326 678 l 1326 681 b 733 1047 1326 851 1183 1047 l 686 1047 b 82 539 215 1047 82 758 l 82 501 b 681 -15 82 269 225 -15 z "},"H":{"ha":1404,"x_min":0,"x_max":0,"o":"m 128 0 l 414 0 l 414 415 l 990 415 l 990 0 l 1276 0 l 1276 1033 l 990 1033 l 990 650 l 414 650 l 414 1033 l 128 1033 z "},"I":{"ha":542,"x_min":0,"x_max":0,"o":"m 414 1033 l 128 1033 l 128 0 l 414 0 z "},"J":{"ha":1206,"x_min":0,"x_max":0,"o":"m 589 -17 b 1085 481 1013 -17 1085 293 l 1085 1033 l 799 1033 l 799 481 b 568 228 799 349 750 228 l 563 228 b 353 443 386 228 357 371 l 57 443 l 57 435 b 543 -17 57 267 142 -17 z "},"K":{"ha":1282,"x_min":0,"x_max":0,"o":"m 414 0 l 414 486 l 911 0 l 1285 0 l 717 560 l 1261 1033 l 897 1033 l 414 608 l 414 1033 l 128 1033 l 128 0 z "},"L":{"ha":1114,"x_min":0,"x_max":0,"o":"m 128 1033 l 128 0 l 1046 0 l 1046 243 l 414 243 l 414 1033 z "},"M":{"ha":1661,"x_min":0,"x_max":0,"o":"m 128 0 l 403 0 l 403 676 l 717 0 l 940 0 l 1254 676 l 1254 0 l 1533 0 l 1533 1033 l 1176 1033 l 838 333 l 508 1033 l 128 1033 z "},"N":{"ha":1432,"x_min":0,"x_max":0,"o":"m 1024 0 l 1304 0 l 1304 1033 l 1026 1033 l 1026 368 l 422 1033 l 128 1033 l 128 0 l 407 0 l 407 669 z "},"O":{"ha":1467,"x_min":0,"x_max":0,"o":"m 703 1050 b 82 540 219 1050 82 765 l 82 499 b 703 -17 82 276 219 -17 l 764 -17 b 1385 499 1247 -17 1385 276 l 1385 540 b 764 1050 1385 767 1247 1050 z m 1088 510 b 733 221 1088 385 1024 221 b 379 510 449 221 379 385 l 379 529 b 733 814 379 657 444 814 b 1088 529 1025 814 1088 657 z "},"P":{"ha":1328,"x_min":0,"x_max":0,"o":"m 828 331 b 1256 675 1150 331 1256 479 l 1256 690 b 828 1033 1256 890 1154 1033 l 128 1033 l 128 0 l 414 0 l 414 331 z m 414 803 l 807 803 b 958 685 913 803 958 757 l 958 679 b 807 561 958 606 913 561 l 414 561 z "},"Q":{"ha":1469,"x_min":0,"x_max":0,"o":"m 619 -215 l 1075 -215 l 917 -6 b 1388 499 1290 50 1388 310 l 1388 540 b 765 1050 1388 753 1267 1050 l 704 1050 b 82 540 200 1050 82 756 l 82 499 b 619 -14 82 300 192 19 z m 1090 510 b 735 221 1090 385 1028 221 b 379 510 444 221 379 388 l 379 529 b 735 814 379 657 442 814 b 1090 529 1031 814 1090 650 z "},"R":{"ha":1363,"x_min":0,"x_max":0,"o":"m 414 806 l 813 806 b 961 699 929 806 961 758 l 961 696 b 813 586 961 636 929 586 l 414 586 z m 1043 497 b 1261 743 1172 526 1261 614 l 1261 757 b 824 1033 1261 869 1217 1033 l 128 1033 l 128 0 l 414 0 l 414 351 l 786 351 b 979 157 931 351 979 290 l 979 72 b 989 0 979 26 985 7 l 1285 0 l 1285 7 b 1268 122 1275 24 1268 44 l 1268 229 b 1043 497 1268 381 1183 465 z "},"S":{"ha":1285,"x_min":0,"x_max":0,"o":"m 667 -18 b 1199 326 1129 -18 1199 175 l 1199 343 b 742 646 1199 511 1110 631 l 599 651 b 399 750 436 658 399 697 b 625 842 399 807 442 842 l 639 842 b 871 728 839 842 864 774 l 1178 728 l 1178 743 b 658 1046 1178 879 1115 1046 l 611 1046 b 97 740 183 1046 97 901 l 97 728 b 544 426 97 572 206 438 l 682 422 b 893 315 853 415 893 378 b 650 192 893 256 865 192 l 640 192 b 397 340 421 192 401 294 l 86 340 l 86 325 b 626 -18 86 201 142 -18 z "},"T":{"ha":1213,"x_min":0,"x_max":0,"o":"m 464 0 l 749 0 l 749 797 l 1149 797 l 1149 1033 l 64 1033 l 64 797 l 464 797 z "},"U":{"ha":1408,"x_min":0,"x_max":0,"o":"m 726 -15 b 1288 508 1215 -15 1288 301 l 1288 1033 l 1003 1033 l 1003 515 b 710 228 1003 397 972 228 l 703 228 b 407 515 440 228 407 397 l 407 1033 l 121 1033 l 121 508 b 686 -15 121 303 179 -15 z "},"V":{"ha":1354,"x_min":0,"x_max":0,"o":"m 874 0 l 1336 1033 l 1025 1033 l 688 250 l 351 1033 l 18 1033 l 497 0 z "},"W":{"ha":1861,"x_min":0,"x_max":0,"o":"m 713 0 l 932 724 l 1151 0 l 1493 0 l 1836 1033 l 1554 1033 l 1328 288 l 1110 1033 l 776 1033 l 560 290 l 332 1033 l 25 1033 l 381 0 z "},"X":{"ha":1306,"x_min":0,"x_max":0,"o":"m 946 0 l 1292 0 l 838 528 l 1272 1033 l 943 1033 l 664 713 l 383 1033 l 21 1033 l 469 525 l 14 0 l 350 0 l 650 336 z "},"Y":{"ha":1288,"x_min":0,"x_max":0,"o":"m 510 0 l 796 0 l 796 376 l 1290 1033 l 971 1033 l 661 624 l 351 1033 l -3 1033 l 510 378 z "},"Z":{"ha":1261,"x_min":0,"x_max":0,"o":"m 1160 0 l 1160 236 l 494 236 l 1154 835 l 1154 1033 l 107 1033 l 107 800 l 736 800 l 103 199 l 103 0 z "},"[":{"ha":557,"x_min":0,"x_max":0,"o":"m 114 -182 l 497 -182 l 497 -33 l 328 -33 l 328 974 l 497 974 l 497 1122 l 114 1122 z "},"\\":{"ha":654,"x_min":0,"x_max":0,"o":"m 675 -182 l 228 1122 l 17 1122 l 465 -182 z "},"]":{"ha":557,"x_min":0,"x_max":0,"o":"m 60 -182 l 443 -182 l 443 1122 l 60 1122 l 60 974 l 231 974 l 231 -33 l 60 -33 z "},"^":{"ha":904,"x_min":0,"x_max":0,"o":"m 635 539 l 879 539 l 582 1033 l 321 1033 l 25 539 l 271 539 l 453 842 z "},"_":{"ha":1011,"x_min":0,"x_max":0,"o":"m 54 -233 l 957 -233 l 957 -40 l 54 -40 z "},"`":{"ha":972,"x_min":0,"x_max":0,"o":"m 575 1064 l 272 1064 l 426 857 l 697 857 z "},"a":{"ha":1088,"x_min":0,"x_max":0,"o":"m 476 154 b 347 239 382 154 347 190 l 347 242 b 519 336 347 296 389 314 b 689 372 597 349 665 363 l 689 313 b 476 154 689 254 635 154 z m 697 107 b 826 0 708 57 746 0 l 1046 0 l 1046 207 l 1017 207 b 953 275 963 207 953 226 l 953 529 b 547 789 953 632 929 789 l 504 789 b 94 533 125 789 94 610 l 94 531 l 372 531 b 528 615 372 560 386 615 b 689 540 678 615 689 576 b 631 490 689 508 674 494 l 419 472 b 74 235 158 450 74 368 l 74 229 b 378 -15 74 101 163 -15 l 400 -15 b 697 107 581 -15 664 67 z "},"b":{"ha":1176,"x_min":0,"x_max":0,"o":"m 707 -15 b 1100 378 1001 -15 1100 207 l 1100 401 b 710 786 1100 586 1004 786 l 692 786 b 386 675 513 786 421 710 l 386 1051 l 115 1051 l 115 0 l 349 0 b 371 103 353 33 360 69 b 688 -15 404 69 500 -15 z m 819 385 b 611 189 819 306 781 189 l 597 189 b 383 385 435 189 383 300 l 383 389 b 597 585 383 478 435 585 l 611 585 b 819 389 781 585 819 472 z "},"c":{"ha":1113,"x_min":0,"x_max":0,"o":"m 757 303 b 572 181 757 285 733 181 l 558 181 b 356 390 401 181 356 294 l 356 392 b 553 594 356 485 393 594 l 567 594 b 757 476 726 594 753 499 l 1040 476 l 1040 478 b 594 792 1040 589 967 792 l 531 792 b 75 394 143 792 75 540 l 75 375 b 532 -21 75 229 147 -21 l 600 -21 b 1040 303 971 -21 1040 186 z "},"d":{"ha":1176,"x_min":0,"x_max":0,"o":"m 581 585 b 793 389 742 585 793 478 l 793 385 b 581 189 793 300 742 189 l 565 189 b 357 385 396 189 357 306 l 357 389 b 565 585 357 472 396 585 z m 790 1051 l 790 689 b 492 786 757 719 668 786 l 475 786 b 78 399 192 786 78 592 l 78 375 b 478 -15 78 179 196 -15 l 496 -15 b 792 100 678 -15 765 69 l 792 0 l 1061 0 l 1061 1051 z "},"e":{"ha":1126,"x_min":0,"x_max":0,"o":"m 561 611 b 763 474 735 611 763 531 l 354 474 b 561 611 368 554 421 611 z m 768 240 b 585 167 761 228 742 167 b 351 328 419 167 363 239 l 1053 328 l 1053 353 b 588 788 1053 568 982 788 l 526 788 b 75 394 161 788 75 568 l 75 375 b 550 -18 75 190 169 -18 l 601 -18 b 1050 240 1000 -18 1050 176 z "},"f":{"ha":722,"x_min":0,"x_max":0,"o":"m 668 1051 l 464 1051 b 224 833 271 1051 224 967 l 224 771 l 53 771 l 53 576 l 224 576 l 224 0 l 493 0 l 493 576 l 668 576 l 668 771 l 493 771 l 493 819 b 554 883 493 865 511 883 l 668 883 z "},"g":{"ha":1175,"x_min":0,"x_max":0,"o":"m 582 586 b 793 410 738 586 793 492 l 793 404 b 583 229 793 326 743 229 l 567 229 b 357 406 403 229 357 329 l 357 410 b 567 586 357 488 397 586 z m 610 -286 b 1060 86 951 -286 1060 -119 l 1060 771 l 790 771 l 790 692 b 488 786 757 721 672 786 l 472 786 b 78 421 182 786 78 594 l 78 397 b 476 26 78 232 172 26 l 496 26 b 792 132 685 26 763 103 l 792 75 b 593 -87 792 -18 743 -87 l 578 -87 b 408 -28 436 -87 419 -50 l 121 -28 l 121 -33 b 563 -286 121 -122 163 -286 z "},"h":{"ha":1150,"x_min":0,"x_max":0,"o":"m 115 0 l 386 0 l 386 392 b 582 576 386 486 453 576 b 767 401 715 576 767 490 l 767 0 l 1038 0 l 1038 500 b 710 789 1038 638 936 789 l 696 789 b 386 650 521 789 419 690 l 386 1051 l 115 1051 z "},"i":{"ha":501,"x_min":0,"x_max":0,"o":"m 389 1051 l 113 1051 l 113 857 l 389 857 z m 386 771 l 115 771 l 115 0 l 386 0 z "},"j":{"ha":501,"x_min":0,"x_max":0,"o":"m 389 1051 l 113 1051 l 113 857 l 389 857 z m -22 -64 l -22 -265 l 225 -265 b 386 -68 332 -265 386 -196 l 386 771 l 115 771 l 115 -3 b 61 -64 115 -47 101 -64 z "},"k":{"ha":1008,"x_min":0,"x_max":0,"o":"m 386 0 l 386 357 l 686 0 l 1008 0 l 651 425 l 974 771 l 661 771 l 386 463 l 386 1051 l 115 1051 l 115 0 z "},"l":{"ha":501,"x_min":0,"x_max":0,"o":"m 386 1051 l 115 1051 l 115 0 l 386 0 z "},"m":{"ha":1732,"x_min":0,"x_max":0,"o":"m 386 0 l 386 392 b 564 576 386 486 443 576 b 733 401 688 576 733 490 l 733 0 l 1003 0 l 1003 392 b 1179 576 1003 486 1060 576 b 1349 401 1303 576 1349 490 l 1349 0 l 1619 0 l 1619 469 b 1299 789 1619 621 1540 789 l 1286 789 b 964 635 1124 789 1019 710 b 688 789 919 722 833 789 l 676 789 b 383 646 508 789 415 693 l 383 771 l 115 771 l 115 0 z "},"n":{"ha":1150,"x_min":0,"x_max":0,"o":"m 115 0 l 386 0 l 386 392 b 582 576 386 486 453 576 b 767 401 715 576 767 490 l 767 0 l 1038 0 l 1038 500 b 710 789 1038 638 936 789 l 696 789 b 383 649 519 789 418 690 l 383 771 l 115 771 z "},"o":{"ha":1149,"x_min":0,"x_max":0,"o":"m 596 -21 b 1075 371 1025 -21 1075 232 l 1075 393 b 597 792 1075 529 1025 792 l 551 792 b 74 392 138 792 74 531 l 74 372 b 553 -21 74 232 138 -21 z m 567 182 b 353 389 389 182 353 304 b 567 593 353 476 389 593 l 582 593 b 796 389 753 593 796 476 b 582 182 796 304 753 182 z "},"p":{"ha":1178,"x_min":0,"x_max":0,"o":"m 821 385 b 613 189 821 306 782 189 l 599 189 b 385 385 436 189 385 300 l 385 389 b 599 585 385 478 436 585 l 613 585 b 821 389 782 585 821 472 z m 115 -265 l 386 -265 l 386 99 b 690 -15 419 65 514 -15 l 710 -15 b 1101 378 1003 -15 1101 210 l 1101 401 b 711 786 1101 585 1006 786 l 693 786 b 383 672 518 786 417 708 l 383 771 l 115 771 z "},"q":{"ha":1176,"x_min":0,"x_max":0,"o":"m 469 786 b 78 401 188 786 78 586 l 78 378 b 475 -15 78 189 189 -15 l 493 -15 b 792 99 675 -15 767 69 l 792 -265 l 1061 -265 l 1061 771 l 824 771 b 803 672 821 736 814 704 b 486 786 767 708 675 786 z m 581 585 b 793 389 742 585 793 478 l 793 385 b 581 189 793 300 742 189 l 565 189 b 357 385 396 189 357 306 l 357 389 b 565 585 357 472 396 585 z "},"r":{"ha":968,"x_min":0,"x_max":0,"o":"m 386 0 l 386 410 b 515 576 386 510 431 576 b 625 413 600 576 625 518 l 625 401 l 904 401 b 906 489 906 435 906 456 b 643 788 906 669 825 788 l 635 788 b 383 644 476 788 401 682 l 383 771 l 115 771 l 115 0 z "},"s":{"ha":1024,"x_min":0,"x_max":0,"o":"m 522 -18 b 949 246 893 -18 949 117 l 949 256 b 594 483 949 385 872 472 l 489 488 b 350 560 378 492 350 517 b 497 624 350 599 381 624 l 501 624 b 649 549 628 624 640 576 l 932 549 l 932 553 b 514 789 932 653 888 789 l 476 789 b 78 547 150 789 78 679 l 78 539 b 417 308 78 411 168 324 l 522 300 b 669 226 651 293 669 265 b 521 153 669 189 642 153 l 518 153 b 364 235 381 153 368 208 l 74 235 l 74 228 b 486 -18 74 163 107 -18 z "},"t":{"ha":742,"x_min":0,"x_max":0,"o":"m 667 207 l 571 207 b 490 293 506 207 490 233 l 490 576 l 667 576 l 667 771 l 490 771 l 490 1006 l 221 1006 l 221 771 l 53 771 l 53 576 l 221 576 l 221 208 b 421 0 221 69 294 0 l 667 0 z "},"u":{"ha":1142,"x_min":0,"x_max":0,"o":"m 1026 771 l 756 771 l 756 379 b 564 196 756 285 690 196 b 383 369 432 196 383 279 l 383 771 l 113 771 l 113 271 b 436 -18 113 133 214 -18 l 449 -18 b 758 122 622 -18 728 81 l 758 0 l 1026 0 z "},"v":{"ha":1060,"x_min":0,"x_max":0,"o":"m 367 0 l 711 0 l 1035 771 l 760 771 l 542 214 l 325 771 l 25 771 z "},"w":{"ha":1600,"x_min":0,"x_max":0,"o":"m 647 0 l 808 500 l 978 0 l 1296 0 l 1568 771 l 1311 771 l 1140 236 l 968 771 l 663 771 l 503 236 l 318 771 l 31 771 l 332 0 z "},"x":{"ha":1044,"x_min":0,"x_max":0,"o":"m 729 0 l 1042 0 l 689 392 l 1021 771 l 722 771 l 532 556 l 335 771 l 3 771 l 360 386 l 14 0 l 321 0 l 522 221 z "},"y":{"ha":1046,"x_min":0,"x_max":0,"o":"m 171 -265 l 419 -265 b 668 -78 547 -265 614 -204 l 1021 771 l 749 771 l 536 218 l 322 771 l 25 771 l 356 36 b 381 -39 376 -7 381 -22 l 381 -40 b 340 -72 381 -61 367 -72 l 171 -72 z "},"z":{"ha":1025,"x_min":0,"x_max":0,"o":"m 944 0 l 944 211 l 435 211 l 926 589 l 926 771 l 85 771 l 85 568 l 560 568 l 82 186 l 82 0 z "},"{":{"ha":544,"x_min":0,"x_max":0,"o":"m 485 -182 l 485 -33 l 376 -33 b 314 33 333 -33 314 -6 b 392 350 314 99 392 261 b 271 475 392 421 358 458 b 392 618 358 493 392 535 b 314 919 392 700 314 854 b 368 974 314 956 332 974 l 485 974 l 485 1122 l 313 1122 b 103 954 164 1122 103 1064 b 206 597 103 843 206 675 b 151 551 206 565 190 551 l 57 551 l 57 396 l 151 396 b 206 339 190 396 206 379 b 103 -24 206 265 103 90 b 313 -182 103 -135 174 -182 z "},"|":{"ha":521,"x_min":0,"x_max":0,"o":"m 358 1122 l 163 1122 l 163 -182 l 358 -182 z "},"}":{"ha":544,"x_min":0,"x_max":0,"o":"m 232 -182 b 442 -24 371 -182 442 -135 b 339 339 442 90 339 265 b 393 396 339 379 354 396 l 488 396 l 488 551 l 393 551 b 339 597 354 551 339 565 b 442 954 339 675 442 843 b 232 1122 442 1064 381 1122 l 60 1122 l 60 974 l 176 974 b 231 919 213 974 231 956 b 153 618 231 854 153 700 b 274 475 153 535 186 493 b 153 350 186 458 153 421 b 231 33 153 261 231 99 b 168 -33 231 -6 211 -33 l 60 -33 l 60 -182 z "},"~":{"ha":963,"x_min":0,"x_max":0,"o":"m 689 311 b 863 501 811 311 863 414 l 863 768 l 653 768 l 653 590 b 624 546 653 561 643 546 b 513 617 600 546 564 576 b 276 725 428 682 369 725 b 100 535 143 725 100 629 l 100 276 l 310 276 l 310 443 b 339 489 310 474 319 489 b 449 422 365 489 388 471 b 689 311 542 351 600 311 z "},"¡":{"ha":525,"x_min":0,"x_max":0,"o":"m 418 -262 l 328 435 l 196 435 l 107 -262 z m 113 525 l 411 525 l 411 771 l 113 771 z "},"¢":{"ha":1142,"x_min":0,"x_max":0,"o":"m 353 392 b 514 599 353 474 375 576 l 514 176 b 353 390 381 199 353 313 z m 644 -133 l 644 -21 b 1069 304 1017 -10 1069 203 l 790 304 b 644 175 786 285 769 197 l 644 597 b 790 479 764 578 786 497 l 1069 479 l 1069 481 b 644 792 1069 585 1003 781 l 644 904 l 514 904 l 514 792 b 75 394 140 776 75 533 l 75 375 b 514 -21 75 233 138 -6 l 514 -133 z "},"£":{"ha":1215,"x_min":0,"x_max":0,"o":"m 1128 374 l 844 374 l 844 213 l 419 213 b 488 383 451 233 488 285 b 485 446 488 404 486 424 l 883 446 l 883 586 l 469 586 b 464 671 465 618 464 647 b 643 835 464 751 488 835 b 817 676 811 835 813 717 l 1111 676 l 1111 679 b 667 1046 1111 808 1081 1046 l 617 1046 b 194 719 278 1046 194 865 l 194 708 b 210 586 194 669 200 629 l 75 586 l 75 446 l 244 446 b 264 325 256 400 264 358 l 264 322 b 161 213 264 244 222 213 l 75 213 l 75 0 l 1128 0 z "},"¥":{"ha":1174,"x_min":0,"x_max":0,"o":"m 453 0 l 733 0 l 733 203 l 1051 203 l 1051 326 l 733 326 l 733 413 l 1051 413 l 1051 536 l 804 536 l 1174 1033 l 867 1033 l 600 661 l 339 1033 l 0 1033 l 383 536 l 135 536 l 135 413 l 453 413 l 453 326 l 135 326 l 135 203 l 453 203 z "},"§":{"ha":1199,"x_min":0,"x_max":0,"o":"m 807 257 b 467 326 774 268 738 275 b 349 435 372 344 349 386 b 392 525 349 478 368 510 b 736 456 421 514 457 504 b 851 349 826 439 851 397 b 807 257 851 310 833 275 z m 632 -290 b 1049 -11 961 -290 1049 -154 l 1049 3 b 949 197 1049 81 1019 151 b 1118 393 1025 219 1118 274 l 1118 407 b 794 668 1118 540 1053 624 l 557 710 b 415 799 429 732 415 761 l 415 801 b 596 872 415 840 435 872 l 606 872 b 794 760 781 872 790 793 l 1061 760 l 1061 764 b 633 1050 1061 890 1019 1050 l 583 1050 b 150 797 246 1050 150 949 l 150 783 b 254 586 150 688 193 624 b 81 397 160 561 81 503 l 81 385 b 408 113 81 261 147 160 l 642 71 b 779 -24 769 49 779 15 l 779 -26 b 614 -107 779 -64 757 -107 l 604 -107 b 389 28 408 -107 389 -18 l 119 28 l 119 24 b 581 -290 119 -75 147 -290 z "},"¨":{"ha":972,"x_min":0,"x_max":0,"o":"m 444 1051 l 179 1051 l 179 857 l 444 857 z m 793 1051 l 528 1051 l 528 857 l 793 857 z "},"©":{"ha":1499,"x_min":0,"x_max":0,"o":"m 1417 538 b 767 1049 1417 799 1263 1049 l 732 1049 b 82 538 236 1049 82 799 l 82 499 b 731 -15 82 231 236 -15 l 768 -15 b 1417 499 1263 -15 1417 231 z m 735 104 b 231 508 344 104 231 304 l 231 525 b 735 929 231 751 342 929 l 764 929 b 1268 525 1157 929 1268 751 l 1268 508 b 764 104 1268 304 1153 104 z m 769 204 b 1150 457 1108 204 1150 376 l 1150 463 l 933 463 b 754 361 929 442 906 361 b 565 518 604 361 565 446 l 565 529 b 753 676 565 607 603 676 b 933 583 901 676 929 601 l 1149 583 l 1149 588 b 769 833 1149 664 1114 833 l 738 833 b 357 533 404 833 357 649 l 357 510 b 738 204 357 396 413 204 z "},"ª":{"ha":899,"x_min":0,"x_max":0,"o":"m 392 558 b 297 621 326 558 297 586 b 375 688 297 656 315 678 l 557 718 l 557 697 b 392 558 557 621 496 558 z m 565 524 b 668 438 576 481 601 438 l 842 438 l 842 606 l 818 606 b 769 658 775 606 769 621 l 769 856 b 456 1043 769 940 740 1043 l 401 1043 b 97 853 128 1043 97 915 l 97 851 l 306 851 b 425 907 306 868 315 907 l 435 907 b 557 854 542 907 557 878 b 521 821 557 833 549 825 l 317 803 b 85 628 165 788 85 739 l 85 621 b 324 428 85 521 151 428 l 335 428 b 565 524 476 428 544 492 z "},"«":{"ha":890,"x_min":0,"x_max":0,"o":"m 831 146 l 657 400 l 838 650 l 610 650 l 432 400 l 607 146 z m 458 146 l 282 400 l 460 650 l 231 650 l 54 400 l 233 146 z "},"®":{"ha":1089,"x_min":0,"x_max":0,"o":"m 571 319 b 1008 674 899 319 1008 511 l 1008 697 b 574 1050 1008 851 933 1050 l 521 1050 b 81 700 161 1050 81 851 l 81 674 b 521 319 81 511 169 319 z m 547 414 b 194 686 229 414 194 563 b 547 956 194 815 229 956 l 550 956 b 899 694 861 956 899 811 b 550 414 899 572 857 414 z m 467 717 l 467 788 l 600 788 b 639 751 632 788 639 772 b 600 717 639 731 632 717 z m 467 622 l 592 622 b 639 569 629 622 639 607 l 639 531 b 651 499 639 510 646 504 l 793 499 l 793 506 b 785 543 788 513 785 525 l 785 611 b 706 696 785 650 760 685 b 779 778 739 701 779 726 l 779 783 b 635 874 779 833 746 874 l 324 874 l 324 499 l 467 499 z "},"¯":{"ha":972,"x_min":0,"x_max":0,"o":"m 232 875 l 740 875 l 740 1039 l 232 1039 z "},"°":{"ha":731,"x_min":0,"x_max":0,"o":"m 369 486 b 661 771 540 486 661 614 b 369 1050 661 926 540 1050 b 69 771 190 1050 69 926 b 369 486 69 614 190 486 z m 367 642 b 238 769 288 642 238 693 b 367 894 238 840 288 894 b 494 769 443 894 494 840 b 367 642 494 693 443 642 z "},"´":{"ha":972,"x_min":0,"x_max":0,"o":"m 275 857 l 546 857 l 700 1064 l 397 1064 z "},"¶":{"ha":1122,"x_min":0,"x_max":0,"o":"m 468 0 l 656 0 l 656 869 l 779 869 l 779 0 l 968 0 l 968 869 l 1071 869 l 1071 1033 l 414 1033 b 72 758 156 1033 72 915 l 72 732 b 411 456 72 572 182 456 l 468 456 z "},"·":{"ha":507,"x_min":0,"x_max":0,"o":"m 415 563 l 92 563 l 92 293 l 415 293 z "},"¸":{"ha":974,"x_min":0,"x_max":0,"o":"m 476 -358 b 694 -214 656 -358 694 -290 l 694 -210 b 476 -69 694 -124 656 -69 l 469 -69 l 469 0 l 315 0 l 315 -171 l 426 -171 b 475 -203 465 -171 475 -185 b 426 -233 475 -221 465 -233 l 275 -233 l 275 -358 z "},"º":{"ha":932,"x_min":0,"x_max":0,"o":"m 440 1043 b 83 747 167 1043 83 883 l 83 728 b 440 428 83 593 167 428 l 496 428 b 849 728 774 428 849 593 l 849 747 b 496 1043 844 882 775 1043 z m 468 592 b 315 739 353 592 315 665 b 468 882 315 817 353 882 b 619 739 579 882 619 815 b 468 592 619 665 582 592 z "},"»":{"ha":889,"x_min":0,"x_max":0,"o":"m 283 146 l 458 400 l 281 650 l 53 650 l 232 400 l 60 146 z m 657 146 l 835 400 l 660 650 l 431 650 l 607 400 l 432 146 z "},"¿":{"ha":1119,"x_min":0,"x_max":0,"o":"m 468 435 l 468 417 b 374 311 468 354 444 338 l 306 288 b 64 19 125 225 64 144 l 64 10 b 525 -275 64 -135 165 -275 l 603 -275 b 1064 54 1021 -275 1064 -68 l 1064 71 l 771 71 b 564 -65 767 31 769 -65 b 354 18 379 -65 354 -25 b 465 113 354 56 375 78 l 532 138 b 738 365 701 200 738 251 l 738 435 z m 453 525 l 751 525 l 751 771 l 453 771 z "},"À":{"ha":1351,"x_min":0,"x_max":0,"o":"m 849 404 l 479 404 l 661 825 z m 1029 0 l 1336 0 l 857 1033 l 474 1033 l 15 0 l 303 0 l 386 192 l 944 192 z m 522 1118 l 810 1118 l 683 1324 l 375 1324 z "},"Á":{"ha":1351,"x_min":0,"x_max":0,"o":"m 849 404 l 479 404 l 661 825 z m 1029 0 l 1336 0 l 857 1033 l 474 1033 l 15 0 l 303 0 l 386 192 l 944 192 z m 808 1118 l 956 1324 l 647 1324 l 521 1118 z "},"Â":{"ha":1351,"x_min":0,"x_max":0,"o":"m 849 404 l 479 404 l 661 825 z m 1029 0 l 1336 0 l 857 1033 l 474 1033 l 15 0 l 303 0 l 386 192 l 944 192 z m 826 1324 l 508 1324 l 314 1115 l 578 1115 l 665 1203 l 753 1115 l 1021 1115 z "},"Ã":{"ha":1351,"x_min":0,"x_max":0,"o":"m 849 404 l 479 404 l 661 825 z m 1029 0 l 1336 0 l 857 1033 l 474 1033 l 15 0 l 303 0 l 386 192 l 944 192 z m 546 1167 b 565 1197 546 1183 550 1197 b 644 1169 581 1197 601 1188 b 817 1119 715 1140 765 1119 l 819 1119 b 940 1256 918 1119 940 1197 l 940 1364 l 785 1364 l 785 1308 b 765 1278 785 1292 781 1278 b 686 1306 750 1278 729 1288 b 514 1356 615 1335 565 1356 l 511 1356 b 390 1219 413 1356 390 1278 l 390 1111 l 546 1111 z "},"Ä":{"ha":1351,"x_min":0,"x_max":0,"o":"m 849 404 l 479 404 l 661 825 z m 1029 0 l 1336 0 l 857 1033 l 474 1033 l 15 0 l 303 0 l 386 192 l 944 192 z m 622 1313 l 353 1313 l 353 1118 l 622 1118 z m 978 1313 l 708 1313 l 708 1118 l 978 1118 z "},"Å":{"ha":1351,"x_min":0,"x_max":0,"o":"m 849 404 l 479 404 l 661 825 z m 1029 0 l 1336 0 l 857 1033 l 474 1033 l 15 0 l 303 0 l 386 192 l 944 192 z m 432 1286 b 665 1106 432 1193 489 1106 b 900 1286 843 1106 900 1193 b 665 1467 900 1385 840 1467 b 432 1286 492 1467 432 1385 z m 760 1286 b 665 1208 760 1246 731 1208 b 572 1286 600 1208 572 1246 b 665 1363 572 1329 600 1363 b 760 1286 731 1363 760 1329 z "},"Æ":{"ha":1768,"x_min":0,"x_max":0,"o":"m 789 390 l 521 390 l 789 835 z m 789 0 l 1667 0 l 1667 228 l 1071 228 l 1071 407 l 1636 407 l 1636 640 l 1071 640 l 1071 808 l 1656 808 l 1656 1033 l 626 1033 l -19 0 l 285 0 l 399 188 l 789 188 z "},"Ç":{"ha":1399,"x_min":0,"x_max":0,"o":"m 935 -210 b 717 -69 935 -124 896 -69 l 710 -69 l 710 -15 l 743 -15 b 1321 400 1182 -15 1321 211 l 1321 404 l 1026 404 b 713 222 1022 371 988 222 b 379 513 461 222 379 385 l 379 532 b 711 813 379 671 458 813 b 1026 638 983 813 1022 667 l 1321 638 l 1321 640 b 743 1049 1321 836 1176 1049 l 679 1049 b 82 540 207 1049 82 756 l 82 499 b 556 -7 82 306 183 42 l 556 -171 l 667 -171 b 715 -203 706 -171 715 -185 b 667 -233 715 -221 706 -233 l 515 -233 l 515 -358 l 717 -358 b 935 -214 896 -358 935 -290 z "},"È":{"ha":1183,"x_min":0,"x_max":0,"o":"m 128 1033 l 128 0 l 1082 0 l 1082 228 l 410 228 l 410 407 l 1053 407 l 1053 640 l 410 640 l 410 808 l 1074 808 l 1074 1033 z m 493 1118 l 781 1118 l 654 1324 l 346 1324 z "},"É":{"ha":1183,"x_min":0,"x_max":0,"o":"m 128 1033 l 128 0 l 1082 0 l 1082 228 l 410 228 l 410 407 l 1053 407 l 1053 640 l 410 640 l 410 808 l 1074 808 l 1074 1033 z m 746 1118 l 893 1324 l 585 1324 l 458 1118 z "},"Ê":{"ha":1183,"x_min":0,"x_max":0,"o":"m 128 1033 l 128 0 l 1082 0 l 1082 228 l 410 228 l 410 407 l 1053 407 l 1053 640 l 410 640 l 410 808 l 1074 808 l 1074 1033 z m 764 1324 l 446 1324 l 251 1115 l 515 1115 l 603 1203 l 690 1115 l 958 1115 z "},"Ë":{"ha":1183,"x_min":0,"x_max":0,"o":"m 128 1033 l 128 0 l 1082 0 l 1082 228 l 410 228 l 410 407 l 1053 407 l 1053 640 l 410 640 l 410 808 l 1074 808 l 1074 1033 z m 560 1313 l 290 1313 l 290 1118 l 560 1118 z m 915 1313 l 646 1313 l 646 1118 l 915 1118 z "},"Ì":{"ha":542,"x_min":0,"x_max":0,"o":"m 414 1033 l 128 1033 l 128 0 l 414 0 z m 128 1118 l 415 1118 l 289 1324 l -19 1324 z "},"Í":{"ha":542,"x_min":0,"x_max":0,"o":"m 414 1033 l 128 1033 l 128 0 l 414 0 z m 414 1118 l 561 1324 l 253 1324 l 126 1118 z "},"Î":{"ha":542,"x_min":0,"x_max":0,"o":"m 414 1033 l 128 1033 l 128 0 l 414 0 z m 432 1324 l 114 1324 l -81 1115 l 183 1115 l 271 1203 l 358 1115 l 626 1115 z "},"Ï":{"ha":542,"x_min":0,"x_max":0,"o":"m 414 1033 l 128 1033 l 128 0 l 414 0 z m 228 1313 l -42 1313 l -42 1118 l 228 1118 z m 583 1313 l 314 1313 l 314 1118 l 583 1118 z "},"Ñ":{"ha":1432,"x_min":0,"x_max":0,"o":"m 1024 0 l 1304 0 l 1304 1033 l 1026 1033 l 1026 368 l 422 1033 l 128 1033 l 128 0 l 407 0 l 407 669 z m 610 1167 b 629 1197 610 1183 614 1197 b 708 1169 644 1197 665 1188 b 881 1119 779 1140 829 1119 l 883 1119 b 1004 1256 982 1119 1004 1197 l 1004 1364 l 849 1364 l 849 1308 b 829 1278 849 1292 844 1278 b 750 1306 814 1278 793 1288 b 578 1356 679 1335 629 1356 l 575 1356 b 454 1219 476 1356 454 1278 l 454 1111 l 610 1111 z "},"Ò":{"ha":1467,"x_min":0,"x_max":0,"o":"m 703 1050 b 82 540 219 1050 82 765 l 82 499 b 703 -17 82 276 219 -17 l 764 -17 b 1385 499 1247 -17 1385 276 l 1385 540 b 764 1050 1385 767 1247 1050 z m 1088 510 b 733 221 1088 385 1024 221 b 379 510 449 221 379 385 l 379 529 b 733 814 379 657 444 814 b 1088 529 1025 814 1088 657 z m 590 1118 l 878 1118 l 751 1324 l 443 1324 z "},"Ó":{"ha":1467,"x_min":0,"x_max":0,"o":"m 703 1050 b 82 540 219 1050 82 765 l 82 499 b 703 -17 82 276 219 -17 l 764 -17 b 1385 499 1247 -17 1385 276 l 1385 540 b 764 1050 1385 767 1247 1050 z m 1088 510 b 733 221 1088 385 1024 221 b 379 510 449 221 379 385 l 379 529 b 733 814 379 657 444 814 b 1088 529 1025 814 1088 657 z m 876 1118 l 1024 1324 l 715 1324 l 589 1118 z "},"Ô":{"ha":1467,"x_min":0,"x_max":0,"o":"m 703 1050 b 82 540 219 1050 82 765 l 82 499 b 703 -17 82 276 219 -17 l 764 -17 b 1385 499 1247 -17 1385 276 l 1385 540 b 764 1050 1385 767 1247 1050 z m 1088 510 b 733 221 1088 385 1024 221 b 379 510 449 221 379 385 l 379 529 b 733 814 379 657 444 814 b 1088 529 1025 814 1088 657 z m 894 1324 l 576 1324 l 382 1115 l 646 1115 l 733 1203 l 821 1115 l 1089 1115 z "},"Õ":{"ha":1467,"x_min":0,"x_max":0,"o":"m 703 1050 b 82 540 219 1050 82 765 l 82 499 b 703 -17 82 276 219 -17 l 764 -17 b 1385 499 1247 -17 1385 276 l 1385 540 b 764 1050 1385 767 1247 1050 z m 1088 510 b 733 221 1088 385 1024 221 b 379 510 449 221 379 385 l 379 529 b 733 814 379 657 444 814 b 1088 529 1025 814 1088 657 z m 614 1167 b 633 1197 614 1183 618 1197 b 713 1169 649 1197 669 1188 b 885 1119 783 1140 833 1119 l 888 1119 b 1008 1256 986 1119 1008 1197 l 1008 1364 l 853 1364 l 853 1308 b 833 1278 853 1292 849 1278 b 754 1306 818 1278 797 1288 b 582 1356 683 1335 633 1356 l 579 1356 b 458 1219 481 1356 458 1278 l 458 1111 l 614 1111 z "},"Ö":{"ha":1467,"x_min":0,"x_max":0,"o":"m 703 1050 b 82 540 219 1050 82 765 l 82 499 b 703 -17 82 276 219 -17 l 764 -17 b 1385 499 1247 -17 1385 276 l 1385 540 b 764 1050 1385 767 1247 1050 z m 1088 510 b 733 221 1088 385 1024 221 b 379 510 449 221 379 385 l 379 529 b 733 814 379 657 444 814 b 1088 529 1025 814 1088 657 z m 690 1313 l 421 1313 l 421 1118 l 690 1118 z m 1046 1313 l 776 1313 l 776 1118 l 1046 1118 z "},"Ø":{"ha":1461,"x_min":0,"x_max":0,"o":"m 760 -17 b 1379 499 1269 -17 1379 296 l 1379 540 b 1251 879 1379 646 1349 775 l 1419 1033 l 1165 1033 l 1107 981 b 760 1050 1019 1024 910 1050 l 701 1050 b 82 540 193 1050 76 746 l 82 499 b 214 156 82 393 113 264 l 46 0 l 299 0 l 358 53 b 701 -17 447 10 553 -17 z m 372 531 b 731 817 372 657 436 817 b 906 796 804 817 860 811 l 418 344 b 372 511 386 396 372 457 z m 732 219 b 561 239 661 219 606 228 l 1049 692 b 1089 531 1078 640 1089 582 l 1089 511 b 732 219 1089 385 1025 219 z "},"Ù":{"ha":1408,"x_min":0,"x_max":0,"o":"m 726 -15 b 1288 508 1215 -15 1288 301 l 1288 1033 l 1003 1033 l 1003 515 b 710 228 1003 397 972 228 l 703 228 b 407 515 440 228 407 397 l 407 1033 l 121 1033 l 121 508 b 686 -15 121 303 179 -15 z m 563 1118 l 850 1118 l 724 1324 l 415 1324 z "},"Ú":{"ha":1408,"x_min":0,"x_max":0,"o":"m 726 -15 b 1288 508 1215 -15 1288 301 l 1288 1033 l 1003 1033 l 1003 515 b 710 228 1003 397 972 228 l 703 228 b 407 515 440 228 407 397 l 407 1033 l 121 1033 l 121 508 b 686 -15 121 303 179 -15 z m 847 1118 l 994 1324 l 686 1324 l 560 1118 z "},"Û":{"ha":1408,"x_min":0,"x_max":0,"o":"m 726 -15 b 1288 508 1215 -15 1288 301 l 1288 1033 l 1003 1033 l 1003 515 b 710 228 1003 397 972 228 l 703 228 b 407 515 440 228 407 397 l 407 1033 l 121 1033 l 121 508 b 686 -15 121 303 179 -15 z m 867 1324 l 549 1324 l 354 1115 l 618 1115 l 706 1203 l 793 1115 l 1061 1115 z "},"Ü":{"ha":1408,"x_min":0,"x_max":0,"o":"m 726 -15 b 1288 508 1215 -15 1288 301 l 1288 1033 l 1003 1033 l 1003 515 b 710 228 1003 397 972 228 l 703 228 b 407 515 440 228 407 397 l 407 1033 l 121 1033 l 121 508 b 686 -15 121 303 179 -15 z m 663 1313 l 393 1313 l 393 1118 l 663 1118 z m 1018 1313 l 749 1313 l 749 1118 l 1018 1118 z "},"ß":{"ha":1153,"x_min":0,"x_max":0,"o":"m 842 608 b 1011 813 921 631 1011 694 l 1011 821 b 581 1072 1011 938 931 1072 l 572 1072 b 115 751 151 1072 115 886 l 115 0 l 386 0 l 386 726 b 564 878 386 815 421 878 l 572 878 b 746 771 725 878 746 819 l 746 768 b 614 657 746 724 731 657 l 482 657 l 482 461 l 633 461 b 801 332 778 461 801 397 l 801 331 b 633 196 801 264 778 196 l 482 196 l 482 0 l 651 0 b 1079 322 990 0 1079 142 l 1079 339 b 842 608 1079 533 924 593 z "},"à":{"ha":1088,"x_min":0,"x_max":0,"o":"m 476 154 b 347 239 382 154 347 190 l 347 242 b 519 336 347 296 389 314 b 689 372 597 349 665 363 l 689 313 b 476 154 689 254 635 154 z m 697 107 b 826 0 708 57 746 0 l 1046 0 l 1046 207 l 1017 207 b 953 275 963 207 953 226 l 953 529 b 547 789 953 632 929 789 l 504 789 b 94 533 125 789 94 610 l 94 531 l 372 531 b 528 615 372 560 386 615 b 689 540 678 615 689 576 b 631 490 689 508 674 494 l 419 472 b 74 235 158 450 74 368 l 74 229 b 378 -15 74 101 163 -15 l 400 -15 b 697 107 581 -15 664 67 z m 543 1064 l 240 1064 l 394 857 l 665 857 z "},"á":{"ha":1088,"x_min":0,"x_max":0,"o":"m 476 154 b 347 239 382 154 347 190 l 347 242 b 519 336 347 296 389 314 b 689 372 597 349 665 363 l 689 313 b 476 154 689 254 635 154 z m 697 107 b 826 0 708 57 746 0 l 1046 0 l 1046 207 l 1017 207 b 953 275 963 207 953 226 l 953 529 b 547 789 953 632 929 789 l 504 789 b 94 533 125 789 94 610 l 94 531 l 372 531 b 528 615 372 560 386 615 b 689 540 678 615 689 576 b 631 490 689 508 674 494 l 419 472 b 74 235 158 450 74 368 l 74 229 b 378 -15 74 101 163 -15 l 400 -15 b 697 107 581 -15 664 67 z m 392 856 l 663 856 l 817 1063 l 514 1063 z "},"â":{"ha":1088,"x_min":0,"x_max":0,"o":"m 476 154 b 347 239 382 154 347 190 l 347 242 b 519 336 347 296 389 314 b 689 372 597 349 665 363 l 689 313 b 476 154 689 254 635 154 z m 697 107 b 826 0 708 57 746 0 l 1046 0 l 1046 207 l 1017 207 b 953 275 963 207 953 226 l 953 529 b 547 789 953 632 929 789 l 504 789 b 94 533 125 789 94 610 l 94 531 l 372 531 b 528 615 372 560 386 615 b 689 540 678 615 689 576 b 631 490 689 508 674 494 l 419 472 b 74 235 158 450 74 368 l 74 229 b 378 -15 74 101 163 -15 l 400 -15 b 697 107 581 -15 664 67 z m 690 1064 l 369 1064 l 181 856 l 446 856 l 528 946 l 610 856 l 881 856 z "},"ã":{"ha":1088,"x_min":0,"x_max":0,"o":"m 476 154 b 347 239 382 154 347 190 l 347 242 b 519 336 347 296 389 314 b 689 372 597 349 665 363 l 689 313 b 476 154 689 254 635 154 z m 697 107 b 826 0 708 57 746 0 l 1046 0 l 1046 207 l 1017 207 b 953 275 963 207 953 226 l 953 529 b 547 789 953 632 929 789 l 504 789 b 94 533 125 789 94 610 l 94 531 l 372 531 b 528 615 372 560 386 615 b 689 540 678 615 689 576 b 631 490 689 508 674 494 l 419 472 b 74 235 158 450 74 368 l 74 229 b 378 -15 74 101 163 -15 l 400 -15 b 697 107 581 -15 664 67 z m 788 1107 l 632 1107 l 632 1051 b 613 1021 632 1031 625 1021 b 543 1050 597 1021 583 1029 b 390 1099 478 1083 442 1099 l 388 1099 b 268 963 290 1099 268 1019 l 268 853 l 424 853 l 424 908 b 443 939 424 929 431 939 b 513 910 458 939 472 931 b 665 861 578 876 614 861 l 668 861 b 788 997 765 861 788 940 z "},"ä":{"ha":1088,"x_min":0,"x_max":0,"o":"m 476 154 b 347 239 382 154 347 190 l 347 242 b 519 336 347 296 389 314 b 689 372 597 349 665 363 l 689 313 b 476 154 689 254 635 154 z m 697 107 b 826 0 708 57 746 0 l 1046 0 l 1046 207 l 1017 207 b 953 275 963 207 953 226 l 953 529 b 547 789 953 632 929 789 l 504 789 b 94 533 125 789 94 610 l 94 531 l 372 531 b 528 615 372 560 386 615 b 689 540 678 615 689 576 b 631 490 689 508 674 494 l 419 472 b 74 235 158 450 74 368 l 74 229 b 378 -15 74 101 163 -15 l 400 -15 b 697 107 581 -15 664 67 z m 486 1051 l 221 1051 l 221 857 l 486 857 z m 835 1051 l 569 1051 l 569 857 l 835 857 z "},"å":{"ha":1088,"x_min":0,"x_max":0,"o":"m 476 154 b 347 239 382 154 347 190 l 347 242 b 519 336 347 296 389 314 b 689 372 597 349 665 363 l 689 313 b 476 154 689 254 635 154 z m 697 107 b 826 0 708 57 746 0 l 1046 0 l 1046 207 l 1017 207 b 953 275 963 207 953 226 l 953 529 b 547 789 953 632 929 789 l 504 789 b 94 533 125 789 94 610 l 94 531 l 372 531 b 528 615 372 560 386 615 b 689 540 678 615 689 576 b 631 490 689 508 674 494 l 419 472 b 74 235 158 450 74 368 l 74 229 b 378 -15 74 101 163 -15 l 400 -15 b 697 107 581 -15 664 67 z m 294 1029 b 528 849 294 933 351 849 b 763 1029 706 849 763 933 b 528 1208 763 1125 703 1208 b 294 1029 354 1208 294 1125 z m 435 1029 b 528 1104 435 1072 463 1104 b 622 1029 593 1104 622 1072 b 528 951 622 989 593 951 b 435 1029 463 951 435 989 z "},"æ":{"ha":1718,"x_min":0,"x_max":0,"o":"m 1157 613 b 1356 469 1324 613 1356 529 l 954 469 b 1157 613 969 551 1019 613 z m 469 154 b 347 239 381 154 347 190 l 347 242 b 513 336 347 293 389 314 b 675 372 583 349 651 363 l 675 313 b 469 154 675 254 619 154 z m 1360 232 b 1181 167 1356 225 1332 167 b 951 328 1019 167 967 239 l 1646 328 l 1646 353 b 1183 788 1646 568 1571 788 l 1124 788 b 846 717 994 788 900 760 b 540 789 794 761 697 789 l 497 789 b 94 533 125 789 94 611 l 94 531 l 372 531 b 521 615 372 560 388 615 b 675 540 661 615 675 576 b 617 490 675 508 660 494 l 413 472 b 74 235 156 450 74 368 l 74 229 b 383 -15 74 101 157 -15 l 406 -15 b 749 133 608 -15 706 68 b 1147 -18 804 60 919 -18 l 1196 -18 b 1643 232 1589 -18 1643 178 z "},"ç":{"ha":1113,"x_min":0,"x_max":0,"o":"m 788 -210 b 569 -69 788 -124 749 -69 l 563 -69 l 563 -21 l 600 -21 b 1040 303 971 -21 1040 186 l 757 303 b 572 181 757 285 733 181 l 558 181 b 356 390 401 181 356 294 l 356 392 b 553 594 356 485 393 594 l 567 594 b 757 476 726 594 753 499 l 1040 476 l 1040 478 b 594 792 1040 589 967 792 l 531 792 b 75 394 143 792 75 540 l 75 375 b 408 -11 75 246 131 38 l 408 -171 l 519 -171 b 568 -203 558 -171 568 -185 b 519 -233 568 -221 558 -233 l 368 -233 l 368 -358 l 569 -358 b 788 -214 749 -358 788 -290 z "},"è":{"ha":1126,"x_min":0,"x_max":0,"o":"m 561 611 b 763 474 735 611 763 531 l 354 474 b 561 611 368 554 421 611 z m 768 240 b 585 167 761 228 742 167 b 351 328 419 167 363 239 l 1053 328 l 1053 353 b 588 788 1053 568 982 788 l 526 788 b 75 394 161 788 75 568 l 75 375 b 550 -18 75 190 169 -18 l 601 -18 b 1050 240 1000 -18 1050 176 z m 574 1064 l 271 1064 l 425 857 l 696 857 z "},"é":{"ha":1126,"x_min":0,"x_max":0,"o":"m 561 611 b 763 474 735 611 763 531 l 354 474 b 561 611 368 554 421 611 z m 768 240 b 585 167 761 228 742 167 b 351 328 419 167 363 239 l 1053 328 l 1053 353 b 588 788 1053 568 982 788 l 526 788 b 75 394 161 788 75 568 l 75 375 b 550 -18 75 190 169 -18 l 601 -18 b 1050 240 1000 -18 1050 176 z m 422 857 l 693 857 l 847 1064 l 544 1064 z "},"ê":{"ha":1126,"x_min":0,"x_max":0,"o":"m 561 611 b 763 474 735 611 763 531 l 354 474 b 561 611 368 554 421 611 z m 768 240 b 585 167 761 228 742 167 b 351 328 419 167 363 239 l 1053 328 l 1053 353 b 588 788 1053 568 982 788 l 526 788 b 75 394 161 788 75 568 l 75 375 b 550 -18 75 190 169 -18 l 601 -18 b 1050 240 1000 -18 1050 176 z m 721 1064 l 400 1064 l 211 856 l 476 856 l 558 946 l 640 856 l 911 856 z "},"ë":{"ha":1126,"x_min":0,"x_max":0,"o":"m 561 611 b 763 474 735 611 763 531 l 354 474 b 561 611 368 554 421 611 z m 768 240 b 585 167 761 228 742 167 b 351 328 419 167 363 239 l 1053 328 l 1053 353 b 588 788 1053 568 982 788 l 526 788 b 75 394 161 788 75 568 l 75 375 b 550 -18 75 190 169 -18 l 601 -18 b 1050 240 1000 -18 1050 176 z m 517 1051 l 251 1051 l 251 857 l 517 857 z m 865 1051 l 600 1051 l 600 857 l 865 857 z "},"ì":{"ha":501,"x_min":0,"x_max":0,"o":"m 261 1064 l -36 1064 l 113 857 l 383 857 z m 386 771 l 115 771 l 115 0 l 386 0 z "},"í":{"ha":501,"x_min":0,"x_max":0,"o":"m 118 857 l 389 857 l 538 1064 l 240 1064 z m 386 771 l 115 771 l 115 0 l 386 0 z "},"î":{"ha":501,"x_min":0,"x_max":0,"o":"m 413 1064 l 92 1064 l -69 856 l 181 856 l 250 950 l 319 856 l 575 856 z m 386 771 l 115 771 l 115 0 l 386 0 z "},"ï":{"ha":501,"x_min":0,"x_max":0,"o":"m 211 1051 l -28 1051 l -28 857 l 211 857 z m 528 1051 l 289 1051 l 289 857 l 528 857 z m 386 771 l 115 771 l 115 0 l 386 0 z "},"ñ":{"ha":1150,"x_min":0,"x_max":0,"o":"m 115 0 l 386 0 l 386 392 b 582 576 386 486 453 576 b 767 401 715 576 767 490 l 767 0 l 1038 0 l 1038 500 b 710 789 1038 638 936 789 l 696 789 b 383 649 519 789 418 690 l 383 771 l 115 771 z m 838 1107 l 682 1107 l 682 1051 b 663 1021 682 1031 675 1021 b 593 1050 647 1021 633 1029 b 440 1099 528 1083 492 1099 l 438 1099 b 318 963 340 1099 318 1019 l 318 853 l 474 853 l 474 908 b 493 939 474 929 481 939 b 563 910 508 939 522 931 b 715 861 628 876 664 861 l 718 861 b 838 997 815 861 838 940 z "},"ò":{"ha":1149,"x_min":0,"x_max":0,"o":"m 596 -21 b 1075 371 1025 -21 1075 232 l 1075 393 b 597 792 1075 529 1025 792 l 551 792 b 74 392 138 792 74 531 l 74 372 b 553 -21 74 232 138 -21 z m 567 182 b 353 389 389 182 353 304 b 567 593 353 476 389 593 l 582 593 b 796 389 753 593 796 476 b 582 182 796 304 753 182 z m 590 1064 l 288 1064 l 442 857 l 713 857 z "},"ó":{"ha":1149,"x_min":0,"x_max":0,"o":"m 596 -21 b 1075 371 1025 -21 1075 232 l 1075 393 b 597 792 1075 529 1025 792 l 551 792 b 74 392 138 792 74 531 l 74 372 b 553 -21 74 232 138 -21 z m 567 182 b 353 389 389 182 353 304 b 567 593 353 476 389 593 l 582 593 b 796 389 753 593 796 476 b 582 182 796 304 753 182 z m 439 857 l 710 857 l 864 1064 l 561 1064 z "},"ô":{"ha":1149,"x_min":0,"x_max":0,"o":"m 596 -21 b 1075 371 1025 -21 1075 232 l 1075 393 b 597 792 1075 529 1025 792 l 551 792 b 74 392 138 792 74 531 l 74 372 b 553 -21 74 232 138 -21 z m 567 182 b 353 389 389 182 353 304 b 567 593 353 476 389 593 l 582 593 b 796 389 753 593 796 476 b 582 182 796 304 753 182 z m 738 1064 l 417 1064 l 228 856 l 493 856 l 575 946 l 657 856 l 928 856 z "},"õ":{"ha":1149,"x_min":0,"x_max":0,"o":"m 596 -21 b 1075 371 1025 -21 1075 232 l 1075 393 b 597 792 1075 529 1025 792 l 551 792 b 74 392 138 792 74 531 l 74 372 b 553 -21 74 232 138 -21 z m 567 182 b 353 389 389 182 353 304 b 567 593 353 476 389 593 l 582 593 b 796 389 753 593 796 476 b 582 182 796 304 753 182 z m 835 1107 l 679 1107 l 679 1051 b 660 1021 679 1031 672 1021 b 590 1050 644 1021 631 1029 b 438 1099 525 1083 489 1099 l 435 1099 b 315 963 338 1099 315 1019 l 315 853 l 471 853 l 471 908 b 490 939 471 929 478 939 b 560 910 506 939 519 931 b 713 861 625 876 661 861 l 715 861 b 835 997 813 861 835 940 z "},"ö":{"ha":1149,"x_min":0,"x_max":0,"o":"m 596 -21 b 1075 371 1025 -21 1075 232 l 1075 393 b 597 792 1075 529 1025 792 l 551 792 b 74 392 138 792 74 531 l 74 372 b 553 -21 74 232 138 -21 z m 567 182 b 353 389 389 182 353 304 b 567 593 353 476 389 593 l 582 593 b 796 389 753 593 796 476 b 582 182 796 304 753 182 z m 533 1051 l 268 1051 l 268 857 l 533 857 z m 882 1051 l 617 1051 l 617 857 l 882 857 z "},"÷":{"ha":935,"x_min":0,"x_max":0,"o":"m 608 853 l 326 853 l 326 633 l 608 633 z m 103 536 l 103 353 l 832 353 l 832 536 z m 608 251 l 326 251 l 326 31 l 608 31 z "},"ø":{"ha":1140,"x_min":0,"x_max":0,"o":"m 592 -21 b 1067 371 1031 -21 1067 236 l 1067 393 b 982 650 1067 464 1056 568 l 1122 771 l 915 771 l 871 733 b 593 792 800 772 715 792 l 547 792 b 74 392 125 792 74 525 l 74 372 b 163 124 74 293 92 200 l 19 0 l 224 0 l 271 42 b 549 -21 339 4 425 -21 z m 333 389 b 564 597 333 482 378 597 l 579 597 b 696 583 631 597 668 589 l 350 286 b 333 388 340 313 333 344 z m 564 178 b 449 193 514 178 478 183 l 793 488 b 808 389 803 461 808 433 l 808 388 b 579 178 808 296 761 178 z "},"ù":{"ha":1142,"x_min":0,"x_max":0,"o":"m 1026 771 l 756 771 l 756 379 b 564 196 756 285 690 196 b 383 369 432 196 383 279 l 383 771 l 113 771 l 113 271 b 436 -18 113 133 214 -18 l 449 -18 b 758 122 622 -18 728 81 l 758 0 l 1026 0 z m 585 1064 l 282 1064 l 436 857 l 707 857 z "},"ú":{"ha":1142,"x_min":0,"x_max":0,"o":"m 1026 771 l 756 771 l 756 379 b 564 196 756 285 690 196 b 383 369 432 196 383 279 l 383 771 l 113 771 l 113 271 b 436 -18 113 133 214 -18 l 449 -18 b 758 122 622 -18 728 81 l 758 0 l 1026 0 z m 432 857 l 703 857 l 857 1064 l 554 1064 z "},"û":{"ha":1142,"x_min":0,"x_max":0,"o":"m 1026 771 l 756 771 l 756 379 b 564 196 756 285 690 196 b 383 369 432 196 383 279 l 383 771 l 113 771 l 113 271 b 436 -18 113 133 214 -18 l 449 -18 b 758 122 622 -18 728 81 l 758 0 l 1026 0 z m 732 1064 l 411 1064 l 222 856 l 488 856 l 569 946 l 651 856 l 922 856 z "},"ü":{"ha":1142,"x_min":0,"x_max":0,"o":"m 1026 771 l 756 771 l 756 379 b 564 196 756 285 690 196 b 383 369 432 196 383 279 l 383 771 l 113 771 l 113 271 b 436 -18 113 133 214 -18 l 449 -18 b 758 122 622 -18 728 81 l 758 0 l 1026 0 z m 528 1051 l 263 1051 l 263 857 l 528 857 z m 876 1051 l 611 1051 l 611 857 l 876 857 z "},"ÿ":{"ha":1046,"x_min":0,"x_max":0,"o":"m 171 -265 l 419 -265 b 668 -78 547 -265 614 -204 l 1021 771 l 749 771 l 536 218 l 322 771 l 25 771 l 356 36 b 381 -39 376 -7 381 -22 l 381 -40 b 340 -72 381 -61 367 -72 l 171 -72 z m 494 1051 l 229 1051 l 229 857 l 494 857 z m 843 1051 l 578 1051 l 578 857 l 843 857 z "},"ı":{"ha":501,"x_min":0,"x_max":0,"o":"m 386 771 l 115 771 l 115 0 l 386 0 z "},"Œ":{"ha":1890,"x_min":0,"x_max":0,"o":"m 742 1033 b 79 543 203 1033 79 764 l 79 501 b 740 0 79 281 189 0 l 1789 0 l 1789 228 l 1192 228 l 1192 407 l 1758 407 l 1758 640 l 1192 640 l 1192 808 l 1776 808 l 1776 1033 z m 754 228 b 376 517 419 228 376 393 l 376 525 b 754 808 376 647 417 808 l 906 808 l 906 228 z "},"œ":{"ha":1828,"x_min":0,"x_max":0,"o":"m 1268 613 b 1464 469 1435 613 1464 529 l 1064 469 b 1268 613 1079 551 1129 613 z m 779 388 b 572 182 779 313 756 182 l 560 182 b 354 388 375 182 354 311 l 354 389 b 560 593 354 468 375 593 l 572 593 b 779 389 756 593 779 468 z m 588 -21 b 928 74 750 -21 857 14 b 1257 -18 1000 14 1106 -18 l 1306 -18 b 1753 232 1699 -18 1753 178 l 1469 232 b 1290 167 1465 225 1442 167 b 1063 328 1131 167 1074 239 l 1756 328 l 1756 353 b 1293 788 1756 568 1681 788 l 1233 788 b 924 697 1089 788 990 749 b 589 792 853 753 746 792 l 543 792 b 74 392 126 792 74 525 l 74 372 b 544 -21 74 236 126 -21 z "},"Ÿ":{"ha":1288,"x_min":0,"x_max":0,"o":"m 510 0 l 796 0 l 796 376 l 1290 1033 l 971 1033 l 661 624 l 351 1033 l -3 1033 l 510 378 z m 618 1313 l 349 1313 l 349 1118 l 618 1118 z m 974 1313 l 704 1313 l 704 1118 l 974 1118 z "},"ˆ":{"ha":972,"x_min":0,"x_max":0,"o":"m 646 1064 l 325 1064 l 136 856 l 401 856 l 483 946 l 565 856 l 836 856 z "},"ˇ":{"ha":972,"x_min":0,"x_max":0,"o":"m 326 857 l 647 857 l 836 1064 l 571 1064 l 489 975 l 407 1064 l 136 1064 z "},"˘":{"ha":972,"x_min":0,"x_max":0,"o":"m 508 850 b 765 1072 710 850 765 1000 l 765 1076 l 564 1076 b 489 1003 564 1058 554 1003 b 411 1076 419 1003 411 1058 l 207 1076 l 207 1072 b 467 850 207 1000 246 850 z "},"˙":{"ha":972,"x_min":0,"x_max":0,"o":"m 624 1051 l 347 1051 l 347 857 l 624 857 z "},"˚":{"ha":972,"x_min":0,"x_max":0,"o":"m 251 1029 b 485 849 251 933 308 849 b 719 1029 663 849 719 933 b 485 1208 719 1125 660 1208 b 251 1029 311 1208 251 1125 z m 392 1029 b 485 1104 392 1072 419 1104 b 579 1029 550 1104 579 1072 b 485 951 579 989 550 951 b 392 1029 419 951 392 989 z "},"˛":{"ha":974,"x_min":0,"x_max":0,"o":"m 676 -268 l 676 -132 l 614 -132 b 561 -97 579 -132 561 -121 b 661 0 561 -65 596 -40 l 543 0 b 297 -160 393 -40 297 -83 l 297 -162 b 479 -268 297 -233 358 -268 z "},"˜":{"ha":972,"x_min":0,"x_max":0,"o":"m 746 1107 l 590 1107 l 590 1051 b 571 1021 590 1031 583 1021 b 501 1050 556 1021 542 1029 b 349 1099 436 1083 400 1099 l 346 1099 b 226 963 249 1099 226 1019 l 226 853 l 382 853 l 382 908 b 401 939 382 929 389 939 b 471 910 417 939 431 931 b 624 861 536 876 572 861 l 626 861 b 746 997 724 861 746 940 z "},"˝":{"ha":972,"x_min":0,"x_max":0,"o":"m 481 857 l 728 857 l 825 1064 l 571 1064 z m 146 857 l 396 857 l 485 1064 l 232 1064 z "},"–":{"ha":1117,"x_min":0,"x_max":0,"o":"m 103 514 l 103 319 l 1014 319 l 1014 514 z "},"—":{"ha":1693,"x_min":0,"x_max":0,"o":"m 103 514 l 103 319 l 1590 319 l 1590 514 z "},"‘":{"ha":497,"x_min":0,"x_max":0,"o":"m 154 1033 b 85 785 125 983 85 883 l 85 607 l 407 607 l 407 838 l 261 838 b 336 1033 272 897 304 976 z "},"’":{"ha":497,"x_min":0,"x_max":0,"o":"m 340 607 b 410 856 367 660 410 756 l 410 1033 l 88 1033 l 88 803 l 233 803 b 158 607 222 743 190 664 z "},"‚":{"ha":497,"x_min":0,"x_max":0,"o":"m 340 -196 b 410 53 367 -143 410 -47 l 410 231 l 88 231 l 88 0 l 233 0 b 158 -196 222 -60 190 -139 z "},"“":{"ha":932,"x_min":0,"x_max":0,"o":"m 589 1033 b 519 785 560 983 519 883 l 519 607 l 842 607 l 842 838 l 696 838 b 771 1033 707 897 739 976 z m 154 1033 b 85 785 125 983 85 883 l 85 607 l 407 607 l 407 838 l 261 838 b 336 1033 272 897 304 976 z "},"”":{"ha":932,"x_min":0,"x_max":0,"o":"m 775 607 b 844 856 801 660 844 756 l 844 1033 l 522 1033 l 522 803 l 668 803 b 593 607 657 743 625 664 z m 340 607 b 410 856 367 660 410 756 l 410 1033 l 88 1033 l 88 803 l 233 803 b 158 607 222 743 190 664 z "},"„":{"ha":932,"x_min":0,"x_max":0,"o":"m 775 -196 b 844 53 801 -143 844 -47 l 844 231 l 522 231 l 522 0 l 668 0 b 593 -196 657 -60 625 -139 z m 340 -196 b 410 53 367 -143 410 -47 l 410 231 l 88 231 l 88 0 l 233 0 b 158 -196 222 -60 190 -139 z "},"†":{"ha":750,"x_min":0,"x_max":0,"o":"m 253 0 l 497 0 l 497 621 l 692 621 l 692 814 l 497 814 l 497 1033 l 253 1033 l 253 814 l 58 814 l 58 621 l 253 621 z "},"‡":{"ha":772,"x_min":0,"x_max":0,"o":"m 504 629 l 700 629 l 700 821 l 504 821 l 504 1033 l 268 1033 l 268 821 l 72 821 l 72 629 l 268 629 l 268 408 l 72 408 l 72 218 l 268 218 l 268 0 l 504 0 l 504 218 l 700 218 l 700 408 l 504 408 z "},"•":{"ha":632,"x_min":0,"x_max":0,"o":"m 549 457 b 313 685 549 586 457 685 b 83 457 172 685 83 586 b 313 231 83 325 172 231 b 549 457 457 231 549 325 z "},"…":{"ha":1521,"x_min":0,"x_max":0,"o":"m 1429 269 l 1106 269 l 1106 0 l 1429 0 z m 922 269 l 599 269 l 599 0 l 922 0 z m 415 269 l 92 269 l 92 0 l 415 0 z "},"‰":{"ha":2685,"x_min":0,"x_max":0,"o":"m 2282 -11 b 2628 283 2567 -11 2628 179 l 2628 307 b 2282 596 2628 413 2567 596 l 2253 596 b 1907 307 1968 596 1907 413 l 1907 283 b 2253 -11 1907 179 1968 -11 z m 2265 432 b 2429 301 2388 432 2429 368 l 2429 289 b 2265 154 2429 228 2388 154 b 2104 292 2144 154 2104 226 l 2104 301 b 2265 432 2104 368 2142 432 z m 432 439 b 778 732 717 439 778 628 l 778 757 b 432 1046 778 863 717 1046 l 401 1046 b 57 757 117 1046 57 863 l 57 732 b 401 439 57 628 117 439 z m 1296 1033 l 338 0 l 574 0 l 1531 1033 z m 579 739 b 415 604 579 678 538 604 b 254 742 294 604 254 676 l 254 750 b 415 882 254 818 292 882 b 579 750 538 882 579 818 z m 1468 -11 b 1814 283 1753 -11 1814 179 l 1814 307 b 1468 596 1814 413 1753 596 l 1439 596 b 1093 307 1154 596 1093 413 l 1093 283 b 1439 -11 1093 179 1154 -11 z m 1451 432 b 1615 301 1574 432 1615 368 l 1615 289 b 1451 154 1615 228 1574 154 b 1290 292 1331 154 1290 226 l 1290 301 b 1451 432 1290 368 1328 432 z "},"‹":{"ha":539,"x_min":0,"x_max":0,"o":"m 481 146 l 294 400 l 486 650 l 244 650 l 54 400 l 243 146 z "},"›":{"ha":539,"x_min":0,"x_max":0,"o":"m 296 146 l 485 400 l 294 650 l 53 650 l 244 400 l 58 146 z "},"⁄":{"ha":1168,"x_min":0,"x_max":0,"o":"m 951 1033 l 0 0 l 225 0 l 1168 1033 z "},"€":{"ha":1431,"x_min":0,"x_max":0,"o":"m 1354 399 l 1060 399 b 767 215 1057 378 1024 215 b 499 357 621 215 542 278 l 867 357 l 867 481 l 464 481 b 463 513 463 492 463 501 l 463 532 b 464 567 463 543 463 556 l 867 567 l 867 690 l 497 690 b 765 819 536 764 615 819 b 1060 643 1021 819 1056 665 l 1354 643 l 1354 646 b 803 1049 1354 831 1219 1049 l 739 1049 b 193 690 389 1049 240 867 l 53 690 l 53 567 l 172 567 l 172 481 l 53 481 l 53 357 l 190 357 b 739 -15 239 175 382 -15 l 803 -15 b 1354 394 1224 -15 1354 217 z "},"™":{"ha":1642,"x_min":0,"x_max":0,"o":"m 640 882 l 640 1033 l 51 1033 l 51 882 l 246 882 l 246 479 l 446 479 l 446 882 z m 736 479 l 914 479 l 914 857 l 1069 479 l 1190 479 l 1347 857 l 1347 479 l 1525 479 l 1525 1033 l 1257 1033 l 1138 738 l 1018 1033 l 736 1033 z "},"ﬁ":{"ha":1218,"x_min":0,"x_max":0,"o":"m 663 1051 l 464 1051 b 224 833 271 1051 224 967 l 224 771 l 53 771 l 53 576 l 224 576 l 224 0 l 493 0 l 493 576 l 663 576 l 663 771 l 493 771 l 493 819 b 554 883 493 865 511 883 l 663 883 z m 1106 1051 l 829 1051 l 829 857 l 1106 857 z m 1103 771 l 832 771 l 832 0 l 1103 0 z "},"ﬂ":{"ha":1218,"x_min":0,"x_max":0,"o":"m 663 1051 l 464 1051 b 224 833 271 1051 224 967 l 224 771 l 53 771 l 53 576 l 224 576 l 224 0 l 493 0 l 493 576 l 663 576 l 663 771 l 493 771 l 493 819 b 554 883 493 865 511 883 l 663 883 z m 1103 1051 l 832 1051 l 832 0 l 1103 0 z "},"ƒ":{"ha":778,"x_min":0,"x_max":0,"o":"m 697 454 l 697 647 l 521 647 l 528 778 b 594 840 532 828 550 840 l 697 840 l 697 1033 l 513 1033 b 264 811 324 1033 271 957 l 256 647 l 81 647 l 81 454 l 246 454 l 208 -268 l 472 -268 l 511 454 z "},"¦":{"ha":521,"x_min":0,"x_max":0,"o":"m 358 1122 l 163 1122 l 163 581 l 358 581 z m 358 413 l 163 413 l 163 -182 l 358 -182 z "},"¼":{"ha":1610,"x_min":0,"x_max":0,"o":"m 229 776 l 229 440 l 433 440 l 433 1033 l 271 1033 b 67 924 246 961 219 924 l 67 776 z m 1092 1033 l 140 0 l 365 0 l 1308 1033 z m 849 119 l 1226 119 l 1226 0 l 1428 0 l 1428 119 l 1546 119 l 1546 263 l 1428 263 l 1428 594 l 1199 594 l 1024 417 l 849 239 z m 1226 453 l 1226 263 l 1043 263 z "},"½":{"ha":1706,"x_min":0,"x_max":0,"o":"m 1092 1033 l 140 0 l 365 0 l 1308 1033 z m 229 776 l 229 440 l 433 440 l 433 1033 l 271 1033 b 67 924 246 961 219 924 l 67 776 z m 1625 0 l 1625 160 l 1135 160 l 1135 161 b 1324 219 1135 178 1174 197 b 1625 408 1529 253 1625 289 l 1625 415 b 1303 603 1625 515 1576 603 l 1275 603 b 954 399 992 603 954 467 l 954 393 l 1169 393 b 1293 458 1169 411 1186 458 b 1406 413 1388 458 1406 440 b 1281 353 1406 385 1385 375 b 946 69 976 290 946 176 l 946 0 z "},"¾":{"ha":1882,"x_min":0,"x_max":0,"o":"m 1364 1033 l 413 0 l 638 0 l 1581 1033 z m 440 432 b 779 639 724 432 779 540 l 779 644 b 665 783 779 724 731 768 b 760 883 725 794 760 833 l 760 889 b 429 1044 760 953 731 1044 l 386 1044 b 74 863 97 1044 74 915 l 74 853 l 283 853 b 414 903 283 864 297 903 b 547 857 531 903 547 879 l 547 856 b 486 821 547 835 538 821 l 324 821 l 324 685 l 492 685 b 557 644 546 685 557 667 l 557 642 b 419 585 557 617 543 585 b 285 649 296 585 289 638 l 67 649 l 67 643 b 393 432 67 582 96 432 z m 1121 118 l 1499 118 l 1499 -1 l 1700 -1 l 1700 118 l 1818 118 l 1818 261 l 1700 261 l 1700 593 l 1471 593 l 1296 415 l 1121 238 z m 1499 451 l 1499 261 l 1315 261 z "},"Ð":{"ha":1436,"x_min":0,"x_max":0,"o":"m 451 231 l 451 428 l 786 428 l 786 622 l 451 622 l 451 804 l 682 804 b 1060 525 1026 804 1060 642 l 1060 517 b 682 231 1060 400 1029 231 z m 165 0 l 696 0 b 1357 511 1263 0 1357 294 l 1357 553 b 694 1033 1357 763 1233 1033 l 165 1033 l 165 622 l 24 622 l 24 428 l 165 428 z "},"×":{"ha":839,"x_min":0,"x_max":0,"o":"m 625 93 l 761 229 l 556 431 l 761 633 l 625 764 l 421 563 l 218 763 l 78 625 l 282 426 l 79 225 l 215 93 l 418 294 z "},"Ý":{"ha":1288,"x_min":0,"x_max":0,"o":"m 510 0 l 796 0 l 796 376 l 1290 1033 l 971 1033 l 661 624 l 351 1033 l -3 1033 l 510 378 z m 804 1118 l 951 1324 l 643 1324 l 517 1118 z "},"Þ":{"ha":1308,"x_min":0,"x_max":0,"o":"m 817 183 b 1236 522 1135 183 1236 329 l 1236 539 b 817 875 1236 732 1140 875 l 414 875 l 414 1033 l 128 1033 l 128 0 l 414 0 l 414 183 z m 414 649 l 796 649 b 939 533 896 649 939 600 l 939 526 b 796 410 939 456 896 410 l 414 410 z "},"ð":{"ha":1149,"x_min":0,"x_max":0,"o":"m 593 -21 b 1075 390 965 -21 1075 172 l 1075 413 b 842 879 1075 599 1013 728 l 831 889 l 981 911 l 981 1018 l 725 982 l 646 1051 l 299 1051 l 426 939 l 236 911 l 236 803 l 532 846 l 690 708 b 464 761 639 736 569 761 l 443 761 b 74 392 197 761 74 604 l 74 368 b 549 -21 74 168 196 -21 z m 797 388 b 583 182 797 311 761 182 l 568 182 b 354 388 385 182 354 311 l 354 389 b 568 593 354 468 385 593 l 583 593 b 797 389 761 593 797 468 z "},"ý":{"ha":1046,"x_min":0,"x_max":0,"o":"m 171 -265 l 419 -265 b 668 -78 547 -265 614 -204 l 1021 771 l 749 771 l 536 218 l 322 771 l 25 771 l 356 36 b 381 -39 376 -7 381 -22 l 381 -40 b 340 -72 381 -61 367 -72 l 171 -72 z m 400 857 l 671 857 l 825 1064 l 522 1064 z "},"þ":{"ha":1168,"x_min":0,"x_max":0,"o":"m 811 385 b 604 190 811 301 775 190 l 590 190 b 379 385 425 190 379 297 l 379 389 b 590 583 379 478 426 583 l 604 583 b 811 389 775 583 811 472 z m 115 -265 l 378 -265 l 378 93 b 661 -15 404 63 497 -15 l 679 -15 b 1092 378 1008 -15 1092 211 l 1092 401 b 683 786 1092 589 1013 786 l 667 786 b 378 665 500 786 404 699 l 378 1051 l 115 1051 z "},"Ł":{"ha":1146,"x_min":0,"x_max":0,"o":"m 158 1033 l 158 490 l 21 435 l 21 253 l 158 306 l 158 0 l 1076 0 l 1076 243 l 444 243 l 444 418 l 799 557 l 799 750 l 444 606 l 444 1033 z "},"ł":{"ha":568,"x_min":0,"x_max":0,"o":"m 419 546 l 544 603 l 544 778 l 419 719 l 419 1051 l 149 1051 l 149 594 l 24 536 l 24 365 l 149 422 l 149 0 l 419 0 z "},"Š":{"ha":1285,"x_min":0,"x_max":0,"o":"m 667 -18 b 1199 326 1129 -18 1199 175 l 1199 343 b 742 646 1199 511 1110 631 l 599 651 b 399 750 436 658 399 697 b 625 842 399 807 442 842 l 639 842 b 871 728 839 842 864 774 l 1178 728 l 1178 743 b 658 1046 1178 879 1115 1046 l 611 1046 b 97 740 183 1046 97 901 l 97 728 b 544 426 97 572 206 438 l 682 422 b 893 315 853 415 893 378 b 650 192 893 256 865 192 l 640 192 b 397 340 421 192 401 294 l 86 340 l 86 325 b 626 -18 86 201 142 -18 z m 475 1118 l 796 1118 l 990 1324 l 725 1324 l 638 1235 l 550 1324 l 281 1324 z "},"š":{"ha":1024,"x_min":0,"x_max":0,"o":"m 522 -18 b 949 246 893 -18 949 117 l 949 256 b 594 483 949 385 872 472 l 489 488 b 350 560 378 492 350 517 b 497 624 350 599 381 624 l 501 624 b 649 549 628 624 640 576 l 932 549 l 932 553 b 514 789 932 653 888 789 l 476 789 b 78 547 150 789 78 679 l 78 539 b 417 308 78 411 168 324 l 522 300 b 669 226 651 293 669 265 b 521 153 669 189 642 153 l 518 153 b 364 235 381 153 368 208 l 74 235 l 74 228 b 486 -18 74 163 107 -18 z m 340 857 l 661 857 l 850 1064 l 585 1064 l 503 975 l 421 1064 l 150 1064 z "},"Ž":{"ha":1261,"x_min":0,"x_max":0,"o":"m 1160 0 l 1160 236 l 494 236 l 1154 835 l 1154 1033 l 107 1033 l 107 800 l 736 800 l 103 199 l 103 0 z m 469 1118 l 790 1118 l 985 1324 l 719 1324 l 632 1235 l 544 1324 l 275 1324 z "},"ž":{"ha":1025,"x_min":0,"x_max":0,"o":"m 944 0 l 944 211 l 435 211 l 926 589 l 926 771 l 85 771 l 85 568 l 560 568 l 82 186 l 82 0 z m 346 857 l 667 857 l 856 1064 l 590 1064 l 508 975 l 426 1064 l 156 1064 z "},"−":{"ha":911,"x_min":0,"x_max":0,"o":"m 103 539 l 103 350 l 808 350 l 808 539 z "},"Đ":{"ha":1436,"x_min":0,"x_max":0,"o":"m 451 231 l 451 428 l 786 428 l 786 622 l 451 622 l 451 804 l 682 804 b 1060 525 1026 804 1060 642 l 1060 517 b 682 231 1060 400 1029 231 z m 165 0 l 696 0 b 1357 511 1263 0 1357 294 l 1357 553 b 694 1033 1357 763 1233 1033 l 165 1033 l 165 622 l 24 622 l 24 428 l 165 428 z "},"Ŋ":{"ha":1433,"x_min":0,"x_max":0,"o":"m 836 -268 l 1104 -268 b 1306 -53 1239 -268 1306 -192 l 1306 1033 l 1028 1033 l 1028 374 l 422 1033 l 128 1033 l 128 0 l 407 0 l 407 667 l 1028 0 l 1028 -7 b 972 -61 1028 -46 1015 -61 l 836 -61 z "},"Ĳ":{"ha":1747,"x_min":0,"x_max":0,"o":"m 414 1033 l 128 1033 l 128 0 l 414 0 z m 1131 -17 b 1626 481 1554 -17 1626 293 l 1626 1033 l 1340 1033 l 1340 481 b 1110 228 1340 349 1292 228 l 1104 228 b 894 443 928 228 899 371 l 599 443 l 599 435 b 1085 -17 599 267 683 -17 z "},"đ":{"ha":1176,"x_min":0,"x_max":0,"o":"m 418 858 l 1190 858 l 1190 979 l 418 979 z m 581 585 b 793 389 742 585 793 478 l 793 385 b 581 189 793 300 742 189 l 565 189 b 357 385 396 189 357 306 l 357 389 b 565 585 357 472 396 585 z m 790 1051 l 790 689 b 492 786 757 719 668 786 l 475 786 b 78 399 192 786 78 592 l 78 375 b 478 -15 78 179 196 -15 l 496 -15 b 792 100 678 -15 765 69 l 792 0 l 1061 0 l 1061 1051 z "},"ŋ":{"ha":1150,"x_min":0,"x_max":0,"o":"m 629 -64 l 629 -265 l 876 -265 b 1038 -68 983 -265 1038 -196 l 1038 500 b 710 789 1038 638 936 789 l 696 789 b 383 649 519 789 418 690 l 383 771 l 115 771 l 115 0 l 386 0 l 386 392 b 582 575 386 486 453 575 b 767 401 715 575 767 490 l 767 -3 b 713 -64 767 -47 753 -64 z "},"ĳ":{"ha":1003,"x_min":0,"x_max":0,"o":"m 389 1051 l 113 1051 l 113 857 l 389 857 z m 386 771 l 115 771 l 115 0 l 386 0 z m 890 1051 l 614 1051 l 614 857 l 890 857 z m 479 -64 l 479 -265 l 726 -265 b 888 -68 833 -265 888 -196 l 888 771 l 617 771 l 617 -3 b 563 -64 617 -47 603 -64 z "},"Ă":{"ha":1351,"x_min":0,"x_max":0,"o":"m 849 404 l 479 404 l 661 825 z m 1029 0 l 1336 0 l 857 1033 l 474 1033 l 15 0 l 303 0 l 386 192 l 944 192 z m 686 1111 b 947 1333 888 1111 947 1261 l 947 1338 l 746 1338 b 667 1264 742 1315 732 1264 b 583 1338 597 1264 588 1315 l 381 1338 l 381 1333 b 644 1111 381 1261 424 1111 z "},"Ā":{"ha":1351,"x_min":0,"x_max":0,"o":"m 849 404 l 479 404 l 661 825 z m 1029 0 l 1336 0 l 857 1033 l 474 1033 l 15 0 l 303 0 l 386 192 l 944 192 z m 404 1139 l 928 1139 l 928 1303 l 404 1303 z "},"Ą":{"ha":1351,"x_min":0,"x_max":0,"o":"m 849 404 l 479 404 l 661 825 z m 1029 0 l 1336 0 l 857 1033 l 474 1033 l 15 0 l 303 0 l 386 192 l 944 192 z m 1351 -268 l 1351 -132 l 1289 -132 b 1236 -97 1254 -132 1236 -121 b 1336 0 1236 -65 1271 -40 l 1218 0 b 972 -160 1068 -40 972 -83 l 972 -162 b 1154 -268 972 -233 1033 -268 z "},"Ǻ":{"ha":1351,"x_min":0,"x_max":0,"o":"m 849 404 l 479 404 l 661 825 z m 1029 0 l 1336 0 l 857 1033 l 474 1033 l 15 0 l 303 0 l 386 192 l 944 192 z m 432 1286 b 665 1106 432 1193 489 1106 b 900 1286 843 1106 900 1193 b 665 1467 900 1385 840 1467 b 432 1286 492 1467 432 1385 z m 760 1286 b 665 1208 760 1246 731 1208 b 572 1286 600 1208 572 1246 b 665 1363 572 1329 600 1363 b 760 1286 731 1363 760 1329 z m 808 1515 l 956 1721 l 647 1721 l 521 1515 z "},"Ǽ":{"ha":1768,"x_min":0,"x_max":0,"o":"m 789 390 l 521 390 l 789 835 z m 789 0 l 1667 0 l 1667 228 l 1071 228 l 1071 407 l 1636 407 l 1636 640 l 1071 640 l 1071 808 l 1656 808 l 1656 1033 l 626 1033 l -19 0 l 285 0 l 399 188 l 789 188 z m 1285 1118 l 1432 1324 l 1124 1324 l 997 1118 z "},"Ć":{"ha":1399,"x_min":0,"x_max":0,"o":"m 743 -15 b 1321 400 1182 -15 1321 211 l 1321 404 l 1026 404 b 713 222 1022 371 988 222 b 379 513 461 222 379 385 l 379 532 b 711 813 379 671 458 813 b 1026 638 983 813 1022 667 l 1321 638 l 1321 640 b 743 1049 1321 836 1176 1049 l 679 1049 b 82 540 207 1049 82 756 l 82 499 b 679 -15 82 288 207 -15 z m 854 1118 l 1001 1324 l 693 1324 l 567 1118 z "},"Č":{"ha":1399,"x_min":0,"x_max":0,"o":"m 743 -15 b 1321 400 1182 -15 1321 211 l 1321 404 l 1026 404 b 713 222 1022 371 988 222 b 379 513 461 222 379 385 l 379 532 b 711 813 379 671 458 813 b 1026 638 983 813 1022 667 l 1321 638 l 1321 640 b 743 1049 1321 836 1176 1049 l 679 1049 b 82 540 207 1049 82 756 l 82 499 b 679 -15 82 288 207 -15 z m 550 1118 l 871 1118 l 1065 1324 l 800 1324 l 713 1235 l 625 1324 l 356 1324 z "},"Ĉ":{"ha":1399,"x_min":0,"x_max":0,"o":"m 743 -15 b 1321 400 1182 -15 1321 211 l 1321 404 l 1026 404 b 713 222 1022 371 988 222 b 379 513 461 222 379 385 l 379 532 b 711 813 379 671 458 813 b 1026 638 983 813 1022 667 l 1321 638 l 1321 640 b 743 1049 1321 836 1176 1049 l 679 1049 b 82 540 207 1049 82 756 l 82 499 b 679 -15 82 288 207 -15 z m 872 1324 l 554 1324 l 360 1115 l 624 1115 l 711 1203 l 799 1115 l 1067 1115 z "},"Ċ":{"ha":1399,"x_min":0,"x_max":0,"o":"m 743 -15 b 1321 400 1182 -15 1321 211 l 1321 404 l 1026 404 b 713 222 1022 371 988 222 b 379 513 461 222 379 385 l 379 532 b 711 813 379 671 458 813 b 1026 638 983 813 1022 667 l 1321 638 l 1321 640 b 743 1049 1321 836 1176 1049 l 679 1049 b 82 540 207 1049 82 756 l 82 499 b 679 -15 82 288 207 -15 z m 850 1313 l 574 1313 l 574 1118 l 850 1118 z "},"Ď":{"ha":1399,"x_min":0,"x_max":0,"o":"m 128 0 l 658 0 b 1319 511 1225 0 1319 294 l 1319 553 b 657 1033 1319 763 1196 1033 l 128 1033 z m 414 804 l 644 804 b 1022 525 989 804 1022 642 l 1022 517 b 644 231 1022 400 992 231 l 414 231 z m 417 1118 l 738 1118 l 932 1324 l 667 1324 l 579 1235 l 492 1324 l 222 1324 z "},"Ĕ":{"ha":1183,"x_min":0,"x_max":0,"o":"m 128 1033 l 128 0 l 1082 0 l 1082 228 l 410 228 l 410 407 l 1053 407 l 1053 640 l 410 640 l 410 808 l 1074 808 l 1074 1033 z m 624 1111 b 885 1333 825 1111 885 1261 l 885 1338 l 683 1338 b 604 1264 679 1315 669 1264 b 521 1338 535 1264 525 1315 l 318 1338 l 318 1333 b 582 1111 318 1261 361 1111 z "},"Ě":{"ha":1183,"x_min":0,"x_max":0,"o":"m 128 1033 l 128 0 l 1082 0 l 1082 228 l 410 228 l 410 407 l 1053 407 l 1053 640 l 410 640 l 410 808 l 1074 808 l 1074 1033 z m 442 1118 l 763 1118 l 957 1324 l 692 1324 l 604 1235 l 517 1324 l 247 1324 z "},"Ė":{"ha":1183,"x_min":0,"x_max":0,"o":"m 128 1033 l 128 0 l 1082 0 l 1082 228 l 410 228 l 410 407 l 1053 407 l 1053 640 l 410 640 l 410 808 l 1074 808 l 1074 1033 z m 742 1313 l 465 1313 l 465 1118 l 742 1118 z "},"Ē":{"ha":1183,"x_min":0,"x_max":0,"o":"m 128 1033 l 128 0 l 1082 0 l 1082 228 l 410 228 l 410 407 l 1053 407 l 1053 640 l 410 640 l 410 808 l 1074 808 l 1074 1033 z m 342 1139 l 865 1139 l 865 1303 l 342 1303 z "},"Ę":{"ha":1183,"x_min":0,"x_max":0,"o":"m 128 1033 l 128 0 l 1082 0 l 1082 228 l 410 228 l 410 407 l 1053 407 l 1053 640 l 410 640 l 410 808 l 1074 808 l 1074 1033 z m 964 -268 l 964 -132 l 901 -132 b 849 -97 867 -132 849 -121 b 949 0 849 -65 883 -40 l 831 0 b 585 -160 681 -40 585 -83 l 585 -162 b 767 -268 585 -233 646 -268 z "},"Ğ":{"ha":1450,"x_min":0,"x_max":0,"o":"m 703 -15 b 1076 143 946 -15 1054 114 b 1111 0 1092 110 1107 38 l 1339 0 l 1339 564 l 743 564 l 743 379 l 1024 379 b 721 218 1019 349 965 218 b 379 514 465 218 379 379 l 379 532 b 711 814 379 671 457 814 b 1031 678 979 814 1019 704 l 1326 678 l 1326 681 b 733 1047 1326 851 1183 1047 l 686 1047 b 82 539 215 1047 82 758 l 82 501 b 681 -15 82 269 225 -15 z m 731 1111 b 992 1333 932 1111 992 1261 l 992 1338 l 790 1338 b 711 1264 786 1315 776 1264 b 628 1338 642 1264 632 1315 l 425 1338 l 425 1333 b 689 1111 425 1261 468 1111 z "},"Ĝ":{"ha":1450,"x_min":0,"x_max":0,"o":"m 703 -15 b 1076 143 946 -15 1054 114 b 1111 0 1092 110 1107 38 l 1339 0 l 1339 564 l 743 564 l 743 379 l 1024 379 b 721 218 1019 349 965 218 b 379 514 465 218 379 379 l 379 532 b 711 814 379 671 457 814 b 1031 678 979 814 1019 704 l 1326 678 l 1326 681 b 733 1047 1326 851 1183 1047 l 686 1047 b 82 539 215 1047 82 758 l 82 501 b 681 -15 82 269 225 -15 z m 871 1324 l 553 1324 l 358 1115 l 622 1115 l 710 1203 l 797 1115 l 1065 1115 z "},"Ģ":{"ha":1450,"x_min":0,"x_max":0,"o":"m 703 -15 b 1076 143 946 -15 1054 114 b 1111 0 1092 110 1107 38 l 1339 0 l 1339 564 l 743 564 l 743 379 l 1024 379 b 721 218 1019 349 965 218 b 379 514 465 218 379 379 l 379 532 b 711 814 379 671 457 814 b 1031 678 979 814 1019 704 l 1326 678 l 1326 681 b 733 1047 1326 851 1183 1047 l 686 1047 b 82 539 215 1047 82 758 l 82 501 b 681 -15 82 269 225 -15 z m 817 -389 b 858 -240 835 -356 858 -292 l 858 -86 l 561 -86 l 561 -272 l 706 -272 b 665 -389 699 -312 682 -356 z "},"Ġ":{"ha":1450,"x_min":0,"x_max":0,"o":"m 703 -15 b 1076 143 946 -15 1054 114 b 1111 0 1092 110 1107 38 l 1339 0 l 1339 564 l 743 564 l 743 379 l 1024 379 b 721 218 1019 349 965 218 b 379 514 465 218 379 379 l 379 532 b 711 814 379 671 457 814 b 1031 678 979 814 1019 704 l 1326 678 l 1326 681 b 733 1047 1326 851 1183 1047 l 686 1047 b 82 539 215 1047 82 758 l 82 501 b 681 -15 82 269 225 -15 z m 849 1313 l 572 1313 l 572 1118 l 849 1118 z "},"Ħ":{"ha":1418,"x_min":0,"x_max":0,"o":"m 997 771 l 997 650 l 421 650 l 421 771 z m 135 0 l 421 0 l 421 415 l 997 415 l 997 0 l 1283 0 l 1283 771 l 1404 771 l 1404 915 l 1283 915 l 1283 1033 l 997 1033 l 997 915 l 421 915 l 421 1033 l 135 1033 l 135 915 l 14 915 l 14 771 l 135 771 z "},"Ĥ":{"ha":1404,"x_min":0,"x_max":0,"o":"m 128 0 l 414 0 l 414 415 l 990 415 l 990 0 l 1276 0 l 1276 1033 l 990 1033 l 990 650 l 414 650 l 414 1033 l 128 1033 z m 863 1324 l 544 1324 l 350 1115 l 614 1115 l 701 1203 l 789 1115 l 1057 1115 z "},"Ĭ":{"ha":542,"x_min":0,"x_max":0,"o":"m 414 1033 l 128 1033 l 128 0 l 414 0 z m 292 1111 b 553 1333 493 1111 553 1261 l 553 1338 l 351 1338 b 272 1264 347 1315 338 1264 b 189 1338 203 1264 193 1315 l -14 1338 l -14 1333 b 250 1111 -14 1261 29 1111 z "},"İ":{"ha":542,"x_min":0,"x_max":0,"o":"m 414 1033 l 128 1033 l 128 0 l 414 0 z m 410 1313 l 133 1313 l 133 1118 l 410 1118 z "},"Ī":{"ha":542,"x_min":0,"x_max":0,"o":"m 414 1033 l 128 1033 l 128 0 l 414 0 z m 10 1139 l 533 1139 l 533 1303 l 10 1303 z "},"Į":{"ha":542,"x_min":0,"x_max":0,"o":"m 414 1033 l 128 1033 l 128 0 l 414 0 z m 429 -268 l 429 -132 l 367 -132 b 314 -97 332 -132 314 -121 b 414 0 314 -65 349 -40 l 296 0 b 50 -160 146 -40 50 -83 l 50 -162 b 232 -268 50 -233 111 -268 z "},"Ĩ":{"ha":542,"x_min":0,"x_max":0,"o":"m 414 1033 l 128 1033 l 128 0 l 414 0 z m 151 1167 b 171 1197 151 1183 156 1197 b 250 1169 186 1197 207 1188 b 422 1119 321 1140 371 1119 l 425 1119 b 546 1256 524 1119 546 1197 l 546 1364 l 390 1364 l 390 1308 b 371 1278 390 1292 386 1278 b 292 1306 356 1278 335 1288 b 119 1356 221 1335 171 1356 l 117 1356 b -4 1219 18 1356 -4 1278 l -4 1111 l 151 1111 z "},"Ĵ":{"ha":1206,"x_min":0,"x_max":0,"o":"m 589 -17 b 1085 481 1013 -17 1085 293 l 1085 1033 l 799 1033 l 799 481 b 568 228 799 349 750 228 l 563 228 b 353 443 386 228 357 371 l 57 443 l 57 435 b 543 -17 57 267 142 -17 z m 1101 1324 l 783 1324 l 589 1115 l 853 1115 l 940 1203 l 1028 1115 l 1296 1115 z "},"Ķ":{"ha":1282,"x_min":0,"x_max":0,"o":"m 414 0 l 414 486 l 911 0 l 1285 0 l 717 560 l 1261 1033 l 897 1033 l 414 608 l 414 1033 l 128 1033 l 128 0 z m 761 -389 b 803 -240 779 -356 803 -292 l 803 -86 l 506 -86 l 506 -272 l 650 -272 b 610 -389 643 -312 626 -356 z "},"Ĺ":{"ha":1114,"x_min":0,"x_max":0,"o":"m 128 1033 l 128 0 l 1046 0 l 1046 243 l 414 243 l 414 1033 z m 414 1118 l 561 1324 l 253 1324 l 126 1118 z "},"Ľ":{"ha":1115,"x_min":0,"x_max":0,"o":"m 128 1033 l 128 0 l 1046 0 l 1046 243 l 414 243 l 414 1033 z m 483 839 l 696 839 l 735 1046 l 507 1046 z "},"Ļ":{"ha":1114,"x_min":0,"x_max":0,"o":"m 128 1033 l 128 0 l 1046 0 l 1046 243 l 414 243 l 414 1033 z m 693 -389 b 735 -240 711 -356 735 -292 l 735 -86 l 438 -86 l 438 -272 l 582 -272 b 542 -389 575 -312 558 -356 z "},"Ŀ":{"ha":1117,"x_min":0,"x_max":0,"o":"m 128 1033 l 128 0 l 1046 0 l 1046 243 l 414 243 l 414 1033 z m 1008 704 l 685 704 l 685 435 l 1008 435 z "},"Ń":{"ha":1432,"x_min":0,"x_max":0,"o":"m 1024 0 l 1304 0 l 1304 1033 l 1026 1033 l 1026 368 l 422 1033 l 128 1033 l 128 0 l 407 0 l 407 669 z m 858 1118 l 1006 1324 l 697 1324 l 571 1118 z "},"Ň":{"ha":1432,"x_min":0,"x_max":0,"o":"m 1024 0 l 1304 0 l 1304 1033 l 1026 1033 l 1026 368 l 422 1033 l 128 1033 l 128 0 l 407 0 l 407 669 z m 561 1118 l 882 1118 l 1076 1324 l 811 1324 l 724 1235 l 636 1324 l 367 1324 z "},"Ņ":{"ha":1432,"x_min":0,"x_max":0,"o":"m 1024 0 l 1304 0 l 1304 1033 l 1026 1033 l 1026 368 l 422 1033 l 128 1033 l 128 0 l 407 0 l 407 669 z m 822 -389 b 864 -240 840 -356 864 -292 l 864 -86 l 567 -86 l 567 -272 l 711 -272 b 671 -389 704 -312 688 -356 z "},"Ŏ":{"ha":1467,"x_min":0,"x_max":0,"o":"m 703 1050 b 82 540 219 1050 82 765 l 82 499 b 703 -17 82 276 219 -17 l 764 -17 b 1385 499 1247 -17 1385 276 l 1385 540 b 764 1050 1385 767 1247 1050 z m 1088 510 b 733 221 1088 385 1024 221 b 379 510 449 221 379 385 l 379 529 b 733 814 379 657 444 814 b 1088 529 1025 814 1088 657 z m 754 1111 b 1015 1333 956 1111 1015 1261 l 1015 1338 l 814 1338 b 735 1264 810 1315 800 1264 b 651 1338 665 1264 656 1315 l 449 1338 l 449 1333 b 713 1111 449 1261 492 1111 z "},"Ő":{"ha":1467,"x_min":0,"x_max":0,"o":"m 703 1050 b 82 540 219 1050 82 765 l 82 499 b 703 -17 82 276 219 -17 l 764 -17 b 1385 499 1247 -17 1385 276 l 1385 540 b 764 1050 1385 767 1247 1050 z m 1088 510 b 733 221 1088 385 1024 221 b 379 510 449 221 379 385 l 379 529 b 733 814 379 657 444 814 b 1088 529 1025 814 1088 657 z m 447 1118 l 699 1118 l 788 1324 l 533 1324 z m 786 1118 l 1036 1118 l 1136 1324 l 879 1324 z "},"Ō":{"ha":1467,"x_min":0,"x_max":0,"o":"m 703 1050 b 82 540 219 1050 82 765 l 82 499 b 703 -17 82 276 219 -17 l 764 -17 b 1385 499 1247 -17 1385 276 l 1385 540 b 764 1050 1385 767 1247 1050 z m 1088 510 b 733 221 1088 385 1024 221 b 379 510 449 221 379 385 l 379 529 b 733 814 379 657 444 814 b 1088 529 1025 814 1088 657 z m 472 1139 l 996 1139 l 996 1303 l 472 1303 z "},"Ǿ":{"ha":1461,"x_min":0,"x_max":0,"o":"m 760 -17 b 1379 499 1269 -17 1379 296 l 1379 540 b 1251 879 1379 646 1349 775 l 1419 1033 l 1165 1033 l 1107 981 b 760 1050 1019 1024 910 1050 l 701 1050 b 82 540 193 1050 76 746 l 82 499 b 214 156 82 393 113 264 l 46 0 l 299 0 l 358 53 b 701 -17 447 10 553 -17 z m 372 531 b 731 817 372 657 436 817 b 906 796 804 817 860 811 l 418 344 b 372 511 386 396 372 457 z m 732 219 b 561 239 661 219 606 228 l 1049 692 b 1089 531 1078 640 1089 582 l 1089 511 b 732 219 1089 385 1025 219 z m 875 1118 l 1022 1324 l 714 1324 l 588 1118 z "},"Ŕ":{"ha":1363,"x_min":0,"x_max":0,"o":"m 414 806 l 813 806 b 961 699 929 806 961 758 l 961 696 b 813 586 961 636 929 586 l 414 586 z m 1043 497 b 1261 743 1172 526 1261 614 l 1261 757 b 824 1033 1261 869 1217 1033 l 128 1033 l 128 0 l 414 0 l 414 351 l 786 351 b 979 157 931 351 979 290 l 979 72 b 989 0 979 26 985 7 l 1285 0 l 1285 7 b 1268 122 1275 24 1268 44 l 1268 229 b 1043 497 1268 381 1183 465 z m 811 1118 l 958 1324 l 650 1324 l 524 1118 z "},"Ř":{"ha":1363,"x_min":0,"x_max":0,"o":"m 414 806 l 813 806 b 961 699 929 806 961 758 l 961 696 b 813 586 961 636 929 586 l 414 586 z m 1043 497 b 1261 743 1172 526 1261 614 l 1261 757 b 824 1033 1261 869 1217 1033 l 128 1033 l 128 0 l 414 0 l 414 351 l 786 351 b 979 157 931 351 979 290 l 979 72 b 989 0 979 26 985 7 l 1285 0 l 1285 7 b 1268 122 1275 24 1268 44 l 1268 229 b 1043 497 1268 381 1183 465 z m 507 1118 l 828 1118 l 1022 1324 l 757 1324 l 669 1235 l 582 1324 l 313 1324 z "},"Ŗ":{"ha":1363,"x_min":0,"x_max":0,"o":"m 414 806 l 813 806 b 961 699 929 806 961 758 l 961 696 b 813 586 961 636 929 586 l 414 586 z m 1043 497 b 1261 743 1172 526 1261 614 l 1261 757 b 824 1033 1261 869 1217 1033 l 128 1033 l 128 0 l 414 0 l 414 351 l 786 351 b 979 157 931 351 979 290 l 979 72 b 989 0 979 26 985 7 l 1285 0 l 1285 7 b 1268 122 1275 24 1268 44 l 1268 229 b 1043 497 1268 381 1183 465 z m 796 -389 b 838 -240 814 -356 838 -292 l 838 -86 l 540 -86 l 540 -272 l 685 -272 b 644 -389 678 -312 661 -356 z "},"Ś":{"ha":1285,"x_min":0,"x_max":0,"o":"m 667 -18 b 1199 326 1129 -18 1199 175 l 1199 343 b 742 646 1199 511 1110 631 l 599 651 b 399 750 436 658 399 697 b 625 842 399 807 442 842 l 639 842 b 871 728 839 842 864 774 l 1178 728 l 1178 743 b 658 1046 1178 879 1115 1046 l 611 1046 b 97 740 183 1046 97 901 l 97 728 b 544 426 97 572 206 438 l 682 422 b 893 315 853 415 893 378 b 650 192 893 256 865 192 l 640 192 b 397 340 421 192 401 294 l 86 340 l 86 325 b 626 -18 86 201 142 -18 z m 779 1118 l 926 1324 l 618 1324 l 492 1118 z "},"Ş":{"ha":1285,"x_min":0,"x_max":0,"o":"m 860 -210 b 642 -69 860 -124 821 -69 l 635 -69 l 635 -18 l 667 -18 b 1199 326 1129 -18 1199 175 l 1199 343 b 742 646 1199 511 1110 631 l 599 651 b 399 750 436 658 399 697 b 625 842 399 807 442 842 l 639 842 b 871 728 839 842 864 774 l 1178 728 l 1178 743 b 658 1046 1178 879 1115 1046 l 611 1046 b 97 740 183 1046 97 901 l 97 728 b 544 426 97 572 206 438 l 682 422 b 893 315 853 415 893 378 b 650 192 893 256 865 192 l 640 192 b 397 340 421 192 401 294 l 86 340 l 86 325 b 481 -10 86 215 131 29 l 481 -171 l 592 -171 b 640 -203 631 -171 640 -185 b 592 -233 640 -221 631 -233 l 440 -233 l 440 -358 l 642 -358 b 860 -214 821 -358 860 -290 z "},"Ŝ":{"ha":1285,"x_min":0,"x_max":0,"o":"m 667 -18 b 1199 326 1129 -18 1199 175 l 1199 343 b 742 646 1199 511 1110 631 l 599 651 b 399 750 436 658 399 697 b 625 842 399 807 442 842 l 639 842 b 871 728 839 842 864 774 l 1178 728 l 1178 743 b 658 1046 1178 879 1115 1046 l 611 1046 b 97 740 183 1046 97 901 l 97 728 b 544 426 97 572 206 438 l 682 422 b 893 315 853 415 893 378 b 650 192 893 256 865 192 l 640 192 b 397 340 421 192 401 294 l 86 340 l 86 325 b 626 -18 86 201 142 -18 z m 797 1324 l 479 1324 l 285 1115 l 549 1115 l 636 1203 l 724 1115 l 992 1115 z "},"Ș":{"ha":1285,"x_min":0,"x_max":0,"o":"m 667 -18 b 1199 326 1129 -18 1199 175 l 1199 343 b 742 646 1199 511 1110 631 l 599 651 b 399 750 436 658 399 697 b 625 842 399 807 442 842 l 639 842 b 871 728 839 842 864 774 l 1178 728 l 1178 743 b 658 1046 1178 879 1115 1046 l 611 1046 b 97 740 183 1046 97 901 l 97 728 b 544 426 97 572 206 438 l 682 422 b 893 315 853 415 893 378 b 650 192 893 256 865 192 l 640 192 b 397 340 421 192 401 294 l 86 340 l 86 325 b 626 -18 86 201 142 -18 z m 756 -389 b 797 -240 774 -356 797 -292 l 797 -86 l 500 -86 l 500 -272 l 644 -272 b 604 -389 638 -312 621 -356 z "},"Ť":{"ha":1213,"x_min":0,"x_max":0,"o":"m 464 0 l 749 0 l 749 797 l 1149 797 l 1149 1033 l 64 1033 l 64 797 l 464 797 z m 444 1118 l 765 1118 l 960 1324 l 694 1324 l 607 1235 l 519 1324 l 250 1324 z "},"Ţ":{"ha":1213,"x_min":0,"x_max":0,"o":"m 464 0 l 749 0 l 749 797 l 1149 797 l 1149 1033 l 64 1033 l 64 797 l 464 797 z m 713 -389 b 754 -240 731 -356 754 -292 l 754 -86 l 457 -86 l 457 -272 l 601 -272 b 561 -389 594 -312 578 -356 z "},"Ț":{"ha":1213,"x_min":0,"x_max":0,"o":"m 464 0 l 749 0 l 749 797 l 1149 797 l 1149 1033 l 64 1033 l 64 797 l 464 797 z m 713 -389 b 754 -240 731 -356 754 -292 l 754 -86 l 457 -86 l 457 -272 l 601 -272 b 561 -389 594 -312 578 -356 z "},"Ŧ":{"ha":1213,"x_min":0,"x_max":0,"o":"m 1036 407 l 1036 583 l 176 583 l 176 407 z m 464 0 l 749 0 l 749 797 l 1149 797 l 1149 1033 l 64 1033 l 64 797 l 464 797 z "},"Ŭ":{"ha":1408,"x_min":0,"x_max":0,"o":"m 726 -15 b 1288 508 1215 -15 1288 301 l 1288 1033 l 1003 1033 l 1003 515 b 710 228 1003 397 972 228 l 703 228 b 407 515 440 228 407 397 l 407 1033 l 121 1033 l 121 508 b 686 -15 121 303 179 -15 z m 726 1111 b 988 1333 928 1111 988 1261 l 988 1338 l 786 1338 b 707 1264 782 1315 772 1264 b 624 1338 638 1264 628 1315 l 421 1338 l 421 1333 b 685 1111 421 1261 464 1111 z "},"Ű":{"ha":1408,"x_min":0,"x_max":0,"o":"m 726 -15 b 1288 508 1215 -15 1288 301 l 1288 1033 l 1003 1033 l 1003 515 b 710 228 1003 397 972 228 l 703 228 b 407 515 440 228 407 397 l 407 1033 l 121 1033 l 121 508 b 686 -15 121 303 179 -15 z m 410 1118 l 661 1118 l 750 1324 l 496 1324 z m 749 1118 l 999 1118 l 1099 1324 l 842 1324 z "},"Ū":{"ha":1408,"x_min":0,"x_max":0,"o":"m 726 -15 b 1288 508 1215 -15 1288 301 l 1288 1033 l 1003 1033 l 1003 515 b 710 228 1003 397 972 228 l 703 228 b 407 515 440 228 407 397 l 407 1033 l 121 1033 l 121 508 b 686 -15 121 303 179 -15 z m 444 1139 l 968 1139 l 968 1303 l 444 1303 z "},"Ų":{"ha":1408,"x_min":0,"x_max":0,"o":"m 1007 -268 l 1007 -132 l 944 -132 b 892 -96 910 -132 892 -119 b 1036 31 892 -65 929 -36 b 1288 508 1213 143 1288 290 l 1288 1033 l 1003 1033 l 1003 515 b 710 228 1003 397 972 228 l 703 228 b 407 515 440 228 407 397 l 407 1033 l 121 1033 l 121 508 b 686 -15 121 303 179 -15 l 726 -15 b 826 -10 764 -15 794 -14 b 628 -160 703 -50 628 -92 l 628 -162 b 810 -268 628 -233 689 -268 z "},"Ů":{"ha":1408,"x_min":0,"x_max":0,"o":"m 726 -15 b 1288 508 1215 -15 1288 301 l 1288 1033 l 1003 1033 l 1003 515 b 710 228 1003 397 972 228 l 703 228 b 407 515 440 228 407 397 l 407 1033 l 121 1033 l 121 508 b 686 -15 121 303 179 -15 z m 471 1253 b 704 1072 471 1160 528 1072 b 939 1253 882 1072 939 1160 b 704 1433 939 1351 879 1433 b 471 1253 531 1433 471 1351 z m 799 1253 b 704 1175 799 1213 769 1175 b 611 1253 639 1175 611 1213 b 704 1329 611 1296 639 1329 b 799 1253 769 1329 799 1296 z "},"Ũ":{"ha":1408,"x_min":0,"x_max":0,"o":"m 726 -15 b 1288 508 1215 -15 1288 301 l 1288 1033 l 1003 1033 l 1003 515 b 710 228 1003 397 972 228 l 703 228 b 407 515 440 228 407 397 l 407 1033 l 121 1033 l 121 508 b 686 -15 121 303 179 -15 z m 586 1167 b 606 1197 586 1183 590 1197 b 685 1169 621 1197 642 1188 b 857 1119 756 1140 806 1119 l 860 1119 b 981 1256 958 1119 981 1197 l 981 1364 l 825 1364 l 825 1308 b 806 1278 825 1292 821 1278 b 726 1306 790 1278 769 1288 b 554 1356 656 1335 606 1356 l 551 1356 b 431 1219 453 1356 431 1278 l 431 1111 l 586 1111 z "},"Ẃ":{"ha":1861,"x_min":0,"x_max":0,"o":"m 713 0 l 932 724 l 1151 0 l 1493 0 l 1836 1033 l 1554 1033 l 1328 288 l 1110 1033 l 776 1033 l 560 290 l 332 1033 l 25 1033 l 381 0 z m 1086 1118 l 1233 1324 l 925 1324 l 799 1118 z "},"Ŵ":{"ha":1861,"x_min":0,"x_max":0,"o":"m 713 0 l 932 724 l 1151 0 l 1493 0 l 1836 1033 l 1554 1033 l 1328 288 l 1110 1033 l 776 1033 l 560 290 l 332 1033 l 25 1033 l 381 0 z m 1104 1324 l 786 1324 l 592 1115 l 856 1115 l 943 1203 l 1031 1115 l 1299 1115 z "},"Ẅ":{"ha":1861,"x_min":0,"x_max":0,"o":"m 713 0 l 932 724 l 1151 0 l 1493 0 l 1836 1033 l 1554 1033 l 1328 288 l 1110 1033 l 776 1033 l 560 290 l 332 1033 l 25 1033 l 381 0 z m 900 1313 l 631 1313 l 631 1118 l 900 1118 z m 1256 1313 l 986 1313 l 986 1118 l 1256 1118 z "},"Ẁ":{"ha":1861,"x_min":0,"x_max":0,"o":"m 713 0 l 932 724 l 1151 0 l 1493 0 l 1836 1033 l 1554 1033 l 1328 288 l 1110 1033 l 776 1033 l 560 290 l 332 1033 l 25 1033 l 381 0 z m 800 1118 l 1088 1118 l 961 1324 l 653 1324 z "},"Ŷ":{"ha":1288,"x_min":0,"x_max":0,"o":"m 510 0 l 796 0 l 796 376 l 1290 1033 l 971 1033 l 661 624 l 351 1033 l -3 1033 l 510 378 z m 822 1324 l 504 1324 l 310 1115 l 574 1115 l 661 1203 l 749 1115 l 1017 1115 z "},"Ỳ":{"ha":1288,"x_min":0,"x_max":0,"o":"m 510 0 l 796 0 l 796 376 l 1290 1033 l 971 1033 l 661 624 l 351 1033 l -3 1033 l 510 378 z m 518 1118 l 806 1118 l 679 1324 l 371 1324 z "},"Ź":{"ha":1261,"x_min":0,"x_max":0,"o":"m 1160 0 l 1160 236 l 494 236 l 1154 835 l 1154 1033 l 107 1033 l 107 800 l 736 800 l 103 199 l 103 0 z m 774 1118 l 921 1324 l 613 1324 l 486 1118 z "},"Ż":{"ha":1261,"x_min":0,"x_max":0,"o":"m 1160 0 l 1160 236 l 494 236 l 1154 835 l 1154 1033 l 107 1033 l 107 800 l 736 800 l 103 199 l 103 0 z m 769 1313 l 493 1313 l 493 1118 l 769 1118 z "},"ă":{"ha":1088,"x_min":0,"x_max":0,"o":"m 476 154 b 347 239 382 154 347 190 l 347 242 b 519 336 347 296 389 314 b 689 372 597 349 665 363 l 689 313 b 476 154 689 254 635 154 z m 697 107 b 826 0 708 57 746 0 l 1046 0 l 1046 207 l 1017 207 b 953 275 963 207 953 226 l 953 529 b 547 789 953 632 929 789 l 504 789 b 94 533 125 789 94 610 l 94 531 l 372 531 b 528 615 372 560 386 615 b 689 540 678 615 689 576 b 631 490 689 508 674 494 l 419 472 b 74 235 158 450 74 368 l 74 229 b 378 -15 74 101 163 -15 l 400 -15 b 697 107 581 -15 664 67 z m 553 850 b 810 1072 754 850 810 1000 l 810 1076 l 608 1076 b 533 1003 608 1058 599 1003 b 456 1076 464 1003 456 1058 l 251 1076 l 251 1072 b 511 850 251 1000 290 850 z "},"ā":{"ha":1088,"x_min":0,"x_max":0,"o":"m 476 154 b 347 239 382 154 347 190 l 347 242 b 519 336 347 296 389 314 b 689 372 597 349 665 363 l 689 313 b 476 154 689 254 635 154 z m 697 107 b 826 0 708 57 746 0 l 1046 0 l 1046 207 l 1017 207 b 953 275 963 207 953 226 l 953 529 b 547 789 953 632 929 789 l 504 789 b 94 533 125 789 94 610 l 94 531 l 372 531 b 528 615 372 560 386 615 b 689 540 678 615 689 576 b 631 490 689 508 674 494 l 419 472 b 74 235 158 450 74 368 l 74 229 b 378 -15 74 101 163 -15 l 400 -15 b 697 107 581 -15 664 67 z m 274 875 l 782 875 l 782 1039 l 274 1039 z "},"ą":{"ha":1088,"x_min":0,"x_max":0,"o":"m 476 154 b 347 239 382 154 347 190 l 347 242 b 519 336 347 296 389 314 b 689 372 597 349 665 363 l 689 313 b 476 154 689 254 635 154 z m 697 107 b 826 0 708 57 746 0 l 1046 0 l 1046 207 l 1017 207 b 953 275 963 207 953 226 l 953 529 b 547 789 953 632 929 789 l 504 789 b 94 533 125 789 94 610 l 94 531 l 372 531 b 528 615 372 560 386 615 b 689 540 678 615 689 576 b 631 490 689 508 674 494 l 419 472 b 74 235 158 450 74 368 l 74 229 b 378 -15 74 101 163 -15 l 400 -15 b 697 107 581 -15 664 67 z m 1061 -268 l 1061 -132 l 999 -132 b 946 -97 964 -132 946 -121 b 1046 0 946 -65 981 -40 l 928 0 b 682 -160 778 -40 682 -83 l 682 -162 b 864 -268 682 -233 743 -268 z "},"ǻ":{"ha":1088,"x_min":0,"x_max":0,"o":"m 476 154 b 347 239 382 154 347 190 l 347 242 b 519 336 347 296 389 314 b 689 372 597 349 665 363 l 689 313 b 476 154 689 254 635 154 z m 697 107 b 826 0 708 57 746 0 l 1046 0 l 1046 207 l 1017 207 b 953 275 963 207 953 226 l 953 529 b 547 789 953 632 929 789 l 504 789 b 94 533 125 789 94 610 l 94 531 l 372 531 b 528 615 372 560 386 615 b 689 540 678 615 689 576 b 631 490 689 508 674 494 l 419 472 b 74 235 158 450 74 368 l 74 229 b 378 -15 74 101 163 -15 l 400 -15 b 697 107 581 -15 664 67 z m 294 1029 b 528 849 294 933 351 849 b 763 1029 706 849 763 933 b 528 1208 763 1125 703 1208 b 294 1029 354 1208 294 1125 z m 435 1029 b 528 1104 435 1072 463 1104 b 622 1029 593 1104 622 1072 b 528 951 622 989 593 951 b 435 1029 463 951 435 989 z m 392 1257 l 663 1257 l 817 1464 l 514 1464 z "},"ǽ":{"ha":1718,"x_min":0,"x_max":0,"o":"m 1157 613 b 1356 469 1324 613 1356 529 l 954 469 b 1157 613 969 551 1019 613 z m 469 154 b 347 239 381 154 347 190 l 347 242 b 513 336 347 293 389 314 b 675 372 583 349 651 363 l 675 313 b 469 154 675 254 619 154 z m 1360 232 b 1181 167 1356 225 1332 167 b 951 328 1019 167 967 239 l 1646 328 l 1646 353 b 1183 788 1646 568 1571 788 l 1124 788 b 846 717 994 788 900 760 b 540 789 794 761 697 789 l 497 789 b 94 533 125 789 94 611 l 94 531 l 372 531 b 521 615 372 560 388 615 b 675 540 661 615 675 576 b 617 490 675 508 660 494 l 413 472 b 74 235 156 450 74 368 l 74 229 b 383 -15 74 101 157 -15 l 406 -15 b 749 133 608 -15 706 68 b 1147 -18 804 60 919 -18 l 1196 -18 b 1643 232 1589 -18 1643 178 z m 707 857 l 978 857 l 1132 1064 l 829 1064 z "},"ć":{"ha":1113,"x_min":0,"x_max":0,"o":"m 757 303 b 572 181 757 285 733 181 l 558 181 b 356 390 401 181 356 294 l 356 392 b 553 594 356 485 393 594 l 567 594 b 757 476 726 594 753 499 l 1040 476 l 1040 478 b 594 792 1040 589 967 792 l 531 792 b 75 394 143 792 75 540 l 75 375 b 532 -21 75 229 147 -21 l 600 -21 b 1040 303 971 -21 1040 186 z m 428 857 l 699 857 l 853 1064 l 550 1064 z "},"č":{"ha":1113,"x_min":0,"x_max":0,"o":"m 757 303 b 572 181 757 285 733 181 l 558 181 b 356 390 401 181 356 294 l 356 392 b 553 594 356 485 393 594 l 567 594 b 757 476 726 594 753 499 l 1040 476 l 1040 478 b 594 792 1040 589 967 792 l 531 792 b 75 394 143 792 75 540 l 75 375 b 532 -21 75 229 147 -21 l 600 -21 b 1040 303 971 -21 1040 186 z m 403 857 l 724 857 l 913 1064 l 647 1064 l 565 975 l 483 1064 l 213 1064 z "},"ĉ":{"ha":1113,"x_min":0,"x_max":0,"o":"m 757 303 b 572 181 757 285 733 181 l 558 181 b 356 390 401 181 356 294 l 356 392 b 553 594 356 485 393 594 l 567 594 b 757 476 726 594 753 499 l 1040 476 l 1040 478 b 594 792 1040 589 967 792 l 531 792 b 75 394 143 792 75 540 l 75 375 b 532 -21 75 229 147 -21 l 600 -21 b 1040 303 971 -21 1040 186 z m 726 1064 l 406 1064 l 217 856 l 482 856 l 564 946 l 646 856 l 917 856 z "},"ċ":{"ha":1113,"x_min":0,"x_max":0,"o":"m 757 303 b 572 181 757 285 733 181 l 558 181 b 356 390 401 181 356 294 l 356 392 b 553 594 356 485 393 594 l 567 594 b 757 476 726 594 753 499 l 1040 476 l 1040 478 b 594 792 1040 589 967 792 l 531 792 b 75 394 143 792 75 540 l 75 375 b 532 -21 75 229 147 -21 l 600 -21 b 1040 303 971 -21 1040 186 z m 703 1051 l 426 1051 l 426 857 l 703 857 z "},"ď":{"ha":1176,"x_min":0,"x_max":0,"o":"m 581 585 b 793 389 742 585 793 478 l 793 385 b 581 189 793 300 742 189 l 565 189 b 357 385 396 189 357 306 l 357 389 b 565 585 357 472 396 585 z m 790 1051 l 790 689 b 492 786 757 719 668 786 l 475 786 b 78 399 192 786 78 592 l 78 375 b 478 -15 78 179 196 -15 l 496 -15 b 792 100 678 -15 765 69 l 792 0 l 1061 0 l 1061 1051 z m 1131 857 l 1343 857 l 1382 1064 l 1154 1064 z "},"ĕ":{"ha":1126,"x_min":0,"x_max":0,"o":"m 561 611 b 763 474 735 611 763 531 l 354 474 b 561 611 368 554 421 611 z m 768 240 b 585 167 761 228 742 167 b 351 328 419 167 363 239 l 1053 328 l 1053 353 b 588 788 1053 568 982 788 l 526 788 b 75 394 161 788 75 568 l 75 375 b 550 -18 75 190 169 -18 l 601 -18 b 1050 240 1000 -18 1050 176 z m 579 850 b 836 1072 781 850 836 1000 l 836 1076 l 635 1076 b 560 1003 635 1058 625 1003 b 482 1076 490 1003 482 1058 l 278 1076 l 278 1072 b 538 850 278 1000 317 850 z "},"ě":{"ha":1126,"x_min":0,"x_max":0,"o":"m 561 611 b 763 474 735 611 763 531 l 354 474 b 561 611 368 554 421 611 z m 768 240 b 585 167 761 228 742 167 b 351 328 419 167 363 239 l 1053 328 l 1053 353 b 588 788 1053 568 982 788 l 526 788 b 75 394 161 788 75 568 l 75 375 b 550 -18 75 190 169 -18 l 601 -18 b 1050 240 1000 -18 1050 176 z m 397 857 l 718 857 l 907 1064 l 642 1064 l 560 975 l 478 1064 l 207 1064 z "},"ė":{"ha":1126,"x_min":0,"x_max":0,"o":"m 561 611 b 763 474 735 611 763 531 l 354 474 b 561 611 368 554 421 611 z m 768 240 b 585 167 761 228 742 167 b 351 328 419 167 363 239 l 1053 328 l 1053 353 b 588 788 1053 568 982 788 l 526 788 b 75 394 161 788 75 568 l 75 375 b 550 -18 75 190 169 -18 l 601 -18 b 1050 240 1000 -18 1050 176 z m 697 1051 l 421 1051 l 421 857 l 697 857 z "},"ē":{"ha":1126,"x_min":0,"x_max":0,"o":"m 561 611 b 763 474 735 611 763 531 l 354 474 b 561 611 368 554 421 611 z m 768 240 b 585 167 761 228 742 167 b 351 328 419 167 363 239 l 1053 328 l 1053 353 b 588 788 1053 568 982 788 l 526 788 b 75 394 161 788 75 568 l 75 375 b 550 -18 75 190 169 -18 l 601 -18 b 1050 240 1000 -18 1050 176 z m 304 875 l 813 875 l 813 1039 l 304 1039 z "},"ę":{"ha":1126,"x_min":0,"x_max":0,"o":"m 561 614 b 763 476 735 614 763 533 l 354 476 b 561 614 368 557 421 614 z m 897 -131 l 835 -131 b 781 -94 799 -131 781 -118 b 897 22 781 -61 810 -37 b 1050 243 1021 111 1050 188 l 768 243 b 585 169 761 231 742 169 b 351 331 419 169 363 242 l 1053 331 l 1053 356 b 588 790 1053 571 982 790 l 526 790 b 75 397 161 790 75 571 l 75 378 b 550 -15 75 193 169 -15 l 601 -15 b 722 -8 646 -15 685 -12 b 514 -158 594 -46 514 -90 l 514 -161 b 697 -268 514 -232 575 -268 l 897 -268 z "},"ğ":{"ha":1175,"x_min":0,"x_max":0,"o":"m 582 586 b 793 410 738 586 793 492 l 793 404 b 583 229 793 326 743 229 l 567 229 b 357 406 403 229 357 329 l 357 410 b 567 586 357 488 397 586 z m 610 -286 b 1060 86 951 -286 1060 -119 l 1060 771 l 790 771 l 790 692 b 488 786 757 721 672 786 l 472 786 b 78 421 182 786 78 594 l 78 397 b 476 26 78 232 172 26 l 496 26 b 792 132 685 26 763 103 l 792 75 b 593 -87 792 -18 743 -87 l 578 -87 b 408 -28 436 -87 419 -50 l 121 -28 l 121 -33 b 563 -286 121 -122 163 -286 z m 583 850 b 840 1072 785 850 840 1000 l 840 1076 l 639 1076 b 564 1003 639 1058 629 1003 b 486 1076 494 1003 486 1058 l 282 1076 l 282 1072 b 542 850 282 1000 321 850 z "},"ĝ":{"ha":1175,"x_min":0,"x_max":0,"o":"m 582 586 b 793 410 738 586 793 492 l 793 404 b 583 229 793 326 743 229 l 567 229 b 357 406 403 229 357 329 l 357 410 b 567 586 357 488 397 586 z m 610 -286 b 1060 86 951 -286 1060 -119 l 1060 771 l 790 771 l 790 692 b 488 786 757 721 672 786 l 472 786 b 78 421 182 786 78 594 l 78 397 b 476 26 78 232 172 26 l 496 26 b 792 132 685 26 763 103 l 792 75 b 593 -87 792 -18 743 -87 l 578 -87 b 408 -28 436 -87 419 -50 l 121 -28 l 121 -33 b 563 -286 121 -122 163 -286 z m 725 1064 l 404 1064 l 215 856 l 481 856 l 563 946 l 644 856 l 915 856 z "},"ģ":{"ha":1175,"x_min":0,"x_max":0,"o":"m 582 586 b 793 410 738 586 793 492 l 793 404 b 583 229 793 326 743 229 l 567 229 b 357 406 403 229 357 329 l 357 410 b 567 586 357 488 397 586 z m 610 -286 b 1060 86 951 -286 1060 -119 l 1060 771 l 790 771 l 790 692 b 488 786 757 721 672 786 l 472 786 b 78 421 182 786 78 594 l 78 397 b 476 26 78 232 172 26 l 496 26 b 792 132 685 26 763 103 l 792 75 b 593 -87 792 -18 743 -87 l 578 -87 b 408 -28 436 -87 419 -50 l 121 -28 l 121 -33 b 563 -286 121 -122 163 -286 z m 456 1160 b 414 1011 438 1126 414 1063 l 414 857 l 711 857 l 711 1043 l 567 1043 b 607 1160 574 1083 590 1126 z "},"ġ":{"ha":1175,"x_min":0,"x_max":0,"o":"m 582 586 b 793 410 738 586 793 492 l 793 404 b 583 229 793 326 743 229 l 567 229 b 357 406 403 229 357 329 l 357 410 b 567 586 357 488 397 586 z m 610 -286 b 1060 86 951 -286 1060 -119 l 1060 771 l 790 771 l 790 692 b 488 786 757 721 672 786 l 472 786 b 78 421 182 786 78 594 l 78 397 b 476 26 78 232 172 26 l 496 26 b 792 132 685 26 763 103 l 792 75 b 593 -87 792 -18 743 -87 l 578 -87 b 408 -28 436 -87 419 -50 l 121 -28 l 121 -33 b 563 -286 121 -122 163 -286 z m 701 1051 l 425 1051 l 425 857 l 701 857 z "},"ħ":{"ha":1150,"x_min":0,"x_max":0,"o":"m -15 979 l -15 858 l 757 858 l 757 979 z m 115 0 l 386 0 l 386 392 b 582 576 386 486 453 576 b 767 401 715 576 767 490 l 767 0 l 1038 0 l 1038 500 b 710 789 1038 638 936 789 l 696 789 b 386 650 521 789 419 690 l 386 1051 l 115 1051 z "},"ĥ":{"ha":1150,"x_min":0,"x_max":0,"o":"m 115 0 l 386 0 l 386 392 b 582 576 386 486 453 576 b 767 401 715 576 767 490 l 767 0 l 1038 0 l 1038 500 b 710 789 1038 638 936 789 l 696 789 b 386 650 521 789 419 690 l 386 1051 l 115 1051 z m 638 1346 l 317 1346 l 128 1138 l 393 1138 l 475 1228 l 557 1138 l 828 1138 z "},"ĭ":{"ha":501,"x_min":0,"x_max":0,"o":"m 268 849 b 524 1071 468 849 524 999 l 524 1075 l 325 1075 b 256 1001 325 1057 314 1001 b 183 1075 194 1001 183 1057 l -18 1075 l -18 1071 b 240 849 -18 999 24 849 z m 386 771 l 115 771 l 115 0 l 386 0 z "},"ī":{"ha":501,"x_min":0,"x_max":0,"o":"m 17 875 l 485 875 l 485 1039 l 17 1039 z m 386 771 l 115 771 l 115 0 l 386 0 z "},"į":{"ha":501,"x_min":0,"x_max":0,"o":"m 389 1051 l 113 1051 l 113 857 l 389 857 z m 386 771 l 115 771 l 115 0 l 386 0 z m 401 -268 l 401 -132 l 339 -132 b 286 -97 304 -132 286 -121 b 386 0 286 -65 321 -40 l 268 0 b 22 -160 118 -40 22 -83 l 22 -162 b 204 -268 22 -233 83 -268 z "},"ĩ":{"ha":501,"x_min":0,"x_max":0,"o":"m 497 1107 l 346 1107 l 346 1051 b 326 1021 346 1031 339 1021 b 260 1050 314 1021 299 1029 b 114 1099 197 1083 163 1099 l 111 1099 b -3 963 18 1099 -3 1019 l -3 853 l 149 853 l 149 908 b 168 939 149 929 156 939 b 235 910 181 939 196 931 b 381 861 297 876 332 861 l 383 861 b 497 997 476 861 497 940 z m 386 771 l 115 771 l 115 0 l 386 0 z "},"ĵ":{"ha":501,"x_min":0,"x_max":0,"o":"m 413 1064 l 92 1064 l -69 856 l 181 856 l 250 950 l 319 856 l 575 856 z m -22 -64 l -22 -265 l 225 -265 b 386 -68 332 -265 386 -196 l 386 771 l 115 771 l 115 -3 b 61 -64 115 -47 101 -64 z "},"ķ":{"ha":1008,"x_min":0,"x_max":0,"o":"m 386 0 l 386 357 l 686 0 l 1008 0 l 651 425 l 974 771 l 661 771 l 386 463 l 386 1051 l 115 1051 l 115 0 z m 640 -389 b 682 -240 658 -356 682 -292 l 682 -86 l 385 -86 l 385 -272 l 529 -272 b 489 -389 522 -312 506 -356 z "},"ĺ":{"ha":501,"x_min":0,"x_max":0,"o":"m 386 1051 l 115 1051 l 115 0 l 386 0 z m 115 1138 l 386 1138 l 540 1344 l 238 1344 z "},"ľ":{"ha":501,"x_min":0,"x_max":0,"o":"m 386 1051 l 115 1051 l 115 0 l 386 0 z m 456 857 l 668 857 l 707 1064 l 479 1064 z "},"ļ":{"ha":501,"x_min":0,"x_max":0,"o":"m 386 1051 l 115 1051 l 115 0 l 386 0 z m 360 -389 b 401 -240 378 -356 401 -292 l 401 -86 l 104 -86 l 104 -272 l 249 -272 b 208 -389 242 -312 225 -356 z "},"ŀ":{"ha":878,"x_min":0,"x_max":0,"o":"m 386 1051 l 115 1051 l 115 0 l 386 0 z m 851 658 l 528 658 l 528 389 l 851 389 z "},"ń":{"ha":1150,"x_min":0,"x_max":0,"o":"m 115 0 l 386 0 l 386 392 b 582 576 386 486 453 576 b 767 401 715 576 767 490 l 767 0 l 1038 0 l 1038 500 b 710 789 1038 638 936 789 l 696 789 b 383 649 519 789 418 690 l 383 771 l 115 771 z m 428 857 l 699 857 l 853 1064 l 550 1064 z "},"ŉ":{"ha":1546,"x_min":0,"x_max":0,"o":"m 308 607 b 378 856 335 660 378 756 l 378 1033 l 56 1033 l 56 803 l 201 803 b 126 607 190 743 158 664 z m 511 0 l 782 0 l 782 392 b 978 576 782 486 849 576 b 1163 401 1111 576 1163 490 l 1163 0 l 1433 0 l 1433 500 b 1106 789 1433 638 1332 789 l 1092 789 b 779 649 915 789 814 690 l 779 771 l 511 771 z "},"ň":{"ha":1150,"x_min":0,"x_max":0,"o":"m 115 0 l 386 0 l 386 392 b 582 576 386 486 453 576 b 767 401 715 576 767 490 l 767 0 l 1038 0 l 1038 500 b 710 789 1038 638 936 789 l 696 789 b 383 649 519 789 418 690 l 383 771 l 115 771 z m 417 857 l 738 857 l 926 1064 l 661 1064 l 579 975 l 497 1064 l 226 1064 z "},"ņ":{"ha":1150,"x_min":0,"x_max":0,"o":"m 115 0 l 386 0 l 386 392 b 582 576 386 486 453 576 b 767 401 715 576 767 490 l 767 0 l 1038 0 l 1038 500 b 710 789 1038 638 936 789 l 696 789 b 383 649 519 789 418 690 l 383 771 l 115 771 z m 685 -389 b 726 -240 703 -356 726 -292 l 726 -86 l 429 -86 l 429 -272 l 574 -272 b 533 -389 567 -312 550 -356 z "},"ŏ":{"ha":1149,"x_min":0,"x_max":0,"o":"m 596 -21 b 1075 371 1025 -21 1075 232 l 1075 393 b 597 792 1075 529 1025 792 l 551 792 b 74 392 138 792 74 531 l 74 372 b 553 -21 74 232 138 -21 z m 567 182 b 353 389 389 182 353 304 b 567 593 353 476 389 593 l 582 593 b 796 389 753 593 796 476 b 582 182 796 304 753 182 z m 596 850 b 853 1072 797 850 853 1000 l 853 1076 l 651 1076 b 576 1003 651 1058 642 1003 b 499 1076 507 1003 499 1058 l 294 1076 l 294 1072 b 554 850 294 1000 333 850 z "},"ő":{"ha":1149,"x_min":0,"x_max":0,"o":"m 596 -21 b 1075 371 1025 -21 1075 232 l 1075 393 b 597 792 1075 529 1025 792 l 551 792 b 74 392 138 792 74 531 l 74 372 b 553 -21 74 232 138 -21 z m 567 182 b 353 389 389 182 353 304 b 567 593 353 476 389 593 l 582 593 b 796 389 753 593 796 476 b 582 182 796 304 753 182 z m 617 857 l 864 857 l 961 1064 l 707 1064 z m 282 857 l 532 857 l 621 1064 l 368 1064 z "},"ō":{"ha":1149,"x_min":0,"x_max":0,"o":"m 596 -21 b 1075 371 1025 -21 1075 232 l 1075 393 b 597 792 1075 529 1025 792 l 551 792 b 74 392 138 792 74 531 l 74 372 b 553 -21 74 232 138 -21 z m 567 182 b 353 389 389 182 353 304 b 567 593 353 476 389 593 l 582 593 b 796 389 753 593 796 476 b 582 182 796 304 753 182 z m 321 875 l 829 875 l 829 1039 l 321 1039 z "},"ǿ":{"ha":1140,"x_min":0,"x_max":0,"o":"m 592 -21 b 1067 371 1031 -21 1067 236 l 1067 393 b 982 650 1067 464 1056 568 l 1122 771 l 915 771 l 871 733 b 593 792 800 772 715 792 l 547 792 b 74 392 125 792 74 525 l 74 372 b 163 124 74 293 92 200 l 19 0 l 224 0 l 271 42 b 549 -21 339 4 425 -21 z m 333 389 b 564 597 333 482 378 597 l 579 597 b 696 583 631 597 668 589 l 350 286 b 333 388 340 313 333 344 z m 564 178 b 449 193 514 178 478 183 l 793 488 b 808 389 803 461 808 433 l 808 388 b 579 178 808 296 761 178 z m 435 857 l 706 857 l 860 1064 l 557 1064 z "},"ŕ":{"ha":968,"x_min":0,"x_max":0,"o":"m 386 0 l 386 410 b 515 576 386 510 431 576 b 625 413 600 576 625 518 l 625 401 l 904 401 b 906 489 906 435 906 456 b 643 788 906 669 825 788 l 635 788 b 383 644 476 788 401 682 l 383 771 l 115 771 l 115 0 z m 374 857 l 644 857 l 799 1064 l 496 1064 z "},"ř":{"ha":968,"x_min":0,"x_max":0,"o":"m 386 0 l 386 410 b 515 576 386 510 431 576 b 625 413 600 576 625 518 l 625 401 l 904 401 b 906 489 906 435 906 456 b 643 788 906 669 825 788 l 635 788 b 383 644 476 788 401 682 l 383 771 l 115 771 l 115 0 z m 342 857 l 663 857 l 851 1064 l 586 1064 l 504 975 l 422 1064 l 151 1064 z "},"ŗ":{"ha":968,"x_min":0,"x_max":0,"o":"m 386 0 l 386 410 b 515 576 386 510 431 576 b 625 413 600 576 625 518 l 625 401 l 904 401 b 906 489 906 435 906 456 b 643 788 906 669 825 788 l 635 788 b 383 644 476 788 401 682 l 383 771 l 115 771 l 115 0 z m 358 -389 b 400 -240 376 -356 400 -292 l 400 -86 l 103 -86 l 103 -272 l 247 -272 b 207 -389 240 -312 224 -356 z "},"ś":{"ha":1024,"x_min":0,"x_max":0,"o":"m 522 -18 b 949 246 893 -18 949 117 l 949 256 b 594 483 949 385 872 472 l 489 488 b 350 560 378 492 350 517 b 497 624 350 599 381 624 l 501 624 b 649 549 628 624 640 576 l 932 549 l 932 553 b 514 789 932 653 888 789 l 476 789 b 78 547 150 789 78 679 l 78 539 b 417 308 78 411 168 324 l 522 300 b 669 226 651 293 669 265 b 521 153 669 189 642 153 l 518 153 b 364 235 381 153 368 208 l 74 235 l 74 228 b 486 -18 74 163 107 -18 z m 365 857 l 636 857 l 790 1064 l 488 1064 z "},"ş":{"ha":1024,"x_min":0,"x_max":0,"o":"m 725 -210 b 507 -69 725 -124 686 -69 l 500 -69 l 500 -18 l 522 -18 b 949 246 893 -18 949 117 l 949 256 b 594 483 949 385 872 472 l 489 488 b 350 560 378 492 350 517 b 497 624 350 599 381 624 l 501 624 b 649 549 628 624 640 576 l 932 549 l 932 553 b 514 789 932 653 888 789 l 476 789 b 78 547 150 789 78 679 l 78 539 b 417 308 78 411 168 324 l 522 300 b 669 226 651 293 669 265 b 521 153 669 189 642 153 l 518 153 b 364 235 381 153 368 208 l 74 235 l 74 228 b 346 -8 74 174 97 29 l 346 -171 l 457 -171 b 506 -203 496 -171 506 -185 b 457 -233 506 -221 496 -233 l 306 -233 l 306 -358 l 507 -358 b 725 -214 686 -358 725 -290 z "},"ŝ":{"ha":1024,"x_min":0,"x_max":0,"o":"m 522 -18 b 949 246 893 -18 949 117 l 949 256 b 594 483 949 385 872 472 l 489 488 b 350 560 378 492 350 517 b 497 624 350 599 381 624 l 501 624 b 649 549 628 624 640 576 l 932 549 l 932 553 b 514 789 932 653 888 789 l 476 789 b 78 547 150 789 78 679 l 78 539 b 417 308 78 411 168 324 l 522 300 b 669 226 651 293 669 265 b 521 153 669 189 642 153 l 518 153 b 364 235 381 153 368 208 l 74 235 l 74 228 b 486 -18 74 163 107 -18 z m 664 1064 l 343 1064 l 154 856 l 419 856 l 501 946 l 583 856 l 854 856 z "},"ș":{"ha":1024,"x_min":0,"x_max":0,"o":"m 522 -18 b 949 246 893 -18 949 117 l 949 256 b 594 483 949 385 872 472 l 489 488 b 350 560 378 492 350 517 b 497 624 350 599 381 624 l 501 624 b 649 549 628 624 640 576 l 932 549 l 932 553 b 514 789 932 653 888 789 l 476 789 b 78 547 150 789 78 679 l 78 539 b 417 308 78 411 168 324 l 522 300 b 669 226 651 293 669 265 b 521 153 669 189 642 153 l 518 153 b 364 235 381 153 368 208 l 74 235 l 74 228 b 486 -18 74 163 107 -18 z m 618 -389 b 660 -240 636 -356 660 -292 l 660 -86 l 363 -86 l 363 -272 l 507 -272 b 467 -389 500 -312 483 -356 z "},"ŧ":{"ha":753,"x_min":0,"x_max":0,"o":"m 672 0 l 672 200 l 578 200 b 496 286 511 200 496 226 l 496 343 l 672 343 l 672 481 l 496 481 l 496 583 l 672 583 l 672 771 l 496 771 l 496 1006 l 226 1006 l 226 771 l 58 771 l 58 583 l 226 583 l 226 481 l 58 481 l 58 343 l 226 343 l 226 208 b 426 0 226 69 300 0 z "},"ť":{"ha":742,"x_min":0,"x_max":0,"o":"m 667 207 l 571 207 b 490 293 506 207 490 233 l 490 576 l 667 576 l 667 771 l 490 771 l 490 1006 l 221 1006 l 221 771 l 53 771 l 53 576 l 221 576 l 221 208 b 421 0 221 69 294 0 l 667 0 z m 560 857 l 772 857 l 811 1064 l 583 1064 z "},"ţ":{"ha":742,"x_min":0,"x_max":0,"o":"m 667 207 l 571 207 b 490 293 506 207 490 233 l 490 576 l 667 576 l 667 771 l 490 771 l 490 1006 l 221 1006 l 221 771 l 53 771 l 53 576 l 221 576 l 221 208 b 421 0 221 69 294 0 l 667 0 z m 576 -389 b 618 -240 594 -356 618 -292 l 618 -86 l 321 -86 l 321 -272 l 465 -272 b 425 -389 458 -312 442 -356 z "},"ț":{"ha":742,"x_min":0,"x_max":0,"o":"m 667 207 l 571 207 b 490 293 506 207 490 233 l 490 576 l 667 576 l 667 771 l 490 771 l 490 1006 l 221 1006 l 221 771 l 53 771 l 53 576 l 221 576 l 221 208 b 421 0 221 69 294 0 l 667 0 z m 576 -389 b 618 -240 594 -356 618 -292 l 618 -86 l 321 -86 l 321 -272 l 465 -272 b 425 -389 458 -312 442 -356 z "},"ŭ":{"ha":1142,"x_min":0,"x_max":0,"o":"m 1026 771 l 756 771 l 756 379 b 564 196 756 285 690 196 b 383 369 432 196 383 279 l 383 771 l 113 771 l 113 271 b 436 -18 113 133 214 -18 l 449 -18 b 758 122 622 -18 728 81 l 758 0 l 1026 0 z m 590 850 b 847 1072 792 850 847 1000 l 847 1076 l 646 1076 b 571 1003 646 1058 636 1003 b 493 1076 501 1003 493 1058 l 289 1076 l 289 1072 b 549 850 289 1000 328 850 z "},"ű":{"ha":1142,"x_min":0,"x_max":0,"o":"m 1026 771 l 756 771 l 756 379 b 564 196 756 285 690 196 b 383 369 432 196 383 279 l 383 771 l 113 771 l 113 271 b 436 -18 113 133 214 -18 l 449 -18 b 758 122 622 -18 728 81 l 758 0 l 1026 0 z m 613 857 l 860 857 l 957 1064 l 703 1064 z m 278 857 l 528 857 l 617 1064 l 364 1064 z "},"ū":{"ha":1142,"x_min":0,"x_max":0,"o":"m 1026 771 l 756 771 l 756 379 b 564 196 756 285 690 196 b 383 369 432 196 383 279 l 383 771 l 113 771 l 113 271 b 436 -18 113 133 214 -18 l 449 -18 b 758 122 622 -18 728 81 l 758 0 l 1026 0 z m 315 875 l 824 875 l 824 1039 l 315 1039 z "},"ų":{"ha":1142,"x_min":0,"x_max":0,"o":"m 1026 771 l 756 771 l 756 379 b 564 196 756 285 690 196 b 383 369 432 196 383 279 l 383 771 l 113 771 l 113 271 b 436 -18 113 133 214 -18 l 449 -18 b 758 122 622 -18 728 81 l 758 0 l 1026 0 z m 1042 -268 l 1042 -132 l 979 -132 b 926 -97 944 -132 926 -121 b 1026 0 926 -65 961 -40 l 908 0 b 663 -160 758 -40 663 -83 l 663 -162 b 844 -268 663 -233 724 -268 z "},"ů":{"ha":1142,"x_min":0,"x_max":0,"o":"m 1026 771 l 756 771 l 756 379 b 564 196 756 285 690 196 b 383 369 432 196 383 279 l 383 771 l 113 771 l 113 271 b 436 -18 113 133 214 -18 l 449 -18 b 758 122 622 -18 728 81 l 758 0 l 1026 0 z m 336 1029 b 569 849 336 933 393 849 b 804 1029 747 849 804 933 b 569 1208 804 1125 744 1208 b 336 1029 396 1208 336 1125 z m 476 1029 b 569 1104 476 1072 504 1104 b 664 1029 635 1104 664 1072 b 569 951 664 989 635 951 b 476 1029 504 951 476 989 z "},"ũ":{"ha":1142,"x_min":0,"x_max":0,"o":"m 1026 771 l 756 771 l 756 379 b 564 196 756 285 690 196 b 383 369 432 196 383 279 l 383 771 l 113 771 l 113 271 b 436 -18 113 133 214 -18 l 449 -18 b 758 122 622 -18 728 81 l 758 0 l 1026 0 z m 829 1107 l 674 1107 l 674 1051 b 654 1021 674 1031 667 1021 b 585 1050 639 1021 625 1029 b 432 1099 519 1083 483 1099 l 429 1099 b 310 963 332 1099 310 1019 l 310 853 l 465 853 l 465 908 b 485 939 465 929 472 939 b 554 910 500 939 514 931 b 707 861 619 876 656 861 l 710 861 b 829 997 807 861 829 940 z "},"ẃ":{"ha":1600,"x_min":0,"x_max":0,"o":"m 647 0 l 808 500 l 978 0 l 1296 0 l 1568 771 l 1311 771 l 1140 236 l 968 771 l 663 771 l 503 236 l 318 771 l 31 771 l 332 0 z m 676 857 l 947 857 l 1101 1064 l 799 1064 z "},"ŵ":{"ha":1600,"x_min":0,"x_max":0,"o":"m 647 0 l 808 500 l 978 0 l 1296 0 l 1568 771 l 1311 771 l 1140 236 l 968 771 l 663 771 l 503 236 l 318 771 l 31 771 l 332 0 z m 975 1064 l 654 1064 l 465 856 l 731 856 l 813 946 l 894 856 l 1165 856 z "},"ẅ":{"ha":1600,"x_min":0,"x_max":0,"o":"m 647 0 l 808 500 l 978 0 l 1296 0 l 1568 771 l 1311 771 l 1140 236 l 968 771 l 663 771 l 503 236 l 318 771 l 31 771 l 332 0 z m 771 1051 l 506 1051 l 506 857 l 771 857 z m 1119 1051 l 854 1051 l 854 857 l 1119 857 z "},"ẁ":{"ha":1600,"x_min":0,"x_max":0,"o":"m 647 0 l 808 500 l 978 0 l 1296 0 l 1568 771 l 1311 771 l 1140 236 l 968 771 l 663 771 l 503 236 l 318 771 l 31 771 l 332 0 z m 821 1064 l 518 1064 l 672 857 l 943 857 z "},"ŷ":{"ha":1046,"x_min":0,"x_max":0,"o":"m 171 -265 l 419 -265 b 668 -78 547 -265 614 -204 l 1021 771 l 749 771 l 536 218 l 322 771 l 25 771 l 356 36 b 381 -39 376 -7 381 -22 l 381 -40 b 340 -72 381 -61 367 -72 l 171 -72 z m 699 1064 l 378 1064 l 189 856 l 454 856 l 536 946 l 618 856 l 889 856 z "},"ỳ":{"ha":1046,"x_min":0,"x_max":0,"o":"m 171 -265 l 419 -265 b 668 -78 547 -265 614 -204 l 1021 771 l 749 771 l 536 218 l 322 771 l 25 771 l 356 36 b 381 -39 376 -7 381 -22 l 381 -40 b 340 -72 381 -61 367 -72 l 171 -72 z m 551 1064 l 249 1064 l 403 857 l 674 857 z "},"ź":{"ha":1025,"x_min":0,"x_max":0,"o":"m 944 0 l 944 211 l 435 211 l 926 589 l 926 771 l 85 771 l 85 568 l 560 568 l 82 186 l 82 0 z m 371 857 l 642 857 l 796 1064 l 493 1064 z "},"ż":{"ha":1025,"x_min":0,"x_max":0,"o":"m 944 0 l 944 211 l 435 211 l 926 589 l 926 771 l 85 771 l 85 568 l 560 568 l 82 186 l 82 0 z m 644 1051 l 368 1051 l 368 857 l 644 857 z "},"ﬀ":{"ha":1331,"x_min":0,"x_max":0,"o":"m 493 0 l 493 576 l 832 576 l 832 0 l 1101 0 l 1101 576 l 1276 576 l 1276 771 l 1101 771 l 1101 819 b 1163 883 1101 865 1119 883 l 1276 883 l 1276 1051 l 1072 1051 b 832 833 879 1051 832 967 l 832 771 l 493 771 l 493 819 b 554 883 493 865 511 883 l 668 883 l 668 1051 l 464 1051 b 224 833 271 1051 224 967 l 224 771 l 53 771 l 53 576 l 224 576 l 224 0 z "},"⅛":{"ha":1753,"x_min":0,"x_max":0,"o":"m 229 776 l 229 440 l 433 440 l 433 1033 l 271 1033 b 67 924 246 961 219 924 l 67 776 z m 1092 1033 l 140 0 l 365 0 l 1308 1033 z m 1301 603 b 982 440 1007 603 982 497 l 982 432 b 1097 313 982 367 1036 325 b 969 182 1025 300 969 247 l 969 172 b 1301 -10 969 107 1001 -10 l 1338 -10 b 1671 172 1633 -10 1671 107 l 1671 182 b 1542 313 1671 249 1614 300 b 1657 432 1601 325 1657 367 l 1657 440 b 1338 603 1657 497 1633 603 z m 1196 425 b 1319 475 1196 451 1207 475 b 1443 425 1429 475 1443 451 l 1443 424 b 1319 372 1443 396 1429 372 b 1196 424 1208 372 1196 396 z m 1182 192 b 1319 244 1182 218 1197 244 b 1457 192 1438 244 1457 218 l 1457 186 b 1319 131 1457 158 1438 131 b 1182 186 1197 131 1182 158 z "},"⅓":{"ha":1750,"x_min":0,"x_max":0,"o":"m 229 776 l 229 440 l 433 440 l 433 1033 l 271 1033 b 67 924 246 961 219 924 l 67 776 z m 1092 1033 l 140 0 l 365 0 l 1308 1033 z m 1333 -10 b 1672 197 1617 -10 1672 99 l 1672 203 b 1558 342 1672 282 1624 326 b 1653 442 1618 353 1653 392 l 1653 447 b 1322 603 1653 511 1624 603 l 1279 603 b 967 421 990 603 967 474 l 967 411 l 1176 411 b 1307 461 1176 422 1190 461 b 1440 415 1424 461 1440 438 l 1440 414 b 1379 379 1440 393 1431 379 l 1217 379 l 1217 243 l 1385 243 b 1450 203 1439 243 1450 225 l 1450 200 b 1313 143 1450 175 1436 143 b 1178 207 1189 143 1182 196 l 960 207 l 960 201 b 1286 -10 960 140 989 -10 z "},"⅜":{"ha":2011,"x_min":0,"x_max":0,"o":"m 440 432 b 779 639 724 432 779 540 l 779 644 b 665 783 779 724 731 768 b 760 883 725 794 760 833 l 760 889 b 429 1044 760 953 731 1044 l 386 1044 b 74 863 97 1044 74 915 l 74 853 l 283 853 b 414 903 283 864 297 903 b 547 857 531 903 547 879 l 547 856 b 486 821 547 835 538 821 l 324 821 l 324 685 l 492 685 b 557 644 546 685 557 667 l 557 642 b 419 585 557 617 543 585 b 285 649 296 585 289 638 l 67 649 l 67 643 b 393 432 67 582 96 432 z m 1364 1033 l 413 0 l 638 0 l 1581 1033 z m 1560 603 b 1240 440 1265 603 1240 497 l 1240 432 b 1356 313 1240 367 1294 325 b 1228 182 1283 300 1228 247 l 1228 172 b 1560 -10 1228 107 1260 -10 l 1596 -10 b 1929 172 1892 -10 1929 107 l 1929 182 b 1800 313 1929 249 1872 300 b 1915 432 1860 325 1915 367 l 1915 440 b 1596 603 1915 497 1892 603 z m 1454 425 b 1578 475 1454 451 1465 475 b 1701 425 1688 475 1701 451 l 1701 424 b 1578 372 1701 396 1688 372 b 1454 424 1467 372 1454 396 z m 1440 192 b 1578 244 1440 218 1456 244 b 1715 192 1696 244 1715 218 l 1715 186 b 1578 131 1715 158 1696 131 b 1440 186 1456 131 1440 158 z "},"⅝":{"ha":1990,"x_min":0,"x_max":0,"o":"m 1343 1033 l 392 0 l 617 0 l 1560 1033 z m 465 431 b 757 646 711 431 757 550 l 757 650 b 499 836 757 749 710 836 l 492 836 b 310 786 372 836 321 797 l 310 892 l 721 892 l 721 1033 l 104 1033 l 104 674 l 310 674 b 428 711 310 679 325 711 b 546 647 524 711 546 678 l 546 642 b 431 576 546 608 528 576 b 310 614 322 576 314 607 l 93 614 l 93 613 b 400 431 93 563 122 431 z m 1539 603 b 1219 440 1244 603 1219 497 l 1219 432 b 1335 313 1219 367 1274 325 b 1207 182 1263 300 1207 247 l 1207 172 b 1539 -10 1207 107 1239 -10 l 1575 -10 b 1908 172 1871 -10 1908 107 l 1908 182 b 1779 313 1908 249 1851 300 b 1894 432 1839 325 1894 367 l 1894 440 b 1575 603 1894 497 1871 603 z m 1433 425 b 1557 475 1433 451 1444 475 b 1681 425 1667 475 1681 451 l 1681 424 b 1557 372 1681 396 1667 372 b 1433 424 1446 372 1433 396 z m 1419 192 b 1557 244 1419 218 1435 244 b 1694 192 1675 244 1694 218 l 1694 186 b 1557 131 1694 158 1675 131 b 1419 186 1435 131 1419 158 z "},"⅔":{"ha":2054,"x_min":0,"x_max":0,"o":"m 1396 1033 l 444 0 l 669 0 l 1613 1033 z m 756 440 l 756 600 l 265 600 l 265 601 b 454 660 265 618 304 638 b 756 849 660 693 756 729 l 756 856 b 433 1043 756 956 707 1043 l 406 1043 b 85 839 122 1043 85 907 l 85 833 l 300 833 b 424 899 300 851 317 899 b 536 853 518 899 536 881 b 411 793 536 825 515 815 b 76 510 107 731 76 617 l 76 440 z m 1638 -10 b 1976 197 1921 -10 1976 99 l 1976 203 b 1863 342 1976 282 1928 326 b 1957 442 1922 353 1957 392 l 1957 447 b 1626 603 1957 511 1928 603 l 1583 603 b 1271 421 1294 603 1271 474 l 1271 411 l 1481 411 b 1611 461 1481 422 1494 461 b 1744 415 1728 461 1744 438 l 1744 414 b 1683 379 1744 393 1735 379 l 1521 379 l 1521 243 l 1689 243 b 1754 203 1743 243 1754 225 l 1754 200 b 1617 143 1754 175 1740 143 b 1482 207 1493 143 1486 196 l 1264 207 l 1264 201 b 1590 -10 1264 140 1293 -10 z "},"⅞":{"ha":1872,"x_min":0,"x_max":0,"o":"m 1225 1033 l 274 0 l 499 0 l 1442 1033 z m 86 1033 l 86 772 l 292 772 l 292 886 l 546 886 b 446 761 546 871 513 835 b 314 504 349 649 314 596 l 314 440 l 547 440 l 547 447 b 631 725 547 540 553 607 b 751 892 685 807 731 868 l 751 1033 z m 1421 603 b 1101 440 1126 603 1101 497 l 1101 432 b 1217 313 1101 367 1156 325 b 1089 182 1144 300 1089 247 l 1089 172 b 1421 -10 1089 107 1121 -10 l 1457 -10 b 1790 172 1753 -10 1790 107 l 1790 182 b 1661 313 1790 249 1733 300 b 1776 432 1721 325 1776 367 l 1776 440 b 1457 603 1776 497 1753 603 z m 1315 425 b 1439 475 1315 451 1326 475 b 1563 425 1549 475 1563 451 l 1563 424 b 1439 372 1563 396 1549 372 b 1315 424 1328 372 1315 396 z m 1301 192 b 1439 244 1301 218 1317 244 b 1576 192 1557 244 1576 218 l 1576 186 b 1439 131 1576 158 1557 131 b 1301 186 1317 131 1301 158 z "},"′":{"ha":449,"x_min":0,"x_max":0,"o":"m 372 1033 l 143 1033 l 76 621 l 304 621 z "},"″":{"ha":815,"x_min":0,"x_max":0,"o":"m 372 1033 l 143 1033 l 76 621 l 304 621 z m 739 1033 l 511 1033 l 442 621 l 668 621 z "},"Ⓟ":{"ha":1499,"x_min":0,"x_max":0,"o":"m 1417 538 b 767 1049 1417 799 1263 1049 l 732 1049 b 82 538 236 1049 82 799 l 82 499 b 731 -15 82 231 236 -15 l 768 -15 b 1417 499 1263 -15 1417 231 z m 735 104 b 231 508 344 104 231 304 l 231 525 b 735 929 231 751 342 929 l 764 929 b 1268 525 1157 929 1268 751 l 1268 508 b 764 104 1268 304 1153 104 z m 860 390 b 1118 600 1054 390 1118 478 l 1118 608 b 860 818 1118 731 1054 818 l 449 818 l 449 218 l 649 218 l 649 390 z m 649 674 l 822 674 b 913 607 885 674 913 650 l 913 603 b 822 535 913 557 882 535 l 649 535 z "},"":{"ha":900,"x_min":0,"x_max":0,"o":"m 435 1043 b 83 751 142 1043 83 857 l 83 726 b 435 431 83 621 142 431 l 465 431 b 817 726 761 431 817 621 l 817 751 b 465 1043 817 857 760 1043 z m 604 736 b 449 594 604 679 569 594 b 296 736 331 594 296 681 l 296 746 b 449 882 296 803 328 882 b 604 746 572 882 604 803 z "},"":{"ha":550,"x_min":0,"x_max":0,"o":"m 229 776 l 229 440 l 433 440 l 433 1033 l 271 1033 b 67 924 246 961 219 924 l 67 776 z "},"":{"ha":836,"x_min":0,"x_max":0,"o":"m 756 440 l 756 600 l 265 600 l 265 601 b 454 660 265 618 304 638 b 756 849 660 693 756 729 l 756 856 b 433 1043 756 956 707 1043 l 406 1043 b 85 839 122 1043 85 907 l 85 833 l 300 833 b 424 899 300 851 317 899 b 536 853 518 899 536 881 b 411 793 536 825 515 815 b 76 510 107 731 76 617 l 76 440 z "},"":{"ha":857,"x_min":0,"x_max":0,"o":"m 440 431 b 779 638 724 431 779 539 l 779 643 b 665 782 779 722 731 767 b 760 882 725 793 760 832 l 760 888 b 429 1043 760 951 731 1043 l 386 1043 b 74 861 97 1043 74 914 l 74 851 l 283 851 b 414 901 283 863 297 901 b 547 856 531 901 547 878 l 547 854 b 486 819 547 833 538 819 l 324 819 l 324 683 l 492 683 b 557 643 546 683 557 665 l 557 640 b 419 583 557 615 543 583 b 285 647 296 583 289 636 l 67 647 l 67 642 b 393 431 67 581 96 431 z "},"":{"ha":826,"x_min":0,"x_max":0,"o":"m 65 560 l 443 560 l 443 440 l 644 440 l 644 560 l 763 560 l 763 703 l 644 703 l 644 1035 l 415 1035 l 240 857 l 65 679 z m 443 893 l 443 703 l 260 703 z "},"":{"ha":833,"x_min":0,"x_max":0,"o":"m 465 431 b 757 646 711 431 757 550 l 757 650 b 499 836 757 749 710 836 l 492 836 b 310 786 372 836 321 797 l 310 892 l 721 892 l 721 1033 l 104 1033 l 104 674 l 310 674 b 428 711 310 679 325 711 b 546 647 524 711 546 678 l 546 642 b 431 576 546 608 528 576 b 310 614 322 576 314 607 l 93 614 l 93 613 b 400 431 93 563 122 431 z "},"":{"ha":878,"x_min":0,"x_max":0,"o":"m 474 431 b 804 632 736 431 804 536 l 804 639 b 510 822 804 735 749 822 l 501 822 b 288 769 347 822 303 781 l 288 772 b 442 903 288 824 314 903 b 571 863 543 903 564 874 l 778 863 l 778 865 b 461 1043 778 929 733 1043 l 418 1043 b 83 746 136 1043 83 860 l 83 726 b 424 431 83 599 139 431 z m 308 638 b 451 696 308 667 331 696 b 592 638 571 696 592 664 l 592 636 b 451 576 592 608 571 576 b 308 636 331 576 308 608 z "},"":{"ha":822,"x_min":0,"x_max":0,"o":"m 86 1033 l 86 772 l 292 772 l 292 886 l 546 886 b 446 761 546 871 513 835 b 314 504 349 649 314 596 l 314 440 l 547 440 l 547 447 b 631 725 547 540 553 607 b 751 892 685 807 731 868 l 751 1033 z "},"":{"ha":867,"x_min":0,"x_max":0,"o":"m 415 1043 b 96 881 121 1043 96 938 l 96 872 b 211 753 96 807 150 765 b 83 622 139 740 83 688 l 83 613 b 415 431 83 547 115 431 l 451 431 b 785 613 747 431 785 547 l 785 622 b 656 753 785 689 728 740 b 771 872 715 765 771 807 l 771 881 b 451 1043 771 938 747 1043 z m 310 865 b 433 915 310 892 321 915 b 557 865 543 915 557 892 l 557 864 b 433 813 557 836 543 813 b 310 864 322 813 310 836 z m 296 632 b 433 685 296 658 311 685 b 571 632 551 685 571 658 l 571 626 b 433 571 571 599 551 571 b 296 626 311 571 296 599 z "},"":{"ha":878,"x_min":0,"x_max":0,"o":"m 567 836 b 426 781 567 808 543 781 b 289 836 310 781 289 808 l 289 839 b 426 899 289 867 310 899 b 567 839 543 899 567 865 z m 463 431 b 794 733 744 431 794 618 l 794 753 b 451 1043 794 878 735 1043 l 400 1043 b 74 843 136 1043 74 938 l 74 835 b 372 657 74 738 133 657 l 382 657 b 588 706 528 657 569 694 l 588 703 b 436 576 588 654 564 576 b 310 615 338 576 318 603 l 100 615 l 100 613 b 419 431 100 553 144 431 z "},"":{"ha":900,"x_min":0,"x_max":0,"o":"m 435 603 b 83 311 142 603 83 417 l 83 286 b 435 -10 83 181 142 -10 l 465 -10 b 817 286 761 -10 817 181 l 817 311 b 465 603 817 417 760 603 z m 604 296 b 449 154 604 239 569 154 b 296 296 331 154 296 240 l 296 306 b 449 442 296 363 328 442 b 604 306 572 442 604 363 z "},"":{"ha":550,"x_min":0,"x_max":0,"o":"m 229 336 l 229 0 l 433 0 l 433 593 l 271 593 b 67 483 246 521 219 483 l 67 336 z "},"":{"ha":836,"x_min":0,"x_max":0,"o":"m 756 0 l 756 160 l 265 160 l 265 161 b 454 219 265 178 304 197 b 756 408 660 253 756 289 l 756 415 b 433 603 756 515 707 603 l 406 603 b 85 399 122 603 85 467 l 85 393 l 300 393 b 424 458 300 411 317 458 b 536 413 518 458 536 440 b 411 353 536 385 515 375 b 76 69 107 290 76 176 l 76 0 z "},"":{"ha":857,"x_min":0,"x_max":0,"o":"m 440 -10 b 779 197 724 -10 779 99 l 779 203 b 665 342 779 282 731 326 b 760 442 725 353 760 392 l 760 447 b 429 603 760 511 731 603 l 386 603 b 74 421 97 603 74 474 l 74 411 l 283 411 b 414 461 283 422 297 461 b 547 415 531 461 547 438 l 547 414 b 486 379 547 393 538 379 l 324 379 l 324 243 l 492 243 b 557 203 546 243 557 225 l 557 200 b 419 143 557 175 543 143 b 285 207 296 143 289 196 l 67 207 l 67 201 b 393 -10 67 140 96 -10 z "},"":{"ha":826,"x_min":0,"x_max":0,"o":"m 65 119 l 443 119 l 443 0 l 644 0 l 644 119 l 763 119 l 763 263 l 644 263 l 644 594 l 415 594 l 240 417 l 65 239 z m 443 453 l 443 263 l 260 263 z "},"":{"ha":833,"x_min":0,"x_max":0,"o":"m 465 -10 b 757 206 711 -10 757 110 l 757 210 b 499 396 757 308 710 396 l 492 396 b 310 346 372 396 321 357 l 310 451 l 721 451 l 721 593 l 104 593 l 104 233 l 310 233 b 428 271 310 239 325 271 b 546 207 524 271 546 238 l 546 201 b 431 136 546 168 528 136 b 310 174 322 136 314 167 l 93 174 l 93 172 b 400 -10 93 122 122 -10 z "},"":{"ha":878,"x_min":0,"x_max":0,"o":"m 474 -10 b 804 192 736 -10 804 96 l 804 199 b 510 382 804 294 749 382 l 501 382 b 288 329 347 382 303 340 l 288 332 b 442 463 288 383 314 463 b 571 422 543 463 564 433 l 778 422 l 778 425 b 461 603 778 489 733 603 l 418 603 b 83 306 136 603 83 419 l 83 286 b 424 -10 83 158 139 -10 z m 308 197 b 451 256 308 226 331 256 b 592 197 571 256 592 224 l 592 196 b 451 136 592 168 571 136 b 308 196 331 136 308 168 z "},"":{"ha":822,"x_min":0,"x_max":0,"o":"m 86 593 l 86 332 l 292 332 l 292 446 l 546 446 b 446 321 546 431 513 394 b 314 64 349 208 314 156 l 314 0 l 547 0 l 547 7 b 631 285 547 100 553 167 b 751 451 685 367 731 428 l 751 593 z "},"":{"ha":867,"x_min":0,"x_max":0,"o":"m 415 601 b 96 439 121 601 96 496 l 96 431 b 211 311 96 365 150 324 b 83 181 139 299 83 246 l 83 171 b 415 -11 83 106 115 -11 l 451 -11 b 785 171 747 -11 785 106 l 785 181 b 656 311 785 247 728 299 b 771 431 715 324 771 365 l 771 439 b 451 601 771 496 747 601 z m 310 424 b 433 474 310 450 321 474 b 557 424 543 474 557 450 l 557 422 b 433 371 557 394 543 371 b 310 422 322 371 310 394 z m 296 190 b 433 243 296 217 311 243 b 571 190 551 243 571 217 l 571 185 b 433 129 571 157 551 129 b 296 185 311 129 296 157 z "},"":{"ha":878,"x_min":0,"x_max":0,"o":"m 567 396 b 426 340 567 368 543 340 b 289 396 310 340 289 368 l 289 399 b 426 458 289 426 310 458 b 567 399 543 458 567 425 z m 463 -10 b 794 293 744 -10 794 178 l 794 313 b 451 603 794 438 735 603 l 400 603 b 74 403 136 603 74 497 l 74 394 b 372 217 74 297 133 217 l 382 217 b 588 265 528 217 569 254 l 588 263 b 436 136 588 214 564 136 b 310 175 338 136 318 163 l 100 175 l 100 172 b 419 -10 100 113 144 -10 z "},"₀":{"ha":990,"x_min":0,"x_max":0,"o":"m 478 439 b 90 118 151 439 90 236 l 90 92 b 478 -235 90 -25 151 -235 l 513 -235 b 900 92 840 -235 900 -25 l 900 118 b 513 439 900 236 840 439 z m 494 -58 b 322 100 357 -58 322 38 l 322 113 b 494 264 322 178 356 264 b 668 113 633 264 668 178 l 668 100 b 494 -58 668 33 632 -58 z "},"₁":{"ha":603,"x_min":0,"x_max":0,"o":"m 301 429 b 74 308 271 350 246 308 l 74 146 l 256 146 l 256 -225 l 479 -225 l 479 429 z "},"₂":{"ha":918,"x_min":0,"x_max":0,"o":"m 831 -225 l 831 -46 l 286 -46 l 286 -44 b 499 21 286 -22 331 -6 b 831 226 749 58 831 107 l 831 235 b 475 442 831 342 781 442 l 446 442 b 92 218 131 442 92 290 l 92 214 l 322 214 b 467 286 322 235 339 286 b 593 235 574 286 593 263 b 451 168 593 204 567 194 b 83 -149 119 101 83 -29 l 83 -225 z "},"₃":{"ha":944,"x_min":0,"x_max":0,"o":"m 485 -235 b 860 -8 797 -235 860 -119 l 860 -3 b 732 153 860 86 803 136 b 838 263 797 164 838 207 l 838 268 b 474 439 838 340 803 439 l 426 439 b 81 240 108 439 81 299 l 81 229 l 308 229 b 456 283 313 244 317 283 b 608 235 590 283 608 260 l 608 232 b 540 193 608 211 596 193 l 354 193 l 354 42 l 547 42 b 617 -3 604 42 617 24 l 617 -6 b 463 -68 617 -33 603 -68 b 311 3 324 -68 311 -10 l 74 3 l 74 -4 b 432 -235 74 -69 107 -235 z "},"₄":{"ha":913,"x_min":0,"x_max":0,"o":"m 72 -96 l 493 -96 l 493 -225 l 710 -225 l 710 -96 l 842 -96 l 842 61 l 710 61 l 710 431 l 461 431 b 267 232 389 356 324 289 l 72 35 z m 493 274 l 493 61 l 288 61 z "},"₅":{"ha":915,"x_min":0,"x_max":0,"o":"m 510 -235 b 832 1 779 -235 832 -106 l 832 8 b 547 211 832 115 778 211 l 540 211 b 333 157 404 211 344 168 l 333 272 l 792 272 l 792 429 l 113 429 l 113 32 l 333 32 b 468 75 338 39 349 75 b 603 3 579 75 603 38 l 603 -3 b 472 -75 603 -39 583 -75 b 333 -33 350 -75 338 -44 l 100 -33 l 100 -35 b 438 -235 100 -90 132 -235 z "},"₆":{"ha":964,"x_min":0,"x_max":0,"o":"m 521 -236 b 883 -14 811 -236 883 -122 l 883 -7 b 563 193 883 103 825 193 l 551 193 b 314 138 382 193 331 151 l 314 140 b 486 282 314 196 340 282 b 629 239 600 282 621 251 l 857 239 l 857 242 b 507 438 857 311 807 438 l 460 438 b 90 113 149 438 90 239 l 90 92 b 465 -236 90 -51 153 -236 z m 338 -8 b 496 56 338 25 361 56 b 653 -8 629 56 653 22 l 653 -10 b 496 -78 653 -42 629 -78 b 338 -10 361 -78 338 -40 z "},"₇":{"ha":908,"x_min":0,"x_max":0,"o":"m 93 429 l 93 135 l 315 135 l 315 265 l 606 265 b 494 126 606 250 567 210 b 349 -157 383 0 349 -57 l 349 -225 l 600 -225 l 600 -217 b 693 86 600 -114 606 -43 b 831 271 754 176 810 244 l 831 429 z "},"₈":{"ha":951,"x_min":0,"x_max":0,"o":"m 457 439 b 106 261 131 439 106 325 l 106 251 b 233 119 106 181 165 135 b 90 -25 151 104 90 49 l 90 -37 b 457 -235 90 -108 128 -235 l 496 -235 b 863 -37 824 -235 863 -108 l 863 -25 b 719 119 863 51 801 104 b 849 251 788 135 849 181 l 849 261 b 496 439 849 325 821 439 z m 336 243 b 476 299 336 271 350 299 b 615 243 603 299 615 271 l 615 242 b 476 185 615 213 603 185 b 336 242 350 185 336 213 z m 321 -14 b 476 44 321 15 338 44 b 633 -14 613 44 633 15 l 633 -19 b 476 -82 633 -49 613 -82 b 321 -19 339 -82 321 -49 z "},"₉":{"ha":964,"x_min":0,"x_max":0,"o":"m 626 210 b 468 146 626 176 603 146 b 311 210 335 146 311 179 l 311 211 b 468 279 311 243 335 279 b 626 211 603 279 626 242 z m 507 -236 b 874 96 817 -236 874 -32 l 874 117 b 494 438 874 257 811 438 l 439 438 b 81 217 149 438 81 324 l 81 208 b 407 10 81 97 144 10 l 418 10 b 650 64 581 10 632 53 l 650 61 b 478 -81 650 7 621 -81 b 335 -37 364 -81 343 -50 l 107 -37 l 107 -40 b 460 -236 107 -106 156 -236 z "},"⁰":{"ha":990,"x_min":0,"x_max":0,"o":"m 478 1061 b 90 740 151 1061 90 858 l 90 714 b 478 388 90 597 151 388 l 513 388 b 900 714 840 388 900 597 l 900 740 b 513 1061 900 858 840 1061 z m 494 564 b 322 722 357 564 322 660 l 322 735 b 494 886 322 800 356 886 b 668 735 633 886 668 800 l 668 722 b 494 564 668 656 632 564 z "},"¹":{"ha":603,"x_min":0,"x_max":0,"o":"m 301 1051 b 74 931 271 972 246 931 l 74 768 l 256 768 l 256 397 l 479 397 l 479 1051 z "},"²":{"ha":918,"x_min":0,"x_max":0,"o":"m 831 397 l 831 576 l 286 576 l 286 578 b 499 643 286 600 331 617 b 831 849 749 681 831 729 l 831 857 b 475 1064 831 964 781 1064 l 446 1064 b 92 840 131 1064 92 913 l 92 836 l 322 836 b 467 908 322 857 339 908 b 593 857 574 908 593 885 b 451 790 593 826 567 817 b 83 474 119 724 83 593 l 83 397 z "},"³":{"ha":944,"x_min":0,"x_max":0,"o":"m 485 388 b 860 614 797 388 860 503 l 860 619 b 732 775 860 708 803 758 b 838 885 797 786 838 829 l 838 890 b 474 1061 838 963 803 1061 l 426 1061 b 81 863 108 1061 81 921 l 81 851 l 308 851 b 456 906 313 867 317 906 b 608 857 590 906 608 882 l 608 854 b 540 815 608 833 596 815 l 354 815 l 354 664 l 547 664 b 617 619 604 664 617 646 l 617 617 b 463 554 617 589 603 554 b 311 625 324 554 311 613 l 74 625 l 74 618 b 432 388 74 553 107 388 z "},"⁴":{"ha":913,"x_min":0,"x_max":0,"o":"m 72 526 l 493 526 l 493 397 l 710 397 l 710 526 l 842 526 l 842 683 l 710 683 l 710 1053 l 461 1053 b 267 854 389 978 324 911 l 72 657 z m 493 896 l 493 683 l 288 683 z "},"⁵":{"ha":915,"x_min":0,"x_max":0,"o":"m 510 388 b 832 624 779 388 832 517 l 832 631 b 547 833 832 738 778 833 l 540 833 b 333 779 404 833 344 790 l 333 894 l 792 894 l 792 1051 l 113 1051 l 113 654 l 333 654 b 468 697 338 661 349 697 b 603 625 579 697 603 660 l 603 619 b 472 547 603 583 583 547 b 333 589 350 547 338 578 l 100 589 l 100 588 b 438 388 100 532 132 388 z "},"⁶":{"ha":964,"x_min":0,"x_max":0,"o":"m 521 386 b 883 608 811 386 883 500 l 883 615 b 563 815 883 725 825 815 l 551 815 b 314 760 382 815 331 774 l 314 763 b 486 904 314 818 340 904 b 629 861 600 904 621 874 l 857 861 l 857 864 b 507 1060 857 933 807 1060 l 460 1060 b 90 735 149 1060 90 861 l 90 714 b 465 386 90 571 153 386 z m 338 614 b 496 678 338 647 361 678 b 653 614 629 678 653 644 l 653 613 b 496 544 653 581 629 544 b 338 613 361 544 338 582 z "},"⁷":{"ha":908,"x_min":0,"x_max":0,"o":"m 93 1051 l 93 757 l 315 757 l 315 888 l 606 888 b 494 749 606 872 567 832 b 349 465 383 622 349 565 l 349 397 l 600 397 l 600 406 b 693 708 600 508 606 579 b 831 893 754 799 810 867 l 831 1051 z "},"⁸":{"ha":951,"x_min":0,"x_max":0,"o":"m 457 1061 b 106 883 131 1061 106 947 l 106 874 b 233 742 106 803 165 757 b 90 597 151 726 90 671 l 90 585 b 457 388 90 514 128 388 l 496 388 b 863 585 824 388 863 514 l 863 597 b 719 742 863 674 801 726 b 849 874 788 757 849 803 l 849 883 b 496 1061 849 947 821 1061 z m 336 865 b 476 921 336 893 350 921 b 615 865 603 921 615 893 l 615 864 b 476 807 615 835 603 807 b 336 864 350 807 336 835 z m 321 608 b 476 667 321 638 338 667 b 633 608 613 667 633 638 l 633 603 b 476 540 633 574 613 540 b 321 603 339 540 321 574 z "},"⁹":{"ha":964,"x_min":0,"x_max":0,"o":"m 626 832 b 468 768 626 799 603 768 b 311 832 335 768 311 801 l 311 833 b 468 901 311 865 335 901 b 626 833 603 901 626 864 z m 507 386 b 874 718 817 386 874 590 l 874 739 b 494 1060 874 879 811 1060 l 439 1060 b 81 839 149 1060 81 946 l 81 831 b 407 632 81 719 144 632 l 418 632 b 650 686 581 632 632 675 l 650 683 b 478 542 650 629 621 542 b 335 585 364 542 343 572 l 107 585 l 107 582 b 460 386 107 517 156 386 z "},"ȷ":{"ha":501,"x_min":0,"x_max":0,"o":"m -22 -64 l -22 -265 l 225 -265 b 386 -68 332 -265 386 -196 l 386 771 l 115 771 l 115 -3 b 61 -64 115 -47 101 -64 z "},"ʼ":{"ha":497,"x_min":0,"x_max":0,"o":"m 340 607 b 410 856 367 660 410 756 l 410 1033 l 88 1033 l 88 803 l 233 803 b 158 607 222 743 190 664 z "},"Ђ":{"ha":1451,"x_min":0,"x_max":0,"o":"m 1368 240 b 868 624 1368 493 1174 624 l 836 624 b 593 604 751 624 654 615 l 593 797 l 954 797 l 954 1033 l 28 1033 l 28 797 l 307 797 l 307 0 l 593 0 l 593 376 b 785 396 654 392 714 396 l 800 396 b 1069 240 972 396 1069 347 l 1069 231 b 856 75 1069 138 1013 75 l 808 75 l 808 -168 l 869 -168 b 1368 229 1176 -168 1368 -33 z "},"Ѓ":{"ha":1024,"x_min":0,"x_max":0,"o":"m 128 0 l 414 0 l 414 806 l 989 806 l 989 1033 l 128 1033 z m 690 1118 l 838 1324 l 529 1324 l 403 1118 z "},"Є":{"ha":1399,"x_min":0,"x_max":0,"o":"m 1321 404 l 1026 404 b 713 215 1022 371 988 215 b 388 414 518 215 421 311 l 858 414 l 858 633 l 388 633 b 711 819 421 738 517 819 b 1026 638 983 819 1022 667 l 1321 638 l 1321 640 b 743 1049 1321 836 1176 1049 l 679 1049 b 82 540 207 1049 82 756 l 82 499 b 679 -15 82 288 207 -15 l 743 -15 b 1321 400 1182 -15 1321 211 z "},"Ѕ":{"ha":1285,"x_min":0,"x_max":0,"o":"m 667 -18 b 1199 326 1129 -18 1199 175 l 1199 343 b 742 646 1199 511 1110 631 l 599 651 b 399 750 436 658 399 697 b 625 842 399 807 442 842 l 639 842 b 871 728 839 842 864 774 l 1178 728 l 1178 743 b 658 1046 1178 879 1115 1046 l 611 1046 b 97 740 183 1046 97 901 l 97 728 b 544 426 97 572 206 438 l 682 422 b 893 315 853 415 893 378 b 650 192 893 256 865 192 l 640 192 b 397 340 421 192 401 294 l 86 340 l 86 325 b 626 -18 86 201 142 -18 z "},"І":{"ha":542,"x_min":0,"x_max":0,"o":"m 414 1033 l 128 1033 l 128 0 l 414 0 z "},"Ј":{"ha":1206,"x_min":0,"x_max":0,"o":"m 589 -17 b 1085 481 1013 -17 1085 293 l 1085 1033 l 799 1033 l 799 481 b 568 228 799 349 750 228 l 563 228 b 353 443 386 228 357 371 l 57 443 l 57 435 b 543 -17 57 267 142 -17 z "},"Љ":{"ha":2065,"x_min":0,"x_max":0,"o":"m 194 325 b 58 243 178 282 143 243 l 49 243 l 49 0 l 151 0 b 451 196 358 0 418 97 b 501 806 489 308 501 546 l 889 806 l 889 0 l 1596 0 b 2017 344 1913 0 2017 149 l 2017 360 b 1596 700 2017 556 1917 700 l 1175 700 l 1175 1033 l 229 1033 b 194 325 229 526 221 397 z m 1175 228 l 1175 472 l 1574 472 b 1719 357 1672 472 1719 428 l 1719 347 b 1574 228 1719 276 1672 228 z "},"Њ":{"ha":2069,"x_min":0,"x_max":0,"o":"m 893 0 l 1600 0 b 2021 331 1917 0 2021 142 l 2021 346 b 1600 672 2021 535 1921 672 l 1179 672 l 1179 1033 l 893 1033 l 893 672 l 414 672 l 414 1033 l 128 1033 l 128 0 l 414 0 l 414 438 l 893 438 z m 1179 444 l 1578 444 b 1724 343 1676 444 1724 404 l 1724 333 b 1578 228 1724 271 1676 228 l 1179 228 z "},"Ћ":{"ha":1453,"x_min":0,"x_max":0,"o":"m 828 396 b 1069 185 996 396 1069 357 l 1069 0 l 1356 0 l 1356 201 b 872 624 1356 546 1167 624 l 844 624 b 593 593 771 624 664 608 l 593 797 l 954 797 l 954 1033 l 28 1033 l 28 797 l 307 797 l 307 0 l 593 0 l 593 367 b 813 396 665 388 742 396 z "},"Ќ":{"ha":1282,"x_min":0,"x_max":0,"o":"m 414 0 l 414 486 l 911 0 l 1285 0 l 717 560 l 1261 1033 l 897 1033 l 414 608 l 414 1033 l 128 1033 l 128 0 z m 785 1118 l 932 1324 l 624 1324 l 497 1118 z "},"Ў":{"ha":1281,"x_min":0,"x_max":0,"o":"m 1283 1033 l 968 1033 l 664 478 l 329 1033 l -3 1033 l 450 308 b 469 261 465 285 469 276 l 469 260 b 444 242 469 247 461 242 l 265 242 l 265 0 l 443 0 b 824 229 654 0 735 78 z m 678 1111 b 939 1333 879 1111 939 1261 l 939 1338 l 738 1338 b 658 1264 733 1315 724 1264 b 575 1338 589 1264 579 1315 l 372 1338 l 372 1333 b 636 1111 372 1261 415 1111 z "},"Џ":{"ha":1326,"x_min":0,"x_max":0,"o":"m 1199 1033 l 913 1033 l 913 228 l 414 228 l 414 1033 l 128 1033 l 128 0 l 528 0 l 528 -174 l 799 -174 l 799 0 l 1199 0 z "},"А":{"ha":1351,"x_min":0,"x_max":0,"o":"m 849 404 l 479 404 l 661 825 z m 1029 0 l 1336 0 l 857 1033 l 474 1033 l 15 0 l 303 0 l 386 192 l 944 192 z "},"Б":{"ha":1339,"x_min":0,"x_max":0,"o":"m 128 0 l 849 0 b 1269 331 1165 0 1269 142 l 1269 346 b 849 672 1269 535 1169 672 l 414 672 l 414 806 l 1194 806 l 1194 1033 l 128 1033 z m 414 228 l 414 444 l 826 444 b 972 343 925 444 972 404 l 972 333 b 826 228 972 271 925 228 z "},"В":{"ha":1375,"x_min":0,"x_max":0,"o":"m 128 0 l 886 0 b 1303 299 1218 0 1303 158 l 1303 314 b 1061 569 1303 481 1178 550 b 1251 774 1139 581 1251 643 l 1251 789 b 882 1033 1251 904 1178 1033 l 128 1033 z m 840 818 b 953 726 925 818 953 776 l 953 724 b 840 633 953 675 928 633 l 414 633 l 414 818 z m 863 431 b 992 336 963 431 992 388 l 992 331 b 863 226 992 279 963 226 l 414 226 l 414 431 z "},"Г":{"ha":1024,"x_min":0,"x_max":0,"o":"m 128 0 l 414 0 l 414 806 l 989 806 l 989 1033 l 128 1033 z "},"Д":{"ha":1428,"x_min":0,"x_max":0,"o":"m 21 228 l 21 -174 l 293 -174 l 293 0 l 1121 0 l 1121 -174 l 1393 -174 l 1393 228 l 1226 228 l 1226 1033 l 240 1033 b 125 228 240 550 196 357 z m 415 228 b 513 806 464 326 513 524 l 940 806 l 940 228 z "},"Е":{"ha":1183,"x_min":0,"x_max":0,"o":"m 128 1033 l 128 0 l 1082 0 l 1082 228 l 410 228 l 410 407 l 1053 407 l 1053 640 l 410 640 l 410 808 l 1074 808 l 1074 1033 z "},"Ж":{"ha":1849,"x_min":0,"x_max":0,"o":"m 776 0 l 1063 0 l 1063 456 l 1490 0 l 1856 0 l 1339 560 l 1832 1033 l 1476 1033 l 1063 638 l 1063 1033 l 776 1033 l 776 638 l 363 1033 l 0 1033 l 507 547 l -7 0 l 349 0 l 776 456 z "},"З":{"ha":1321,"x_min":0,"x_max":0,"o":"m 1256 311 b 1025 550 1256 456 1136 528 b 1224 775 1136 579 1224 643 l 1224 785 b 686 1046 1224 958 1035 1046 l 642 1046 b 86 718 354 1046 86 964 l 86 697 l 392 697 b 669 842 396 814 521 842 b 926 726 851 842 926 814 b 754 636 926 649 838 636 l 471 636 l 471 432 l 769 432 b 958 321 904 432 958 399 b 704 192 958 238 876 192 b 383 364 497 192 383 236 l 78 364 l 78 347 b 656 -18 78 69 361 -18 l 689 -18 b 1256 297 1050 -18 1256 76 z "},"И":{"ha":1432,"x_min":0,"x_max":0,"o":"m 1018 0 l 1304 0 l 1304 1033 l 1018 1033 l 414 339 l 414 1033 l 128 1033 l 128 0 l 414 0 l 1018 694 z "},"Й":{"ha":1432,"x_min":0,"x_max":0,"o":"m 1018 0 l 1304 0 l 1304 1033 l 1018 1033 l 414 339 l 414 1033 l 128 1033 l 128 0 l 414 0 l 1018 694 z m 726 1111 b 988 1333 928 1111 988 1261 l 988 1338 l 786 1338 b 707 1264 782 1315 772 1264 b 624 1338 638 1264 628 1315 l 421 1338 l 421 1333 b 685 1111 421 1261 464 1111 z "},"К":{"ha":1282,"x_min":0,"x_max":0,"o":"m 911 0 l 1285 0 l 717 560 l 1261 1033 l 897 1033 l 414 608 l 414 1033 l 128 1033 l 128 0 l 414 0 l 414 486 z "},"Л":{"ha":1358,"x_min":0,"x_max":0,"o":"m 944 0 l 1231 0 l 1231 1033 l 229 1033 b 194 325 229 496 222 397 b 58 243 178 282 143 243 l 49 243 l 49 0 l 151 0 b 450 196 357 0 417 97 b 500 806 488 308 500 524 l 944 806 z "},"М":{"ha":1661,"x_min":0,"x_max":0,"o":"m 128 0 l 403 0 l 403 676 l 717 0 l 940 0 l 1254 676 l 1254 0 l 1533 0 l 1533 1033 l 1176 1033 l 838 333 l 508 1033 l 128 1033 z "},"Н":{"ha":1404,"x_min":0,"x_max":0,"o":"m 990 0 l 1276 0 l 1276 1033 l 990 1033 l 990 650 l 414 650 l 414 1033 l 128 1033 l 128 0 l 414 0 l 414 415 l 990 415 z "},"О":{"ha":1467,"x_min":0,"x_max":0,"o":"m 703 1050 b 82 540 219 1050 82 765 l 82 499 b 703 -17 82 276 219 -17 l 764 -17 b 1385 499 1247 -17 1385 276 l 1385 540 b 764 1050 1385 767 1247 1050 z m 1088 510 b 733 221 1088 385 1024 221 b 379 510 449 221 379 385 l 379 529 b 733 814 379 657 444 814 b 1088 529 1025 814 1088 657 z "},"П":{"ha":1326,"x_min":0,"x_max":0,"o":"m 128 0 l 414 0 l 414 806 l 913 806 l 913 0 l 1199 0 l 1199 1033 l 128 1033 z "},"Р":{"ha":1328,"x_min":0,"x_max":0,"o":"m 828 331 b 1256 675 1150 331 1256 479 l 1256 690 b 828 1033 1256 890 1154 1033 l 128 1033 l 128 0 l 414 0 l 414 331 z m 414 803 l 807 803 b 958 685 913 803 958 757 l 958 679 b 807 561 958 606 913 561 l 414 561 z "},"С":{"ha":1399,"x_min":0,"x_max":0,"o":"m 743 -15 b 1321 400 1182 -15 1321 211 l 1321 404 l 1026 404 b 713 222 1022 371 988 222 b 379 513 461 222 379 385 l 379 532 b 711 813 379 671 458 813 b 1026 638 983 813 1022 667 l 1321 638 l 1321 640 b 743 1049 1321 836 1176 1049 l 679 1049 b 82 540 207 1049 82 756 l 82 499 b 679 -15 82 288 207 -15 z "},"Т":{"ha":1213,"x_min":0,"x_max":0,"o":"m 464 0 l 749 0 l 749 797 l 1149 797 l 1149 1033 l 64 1033 l 64 797 l 464 797 z "},"У":{"ha":1281,"x_min":0,"x_max":0,"o":"m 1283 1033 l 968 1033 l 664 478 l 329 1033 l -3 1033 l 450 308 b 469 261 465 285 469 276 l 469 260 b 444 242 469 247 461 242 l 265 242 l 265 0 l 443 0 b 824 229 654 0 735 78 z "},"Ф":{"ha":1736,"x_min":0,"x_max":0,"o":"m 725 940 l 535 940 b 49 538 261 940 49 829 l 49 526 b 538 106 49 235 263 106 l 725 106 l 725 -14 l 1011 -14 l 1011 106 l 1199 106 b 1688 526 1474 106 1688 235 l 1688 538 b 1201 940 1688 829 1475 940 l 1011 940 l 1011 1047 l 725 1047 z m 725 714 l 725 332 l 594 332 b 346 526 435 332 346 386 l 346 538 b 594 714 346 660 438 714 z m 1011 714 l 1142 714 b 1390 538 1299 714 1390 660 l 1390 526 b 1142 332 1390 386 1301 332 l 1011 332 z "},"Х":{"ha":1306,"x_min":0,"x_max":0,"o":"m 946 0 l 1292 0 l 838 528 l 1272 1033 l 943 1033 l 664 713 l 383 1033 l 21 1033 l 469 525 l 14 0 l 350 0 l 650 336 z "},"Ц":{"ha":1400,"x_min":0,"x_max":0,"o":"m 1093 -174 l 1365 -174 l 1365 228 l 1199 228 l 1199 1033 l 913 1033 l 913 228 l 414 228 l 414 1033 l 128 1033 l 128 0 l 1093 0 z "},"Ч":{"ha":1300,"x_min":0,"x_max":0,"o":"m 886 0 l 1172 0 l 1172 1033 l 886 1033 l 886 607 b 671 592 846 600 753 592 b 363 799 447 592 363 632 l 363 1033 l 76 1033 l 76 751 b 632 365 76 422 297 365 b 886 383 715 365 797 372 z "},"Ш":{"ha":1792,"x_min":0,"x_max":0,"o":"m 128 0 l 1664 0 l 1664 1033 l 1378 1033 l 1378 228 l 1039 228 l 1039 1033 l 753 1033 l 753 228 l 414 228 l 414 1033 l 128 1033 z "},"Щ":{"ha":1865,"x_min":0,"x_max":0,"o":"m 128 0 l 1558 0 l 1558 -174 l 1831 -174 l 1831 228 l 1664 228 l 1664 1033 l 1378 1033 l 1378 228 l 1039 228 l 1039 1033 l 753 1033 l 753 228 l 414 228 l 414 1033 l 128 1033 z "},"Ъ":{"ha":1504,"x_min":0,"x_max":0,"o":"m 614 1033 l 28 1033 l 28 806 l 328 806 l 328 0 l 1035 0 b 1456 344 1351 0 1456 149 l 1456 360 b 1035 700 1456 556 1356 700 l 614 700 z m 614 228 l 614 472 l 1013 472 b 1158 357 1111 472 1158 428 l 1158 347 b 1013 228 1158 276 1111 228 z "},"Ы":{"ha":1785,"x_min":0,"x_max":0,"o":"m 414 1033 l 128 1033 l 128 0 l 835 0 b 1256 344 1151 0 1256 149 l 1256 360 b 835 700 1256 556 1156 700 l 414 700 z m 414 228 l 414 472 l 813 472 b 958 357 911 472 958 428 l 958 347 b 813 228 958 276 911 228 z m 1657 1033 l 1371 1033 l 1371 0 l 1657 0 z "},"Ь":{"ha":1304,"x_min":0,"x_max":0,"o":"m 414 1033 l 128 1033 l 128 0 l 835 0 b 1256 344 1151 0 1256 149 l 1256 360 b 835 700 1256 556 1156 700 l 414 700 z m 414 228 l 414 472 l 813 472 b 958 357 911 472 958 428 l 958 347 b 813 228 958 276 911 228 z "},"Э":{"ha":1399,"x_min":0,"x_max":0,"o":"m 1317 540 b 719 1049 1317 756 1192 1049 l 656 1049 b 78 640 222 1049 78 836 l 78 638 l 372 638 b 688 819 376 667 415 819 b 1011 633 882 819 978 738 l 540 633 l 540 414 l 1011 414 b 686 215 978 311 881 215 b 372 404 411 215 376 371 l 78 404 l 78 400 b 656 -15 78 211 217 -15 l 719 -15 b 1317 499 1192 -15 1317 288 z "},"Ю":{"ha":1925,"x_min":0,"x_max":0,"o":"m 1843 540 b 1236 1050 1843 767 1708 1050 l 1175 1050 b 579 650 778 1050 619 849 l 414 650 l 414 1033 l 128 1033 l 128 0 l 414 0 l 414 415 l 575 415 b 1175 -17 604 208 760 -17 l 1236 -17 b 1843 499 1708 -17 1843 276 z m 1546 510 b 1206 221 1546 385 1485 221 b 865 510 932 221 865 385 l 865 529 b 1206 814 865 657 928 814 b 1546 529 1486 814 1546 657 z "},"Я":{"ha":1364,"x_min":0,"x_max":0,"o":"m 950 351 l 950 0 l 1236 0 l 1236 1033 l 538 1033 b 103 701 249 1033 103 889 l 103 688 b 417 383 103 511 215 411 l 49 0 l 396 0 l 732 351 z m 950 581 l 547 581 b 403 692 465 581 403 611 l 403 696 b 547 806 403 772 457 806 l 950 806 z "},"а":{"ha":1088,"x_min":0,"x_max":0,"o":"m 476 154 b 347 239 382 154 347 190 l 347 242 b 519 336 347 296 389 314 b 689 372 597 349 665 363 l 689 313 b 476 154 689 254 635 154 z m 697 107 b 826 0 708 57 746 0 l 1046 0 l 1046 207 l 1017 207 b 953 275 963 207 953 226 l 953 529 b 547 789 953 632 929 789 l 504 789 b 94 533 125 789 94 610 l 94 531 l 372 531 b 528 615 372 560 386 615 b 689 540 678 615 689 576 b 631 490 689 508 674 494 l 419 472 b 74 235 158 450 74 368 l 74 229 b 378 -15 74 101 163 -15 l 400 -15 b 697 107 581 -15 664 67 z "},"б":{"ha":1149,"x_min":0,"x_max":0,"o":"m 1075 376 b 697 742 1075 649 881 742 l 689 742 b 339 618 518 742 410 692 b 619 821 343 758 419 821 l 792 821 b 1042 1051 981 821 1042 889 l 776 1051 b 682 1026 774 1035 768 1026 l 619 1026 b 74 533 258 1026 74 904 l 74 451 b 565 -21 74 85 294 -21 l 593 -21 b 1075 358 856 -21 1075 69 z m 568 182 b 353 368 436 182 353 240 b 568 551 353 494 435 551 l 585 551 b 796 369 704 551 796 492 b 583 182 796 243 706 182 z "},"в":{"ha":1110,"x_min":0,"x_max":0,"o":"m 749 0 b 1033 217 942 0 1033 76 l 1033 222 b 854 411 1033 333 949 400 b 1008 579 947 426 1008 483 l 1008 586 b 721 771 1008 708 897 771 l 113 771 l 113 0 z m 383 464 l 383 615 l 632 615 b 731 544 700 615 731 589 l 731 538 b 632 464 731 489 697 464 z m 383 156 l 383 324 l 643 324 b 756 244 722 324 756 293 l 756 233 b 643 156 756 179 715 156 z "},"г":{"ha":819,"x_min":0,"x_max":0,"o":"m 113 0 l 383 0 l 383 565 l 785 565 l 785 771 l 113 771 z "},"д":{"ha":1213,"x_min":0,"x_max":0,"o":"m 49 -164 l 306 -164 l 306 0 l 907 0 l 907 -164 l 1164 -164 l 1164 206 l 1025 206 l 1025 771 l 210 771 b 142 206 203 540 194 311 l 49 206 z m 397 206 b 453 565 435 313 449 465 l 754 565 l 754 206 z "},"е":{"ha":1126,"x_min":0,"x_max":0,"o":"m 561 611 b 763 474 735 611 763 531 l 354 474 b 561 611 368 554 421 611 z m 768 240 b 585 167 761 228 742 167 b 351 328 419 167 363 239 l 1053 328 l 1053 353 b 588 788 1053 568 982 788 l 526 788 b 75 394 161 788 75 568 l 75 375 b 550 -18 75 190 169 -18 l 601 -18 b 1050 240 1000 -18 1050 176 z "},"ж":{"ha":1475,"x_min":0,"x_max":0,"o":"m 596 0 l 867 0 l 867 340 l 1153 0 l 1475 0 l 1118 425 l 1440 771 l 1128 771 l 867 478 l 867 771 l 596 771 l 596 478 l 335 771 l 15 771 l 349 413 l 0 0 l 310 0 l 596 340 z "},"з":{"ha":1054,"x_min":0,"x_max":0,"o":"m 978 228 b 800 403 978 350 878 388 b 953 579 864 418 953 463 l 953 585 b 547 792 953 729 807 792 l 525 792 b 81 549 274 792 81 714 l 81 544 l 371 544 b 535 624 375 599 431 624 b 674 554 628 624 674 600 l 674 550 b 576 482 674 506 636 482 l 393 482 l 393 317 l 576 317 b 699 246 654 317 699 303 l 699 242 b 542 150 699 181 643 150 b 364 268 447 150 368 182 l 74 268 l 74 257 b 528 -21 74 97 211 -21 l 553 -21 b 978 219 849 -21 978 65 z "},"и":{"ha":1146,"x_min":0,"x_max":0,"o":"m 763 467 l 763 0 l 1033 0 l 1033 771 l 756 771 l 383 304 l 383 771 l 113 771 l 113 0 l 390 0 z "},"й":{"ha":1146,"x_min":0,"x_max":0,"o":"m 763 467 l 763 0 l 1033 0 l 1033 771 l 756 771 l 383 304 l 383 771 l 113 771 l 113 0 l 390 0 z m 590 850 b 847 1072 792 850 847 1000 l 847 1076 l 646 1076 b 571 1003 646 1058 636 1003 b 493 1076 501 1003 493 1058 l 289 1076 l 289 1072 b 549 850 289 1000 328 850 z "},"к":{"ha":1008,"x_min":0,"x_max":0,"o":"m 686 0 l 1008 0 l 651 425 l 974 771 l 661 771 l 386 463 l 386 771 l 115 771 l 115 0 l 386 0 l 386 357 z "},"л":{"ha":1128,"x_min":0,"x_max":0,"o":"m 744 0 l 1015 0 l 1015 771 l 181 771 b 165 289 181 414 176 349 b 65 201 150 218 114 201 l 49 201 l 49 0 l 133 0 b 406 172 338 0 376 94 b 439 565 432 243 439 358 l 744 565 z "},"м":{"ha":1424,"x_min":0,"x_max":0,"o":"m 363 519 l 603 0 l 810 0 l 1050 519 l 1050 0 l 1321 0 l 1321 771 l 953 771 l 724 279 l 494 771 l 113 771 l 113 0 l 363 0 z "},"н":{"ha":1144,"x_min":0,"x_max":0,"o":"m 383 0 l 383 285 l 761 285 l 761 0 l 1032 0 l 1032 771 l 761 771 l 761 490 l 383 490 l 383 771 l 113 771 l 113 0 z "},"о":{"ha":1149,"x_min":0,"x_max":0,"o":"m 596 -21 b 1075 371 1025 -21 1075 232 l 1075 393 b 597 792 1075 529 1025 792 l 551 792 b 74 392 138 792 74 531 l 74 372 b 553 -21 74 232 138 -21 z m 567 182 b 353 389 389 182 353 304 b 567 593 353 476 389 593 l 582 593 b 796 389 753 593 796 476 b 582 182 796 304 753 182 z "},"п":{"ha":1117,"x_min":0,"x_max":0,"o":"m 113 0 l 383 0 l 383 565 l 733 565 l 733 0 l 1004 0 l 1004 771 l 113 771 z "},"р":{"ha":1178,"x_min":0,"x_max":0,"o":"m 821 385 b 613 189 821 306 782 189 l 599 189 b 385 385 436 189 385 300 l 385 389 b 599 585 385 478 436 585 l 613 585 b 821 389 782 585 821 472 z m 115 -265 l 386 -265 l 386 99 b 690 -15 419 65 514 -15 l 710 -15 b 1101 378 1003 -15 1101 210 l 1101 401 b 711 786 1101 585 1006 786 l 693 786 b 383 672 518 786 417 708 l 383 771 l 115 771 z "},"с":{"ha":1113,"x_min":0,"x_max":0,"o":"m 757 303 b 572 181 757 285 733 181 l 558 181 b 356 390 401 181 356 294 l 356 392 b 553 594 356 485 393 594 l 567 594 b 757 476 726 594 753 499 l 1040 476 l 1040 478 b 594 792 1040 589 967 792 l 531 792 b 75 394 143 792 75 540 l 75 375 b 532 -21 75 229 147 -21 l 600 -21 b 1040 303 971 -21 1040 186 z "},"т":{"ha":938,"x_min":0,"x_max":0,"o":"m 333 0 l 604 0 l 604 565 l 903 565 l 903 771 l 35 771 l 35 565 l 333 565 z "},"у":{"ha":1046,"x_min":0,"x_max":0,"o":"m 171 -265 l 419 -265 b 668 -78 547 -265 614 -204 l 1021 771 l 749 771 l 536 218 l 322 771 l 25 771 l 356 36 b 381 -39 376 -7 381 -22 l 381 -40 b 340 -72 381 -61 367 -72 l 171 -72 z "},"ф":{"ha":1457,"x_min":0,"x_max":0,"o":"m 904 -21 b 1383 371 1333 -21 1383 232 l 1383 393 b 906 792 1383 529 1333 792 l 864 792 l 864 1033 l 593 1033 l 593 792 l 551 792 b 74 393 124 792 74 529 l 74 371 b 553 -21 74 232 124 -21 l 593 -21 l 593 -261 l 864 -261 l 864 -21 z m 567 175 b 353 389 396 175 353 290 b 567 600 353 490 396 600 l 593 600 l 593 175 z m 890 600 b 1104 389 1061 600 1104 489 b 890 175 1104 290 1061 175 l 864 175 l 864 600 z "},"х":{"ha":1044,"x_min":0,"x_max":0,"o":"m 729 0 l 1042 0 l 689 392 l 1021 771 l 722 771 l 532 556 l 335 771 l 3 771 l 360 386 l 14 0 l 321 0 l 522 221 z "},"ц":{"ha":1192,"x_min":0,"x_max":0,"o":"m 1143 206 l 1004 206 l 1004 771 l 733 771 l 733 206 l 383 206 l 383 771 l 113 771 l 113 0 l 886 0 l 886 -164 l 1143 -164 z "},"ч":{"ha":1068,"x_min":0,"x_max":0,"o":"m 685 771 l 685 472 b 525 463 642 467 579 463 b 333 632 382 463 333 488 l 333 771 l 63 771 l 63 582 b 483 251 63 338 178 251 b 685 265 556 251 625 258 l 685 0 l 956 0 l 956 771 z "},"ш":{"ha":1515,"x_min":0,"x_max":0,"o":"m 113 0 l 1403 0 l 1403 771 l 1132 771 l 1132 206 l 893 206 l 893 771 l 622 771 l 622 206 l 383 206 l 383 771 l 113 771 z "},"щ":{"ha":1590,"x_min":0,"x_max":0,"o":"m 113 0 l 1285 0 l 1285 -164 l 1542 -164 l 1542 206 l 1403 206 l 1403 771 l 1132 771 l 1132 206 l 893 206 l 893 771 l 622 771 l 622 206 l 383 206 l 383 771 l 113 771 z "},"ъ":{"ha":1147,"x_min":0,"x_max":0,"o":"m 35 565 l 250 565 l 250 0 l 732 0 b 1099 269 996 0 1099 108 l 1099 286 b 732 550 1099 433 996 550 l 521 550 l 521 771 l 35 771 z m 521 183 l 521 367 l 699 367 b 821 279 754 367 821 349 l 821 275 b 699 183 821 200 754 183 z "},"ы":{"ha":1443,"x_min":0,"x_max":0,"o":"m 113 0 l 594 0 b 961 269 858 0 961 108 l 961 286 b 594 550 961 433 858 550 l 383 550 l 383 771 l 113 771 z m 383 183 l 383 367 l 561 367 b 683 279 617 367 683 349 l 683 275 b 561 183 683 200 617 183 z m 1331 771 l 1060 771 l 1060 0 l 1331 0 z "},"ь":{"ha":1010,"x_min":0,"x_max":0,"o":"m 113 0 l 594 0 b 961 269 858 0 961 108 l 961 286 b 594 550 961 433 858 550 l 383 550 l 383 771 l 113 771 z m 383 183 l 383 367 l 561 367 b 683 279 617 367 683 349 l 683 275 b 561 183 683 200 617 183 z "},"э":{"ha":1111,"x_min":0,"x_max":0,"o":"m 1038 394 b 582 792 1038 540 969 792 l 518 792 b 72 478 146 792 72 589 l 72 476 l 356 476 b 546 601 360 500 385 601 l 560 601 b 750 481 675 601 728 547 l 444 481 l 444 314 l 754 314 b 554 174 732 239 675 174 l 540 174 b 356 303 379 174 356 282 l 72 303 b 513 -21 72 186 142 -21 l 581 -21 b 1038 375 965 -21 1038 229 z "},"ю":{"ha":1538,"x_min":0,"x_max":0,"o":"m 1464 393 b 1000 792 1464 529 1415 792 l 954 792 b 501 490 636 792 531 628 l 383 490 l 383 771 l 113 771 l 113 0 l 383 0 l 383 285 l 499 285 b 956 -21 525 147 628 -21 l 999 -21 b 1464 371 1415 -21 1464 232 z m 969 182 b 769 389 797 182 769 304 b 969 593 769 476 797 593 l 985 593 b 1185 389 1150 593 1185 476 b 985 182 1185 304 1150 182 z "},"я":{"ha":1144,"x_min":0,"x_max":0,"o":"m 761 258 l 761 0 l 1032 0 l 1032 771 l 397 771 b 90 524 204 771 90 664 l 90 507 b 300 288 90 390 167 314 l 49 0 l 354 0 l 579 258 z m 761 593 l 761 435 l 472 435 b 361 513 413 435 361 453 l 361 518 b 471 593 361 579 411 593 z "},"ђ":{"ha":1150,"x_min":0,"x_max":0,"o":"m 1038 500 b 710 789 1038 638 936 789 l 696 789 b 386 650 521 789 419 690 l 386 858 l 757 858 l 757 979 l 386 979 l 386 1051 l 115 1051 l 115 979 l -15 979 l -15 858 l 115 858 l 115 0 l 386 0 l 386 392 b 582 576 386 486 453 576 b 767 401 715 576 767 490 l 767 -3 b 713 -64 767 -47 753 -64 l 629 -64 l 629 -265 l 876 -265 b 1038 -68 983 -265 1038 -196 z "},"ѓ":{"ha":819,"x_min":0,"x_max":0,"o":"m 113 0 l 383 0 l 383 565 l 785 565 l 785 771 l 113 771 z m 296 857 l 567 857 l 721 1064 l 418 1064 z "},"є":{"ha":1113,"x_min":0,"x_max":0,"o":"m 757 303 b 572 174 757 282 733 174 l 558 174 b 358 314 436 174 381 239 l 668 314 l 668 481 l 363 481 b 553 601 385 547 438 601 l 567 601 b 757 476 728 601 753 500 l 1040 476 l 1040 478 b 594 792 1040 589 967 792 l 531 792 b 75 394 143 792 75 540 l 75 375 b 532 -21 75 229 147 -21 l 600 -21 b 1040 303 971 -21 1040 186 z "},"ѕ":{"ha":1024,"x_min":0,"x_max":0,"o":"m 522 -18 b 949 246 893 -18 949 117 l 949 256 b 594 483 949 385 872 472 l 489 488 b 350 560 378 492 350 517 b 497 624 350 599 381 624 l 501 624 b 649 549 628 624 640 576 l 932 549 l 932 553 b 514 789 932 653 888 789 l 476 789 b 78 547 150 789 78 679 l 78 539 b 417 308 78 411 168 324 l 522 300 b 669 226 651 293 669 265 b 521 153 669 189 642 153 l 518 153 b 364 235 381 153 368 208 l 74 235 l 74 228 b 486 -18 74 163 107 -18 z "},"і":{"ha":501,"x_min":0,"x_max":0,"o":"m 389 1051 l 113 1051 l 113 857 l 389 857 z m 386 771 l 115 771 l 115 0 l 386 0 z "},"ї":{"ha":501,"x_min":0,"x_max":0,"o":"m 221 1051 l 6 1051 l 6 857 l 221 857 z m 496 1051 l 281 1051 l 281 857 l 496 857 z m 386 771 l 115 771 l 115 0 l 386 0 z "},"ј":{"ha":501,"x_min":0,"x_max":0,"o":"m 389 1051 l 113 1051 l 113 857 l 389 857 z m -22 -64 l -22 -265 l 225 -265 b 386 -68 332 -265 386 -196 l 386 771 l 115 771 l 115 -3 b 61 -64 115 -47 101 -64 z "},"љ":{"ha":1586,"x_min":0,"x_max":0,"o":"m 165 289 b 65 201 150 218 114 201 l 49 201 l 49 0 l 133 0 b 406 172 338 0 376 94 b 439 565 432 243 439 358 l 689 565 l 689 0 l 1171 0 b 1538 269 1435 0 1538 108 l 1538 286 b 1171 550 1538 433 1435 550 l 960 550 l 960 771 l 181 771 b 165 289 181 414 176 349 z m 960 183 l 960 367 l 1138 367 b 1260 279 1193 367 1260 349 l 1260 275 b 1138 183 1260 200 1193 183 z "},"њ":{"ha":1575,"x_min":0,"x_max":0,"o":"m 383 328 l 678 328 l 678 0 l 1160 0 b 1526 261 1424 0 1526 106 l 1526 278 b 1160 533 1526 418 1424 533 l 949 533 l 949 771 l 678 771 l 678 533 l 383 533 l 383 771 l 113 771 l 113 0 l 383 0 z m 949 350 l 1126 350 b 1249 271 1182 350 1249 333 l 1249 267 b 1126 183 1249 199 1182 183 l 949 183 z "},"ќ":{"ha":1008,"x_min":0,"x_max":0,"o":"m 686 0 l 1008 0 l 651 425 l 974 771 l 661 771 l 386 463 l 386 771 l 115 771 l 115 0 l 386 0 l 386 357 z m 386 857 l 657 857 l 811 1064 l 508 1064 z "},"ў":{"ha":1046,"x_min":0,"x_max":0,"o":"m 171 -265 l 419 -265 b 668 -78 547 -265 614 -204 l 1021 771 l 749 771 l 536 218 l 322 771 l 25 771 l 356 36 b 381 -39 376 -7 381 -22 l 381 -40 b 340 -72 381 -61 367 -72 l 171 -72 z m 551 850 b 808 1072 753 850 808 1000 l 808 1076 l 607 1076 b 532 1003 607 1058 597 1003 b 454 1076 463 1003 454 1058 l 250 1076 l 250 1072 b 510 850 250 1000 289 850 z "},"џ":{"ha":1117,"x_min":0,"x_max":0,"o":"m 1004 0 l 1004 771 l 733 771 l 733 206 l 383 206 l 383 771 l 113 771 l 113 0 l 431 0 l 431 -164 l 686 -164 l 686 0 z "},"Ґ":{"ha":1024,"x_min":0,"x_max":0,"o":"m 128 0 l 414 0 l 414 806 l 989 806 l 989 1203 l 717 1203 l 717 1033 l 128 1033 z "},"ґ":{"ha":819,"x_min":0,"x_max":0,"o":"m 113 0 l 383 0 l 383 565 l 785 565 l 785 911 l 528 911 l 528 771 l 113 771 z "},"Ғ":{"ha":1061,"x_min":0,"x_max":0,"o":"m 165 622 l 24 622 l 24 428 l 165 428 l 165 0 l 451 0 l 451 428 l 744 428 l 744 622 l 451 622 l 451 806 l 1026 806 l 1026 1033 l 165 1033 z "},"ғ":{"ha":839,"x_min":0,"x_max":0,"o":"m 132 426 l 17 426 l 17 289 l 132 289 l 132 0 l 403 0 l 403 289 l 631 289 l 631 426 l 403 426 l 403 565 l 804 565 l 804 771 l 132 771 z "},"Җ":{"ha":1869,"x_min":0,"x_max":0,"o":"m 1863 -174 l 1863 228 l 1644 228 l 1339 560 l 1832 1033 l 1476 1033 l 1063 638 l 1063 1033 l 776 1033 l 776 638 l 363 1033 l 0 1033 l 507 547 l -7 0 l 349 0 l 776 456 l 776 0 l 1063 0 l 1063 456 l 1490 0 l 1590 0 l 1590 -174 z "},"җ":{"ha":1481,"x_min":0,"x_max":0,"o":"m 596 0 l 867 0 l 867 340 l 1153 0 l 1224 0 l 1224 -164 l 1481 -164 l 1481 206 l 1301 206 l 1118 425 l 1440 771 l 1128 771 l 867 478 l 867 771 l 596 771 l 596 478 l 335 771 l 15 771 l 349 413 l 0 0 l 310 0 l 596 340 z "},"Қ":{"ha":1293,"x_min":0,"x_max":0,"o":"m 1286 -174 l 1286 228 l 1053 228 l 717 560 l 1261 1033 l 897 1033 l 414 608 l 414 1033 l 128 1033 l 128 0 l 414 0 l 414 486 l 911 0 l 1014 0 l 1014 -174 z "},"қ":{"ha":1008,"x_min":0,"x_max":0,"o":"m 686 0 l 751 0 l 751 -164 l 1008 -164 l 1008 206 l 835 206 l 651 425 l 974 771 l 661 771 l 386 463 l 386 771 l 115 771 l 115 0 l 386 0 l 386 357 z "},"Ң":{"ha":1478,"x_min":0,"x_max":0,"o":"m 1443 -174 l 1443 228 l 1276 228 l 1276 1033 l 990 1033 l 990 650 l 414 650 l 414 1033 l 128 1033 l 128 0 l 414 0 l 414 415 l 990 415 l 990 0 l 1171 0 l 1171 -174 z "},"ң":{"ha":1219,"x_min":0,"x_max":0,"o":"m 383 0 l 383 285 l 761 285 l 761 0 l 914 0 l 914 -164 l 1171 -164 l 1171 206 l 1032 206 l 1032 771 l 761 771 l 761 490 l 383 490 l 383 771 l 113 771 l 113 0 z "},"Ү":{"ha":1288,"x_min":0,"x_max":0,"o":"m 510 0 l 796 0 l 796 376 l 1290 1033 l 971 1033 l 661 624 l 351 1033 l -3 1033 l 510 378 z "},"ү":{"ha":1039,"x_min":0,"x_max":0,"o":"m 657 0 l 1014 771 l 740 771 l 525 275 l 306 771 l 25 771 l 386 0 l 386 -265 l 657 -265 z "},"Ұ":{"ha":1288,"x_min":0,"x_max":0,"o":"m 224 378 l 224 201 l 510 201 l 510 0 l 796 0 l 796 201 l 1083 201 l 1083 378 l 797 378 l 1290 1033 l 971 1033 l 661 624 l 351 1033 l -3 1033 l 510 378 z "},"ұ":{"ha":1039,"x_min":0,"x_max":0,"o":"m 657 -137 l 829 -137 l 829 0 l 657 0 l 1014 771 l 740 771 l 525 275 l 306 771 l 25 771 l 386 0 l 214 0 l 214 -137 l 386 -137 l 386 -265 l 657 -265 z "},"Ҳ":{"ha":1299,"x_min":0,"x_max":0,"o":"m 946 0 l 1019 0 l 1019 -174 l 1292 -174 l 1292 228 l 1096 228 l 838 528 l 1272 1033 l 943 1033 l 664 713 l 383 1033 l 21 1033 l 469 525 l 14 0 l 350 0 l 650 336 z "},"ҳ":{"ha":1042,"x_min":0,"x_max":0,"o":"m 729 0 l 785 0 l 785 -164 l 1042 -164 l 1042 206 l 856 206 l 689 392 l 1021 771 l 722 771 l 532 556 l 335 771 l 3 771 l 360 386 l 14 0 l 321 0 l 522 221 z "},"Һ":{"ha":1335,"x_min":0,"x_max":0,"o":"m 428 1033 l 142 1033 l 142 0 l 428 0 l 428 426 b 643 442 468 433 561 442 b 951 235 867 442 951 401 l 951 0 l 1238 0 l 1238 282 b 682 668 1238 611 1017 668 b 428 650 599 668 517 661 z "},"һ":{"ha":1150,"x_min":0,"x_max":0,"o":"m 115 0 l 386 0 l 386 392 b 582 576 386 486 453 576 b 767 401 715 576 767 490 l 767 0 l 1038 0 l 1038 500 b 710 789 1038 638 936 789 l 696 789 b 386 650 521 789 419 690 l 386 1051 l 115 1051 z "},"Ӏ":{"ha":542,"x_min":0,"x_max":0,"o":"m 414 1033 l 128 1033 l 128 0 l 414 0 z "},"ӏ":{"ha":501,"x_min":0,"x_max":0,"o":"m 386 1051 l 115 1051 l 115 0 l 386 0 z "},"Ә":{"ha":1426,"x_min":0,"x_max":0,"o":"m 733 -15 b 1344 499 1217 -15 1344 288 l 1344 540 b 733 1049 1344 756 1217 1049 l 669 1049 b 81 686 249 1049 107 858 l 375 686 b 701 826 394 743 460 826 b 1049 604 936 826 1026 743 l 78 604 l 78 525 b 669 -15 78 276 231 -15 z m 700 208 b 394 404 518 208 432 276 l 1042 404 b 700 208 1008 286 913 208 z "},"ә":{"ha":1126,"x_min":0,"x_max":0,"o":"m 565 160 b 364 297 392 160 364 240 l 772 297 b 565 160 758 217 706 160 z m 358 531 b 542 604 365 543 385 604 b 775 443 707 604 764 532 l 74 443 l 74 418 b 539 -17 74 203 144 -17 l 600 -17 b 1051 376 965 -17 1051 203 l 1051 396 b 576 789 1051 581 957 789 l 525 789 b 76 531 126 789 76 594 z "},"Ө":{"ha":1467,"x_min":0,"x_max":0,"o":"m 703 1050 b 82 540 219 1050 82 765 l 82 499 b 703 -17 82 276 219 -17 l 764 -17 b 1385 499 1247 -17 1385 276 l 1385 540 b 764 1050 1385 767 1247 1050 z m 733 819 b 1078 629 956 819 1044 729 l 389 629 b 733 819 422 729 514 819 z m 733 215 b 388 418 511 215 417 315 l 1081 418 b 733 215 1051 315 958 215 z "},"ө":{"ha":1149,"x_min":0,"x_max":0,"o":"m 596 -21 b 1075 371 1025 -21 1075 232 l 1075 393 b 597 792 1075 529 1025 792 l 551 792 b 74 392 138 792 74 531 l 74 372 b 553 -21 74 232 138 -21 z m 582 599 b 789 469 707 599 767 538 l 358 469 b 567 599 381 538 436 599 z m 567 176 b 358 311 435 176 381 242 l 789 311 b 582 176 767 240 710 176 z "}," ":{"ha":97,"x_min":0,"x_max":0,"o":""},"₴":{"ha":1344,"x_min":0,"x_max":0,"o":"m 1288 685 l 1211 685 b 1219 736 1217 704 1219 721 l 1219 740 b 706 1046 1219 901 1133 1046 l 658 1046 b 139 757 215 1046 139 886 l 139 742 l 446 742 b 678 842 450 782 483 842 l 692 842 b 918 750 860 842 918 807 b 883 685 918 724 911 701 l 57 685 l 57 561 l 1288 561 z m 1231 308 l 919 308 b 676 192 915 272 894 192 l 667 192 b 424 315 451 192 424 256 b 439 365 424 336 429 353 l 1288 365 l 1288 489 l 57 489 l 57 365 l 122 365 b 118 326 119 354 118 342 l 118 319 b 650 -18 118 169 196 -18 l 690 -18 b 1231 293 1175 -18 1231 181 z "},"₸":{"ha":1213,"x_min":0,"x_max":0,"o":"m 64 1033 l 64 910 l 1150 910 l 1150 1033 z m 64 588 l 464 588 l 464 0 l 749 0 l 749 588 l 1149 588 l 1149 824 l 64 824 z "},"₽":{"ha":1385,"x_min":0,"x_max":0,"o":"m 885 331 b 1313 675 1207 331 1313 479 l 1313 690 b 885 1033 1313 890 1211 1033 l 185 1033 l 185 454 l 53 454 l 53 331 l 185 331 l 185 258 l 53 258 l 53 135 l 185 135 l 185 0 l 471 0 l 471 135 l 1006 135 l 1006 258 l 471 258 l 471 331 z m 471 803 l 864 803 b 1015 685 969 803 1015 757 l 1015 679 b 864 561 1015 606 969 561 l 471 561 z "},"№":{"ha":2111,"x_min":0,"x_max":0,"o":"m 1726 1043 b 1389 789 1447 1043 1389 883 l 1389 768 b 1726 511 1389 675 1447 511 l 1754 511 b 2090 768 2039 511 2090 675 l 2090 789 b 1754 1043 2090 883 2035 1043 z m 1899 776 b 1738 663 1899 725 1864 663 b 1581 776 1618 663 1581 725 l 1581 785 b 1738 893 1581 833 1611 893 b 1899 785 1865 893 1899 833 z m 1413 313 l 2054 313 l 2054 451 l 1413 451 z m 1024 0 l 1304 0 l 1304 1033 l 1026 1033 l 1026 368 l 422 1033 l 128 1033 l 128 0 l 407 0 l 407 669 z "},"Ё":{"ha":1183,"x_min":0,"x_max":0,"o":"m 128 1033 l 128 0 l 1082 0 l 1082 228 l 410 228 l 410 407 l 1053 407 l 1053 640 l 410 640 l 410 808 l 1074 808 l 1074 1033 z m 560 1313 l 290 1313 l 290 1118 l 560 1118 z m 915 1313 l 646 1313 l 646 1118 l 915 1118 z "},"Ї":{"ha":542,"x_min":0,"x_max":0,"o":"m 414 1033 l 128 1033 l 128 0 l 414 0 z m 228 1313 l -42 1313 l -42 1118 l 228 1118 z m 583 1313 l 314 1313 l 314 1118 l 583 1118 z "},"ё":{"ha":1126,"x_min":0,"x_max":0,"o":"m 561 611 b 763 474 735 611 763 531 l 354 474 b 561 611 368 554 421 611 z m 768 240 b 585 167 761 228 742 167 b 351 328 419 167 363 239 l 1053 328 l 1053 353 b 588 788 1053 568 982 788 l 526 788 b 75 394 161 788 75 568 l 75 375 b 550 -18 75 190 169 -18 l 601 -18 b 1050 240 1000 -18 1050 176 z m 517 1051 l 251 1051 l 251 857 l 517 857 z m 865 1051 l 600 1051 l 600 857 l 865 857 z "},"ћ":{"ha":1150,"x_min":0,"x_max":0,"o":"m 115 979 l -15 979 l -15 858 l 115 858 l 115 0 l 386 0 l 386 392 b 582 576 386 486 453 576 b 767 401 715 576 767 490 l 767 0 l 1038 0 l 1038 500 b 710 789 1038 638 936 789 l 696 789 b 386 650 521 789 419 690 l 386 858 l 757 858 l 757 979 l 386 979 l 386 1051 l 115 1051 z "}}}
